<?xml version="1.0" standalone="no"?>
 <!DOCTYPE svg PUBLIC "-//W3C//DTD SVG 1.1//EN" 
 "http://www.w3.org/Graphics/SVG/1.1/DTD/svg11.dtd"> 
<svg xmlns="http://www.w3.org/2000/svg" version="1.1" 
    width="29.7002cm" height="21.0007cm" viewBox="0 0 116930 82680 ">
<title>SVG Picture created as maximiseur3-F_SilkS.svg date 2019/08/20 20:43:00 </title>
  <desc>Picture generated by PCBNEW </desc>
<g style="fill:#000000; fill-opacity:1;stroke:#000000; stroke-opacity:1;
stroke-linecap:round; stroke-linejoin:round; "
 transform="translate(0 0) scale(1 1)">
</g>
<g style="fill:#000000; fill-opacity:0.0; 
stroke:#000000; stroke-width:-0.000393701; stroke-opacity:1; 
stroke-linecap:round; stroke-linejoin:round;">
</g>
<g style="fill:#000000; fill-opacity:0.0; 
stroke:#000000; stroke-width:39.3701; stroke-opacity:1; 
stroke-linecap:round; stroke-linejoin:round;">
<path d="M14400 52970
L14400 13600
" />
<path d="M73455 52970
L14400 52970
" />
<path d="M73455 13600
L73455 52970
" />
<path d="M14400 13600
L73455 13600
" />
</g>
<g style="fill:#000000; fill-opacity:0.0; 
stroke:#000000; stroke-width:118.11; stroke-opacity:1; 
stroke-linecap:round; stroke-linejoin:round;">
<path d="M21078 26857
L21078 27757
" />
<path d="M20628 27307
L21528 27307
" />
<path d="M20628 42504
L21809 42504
L20966 42898
L21809 43292
L20628 43292
" />
<path d="M21078 44754
L21078 45654
" />
<path d="M20628 17043
L21809 17043
L21809 17493
L21753 17605
L21697 17662
L21584 17718
L21416 17718
L21303 17662
L21247 17605
L21191 17493
L21191 17043
" />
<path d="M21809 18055
L20628 18449
L21809 18843
" />
<path d="M21078 20136
L21078 21036
" />
</g>
<g style="fill:#000000; fill-opacity:0.0; 
stroke:#000000; stroke-width:59.0551; stroke-opacity:1; 
stroke-linecap:round; stroke-linejoin:round;">
<path d="M56036 29534
L56036 32173
" />
<circle cx="56036.2" cy="32534.3" r="360.555" /> 
<circle cx="56036.2" cy="29184.3" r="353.554" /> 
</g>
<g style="fill:#000000; fill-opacity:0.0; 
stroke:#000000; stroke-width:118.11; stroke-opacity:1; 
stroke-linecap:round; stroke-linejoin:round;">
<path d="M62670 43268
L62698 43183
L62698 43043
L62670 42986
L62642 42958
L62586 42930
L62529 42930
L62473 42958
L62445 42986
L62417 43043
L62389 43155
L62361 43211
L62333 43240
L62276 43268
L62220 43268
L62164 43240
L62136 43211
L62108 43155
L62108 43015
L62136 42930
" />
<path d="M62389 42677
L62389 42480
" />
<path d="M62698 42396
L62698 42677
L62108 42677
L62108 42396
" />
<path d="M62108 42143
L62586 42143
L62642 42115
L62670 42087
L62698 42030
L62698 41918
L62670 41862
L62642 41833
L62586 41805
L62108 41805
" />
<path d="M62698 41524
L62108 41524
" />
<path d="M62698 40962
L62698 41243
L62108 41243
" />
</g>
<g style="fill:#000000; fill-opacity:0.0; 
stroke:#000000; stroke-width:78.7402; stroke-opacity:1; 
stroke-linecap:round; stroke-linejoin:round;">
<path d="M60290 51879
L59290 52091
" />
<path d="M60790 51879
L60290 51879
" />
<path d="M58790 51879
L59190 51879
" />
<path d="M60790 51479
L60790 51879
" />
<path d="M58790 51479
L58790 51879
" />
</g>
<g style="fill:#000000; fill-opacity:0.0; 
stroke:#000000; stroke-width:59.0551; stroke-opacity:1; 
stroke-linecap:round; stroke-linejoin:round;">
<path d="M29033 25084
L29033 29884
" />
<path d="M22633 25084
L29033 25084
" />
<path d="M22633 29884
L22633 25084
" />
<path d="M29033 29884
L22633 29884
" />
<circle cx="25833.9" cy="27484.3" r="984.252" /> 
<path d="M22290 24728
L22290 30240
" />
<path d="M29377 24728
L22290 24728
" />
<path d="M29377 30240
L29377 24728
" />
<path d="M22290 30240
L29377 30240
" />
<path d="M22664 46034
L22664 41234
" />
<path d="M29064 46034
L22664 46034
" />
<path d="M29064 41234
L29064 46034
" />
<path d="M22664 41234
L29064 41234
" />
<circle cx="25865" cy="43634.3" r="984.252" /> 
<path d="M29408 46390
L29408 40878
" />
<path d="M22321 46390
L29408 46390
" />
<path d="M22321 40878
L22321 46390
" />
<path d="M29408 40878
L22321 40878
" />
<path d="M22683 21237
L22683 16437
" />
<path d="M29083 21237
L22683 21237
" />
<path d="M29083 16437
L29083 21237
" />
<path d="M22683 16437
L29083 16437
" />
<circle cx="25883.9" cy="18837.4" r="984.252" /> 
<path d="M29427 21593
L29427 16081
" />
<path d="M22340 21593
L29427 21593
" />
<path d="M22340 16081
L22340 21593
" />
<path d="M29427 16081
L22340 16081
" />
<path d="M33789 38600
L35561 38600
" />
<path d="M33789 32497
L35561 32497
" />
<path d="M33789 38600
L33789 32497
" />
<path d="M35561 38600
L35561 32497
" />
<path d="M22175 32300
L20403 32300
" />
<path d="M22175 38403
L20403 38403
" />
<path d="M22175 32300
L22175 38403
" />
<path d="M20403 32300
L20403 38403
" />
<path d="M31033 24033
L32805 24033
" />
<path d="M31033 17930
L32805 17930
" />
<path d="M31033 24033
L31033 17930
" />
<path d="M32805 24033
L32805 17930
" />
</g>
<g style="fill:#000000; fill-opacity:0.0; 
stroke:#000000; stroke-width:47.2441; stroke-opacity:1; 
stroke-linecap:round; stroke-linejoin:round;">
<path d="M53666 46075
L53174 46075
" />
<path d="M53666 50122
L53666 46075
" />
<path d="M51895 50122
L53666 50122
" />
<path d="M51895 46075
L51895 50122
" />
<path d="M52387 46075
L51895 46075
" />
<path d="M52387.4 46075.6 A393.701 393.701 0.0 0 0 53174.8 46075.6 " />
</g>
<g style="fill:#000000; fill-opacity:0.0; 
stroke:#000000; stroke-width:59.0551; stroke-opacity:1; 
stroke-linecap:round; stroke-linejoin:round;">
<path d="M56167 36884
L56167 36234
" />
<path d="M56867 36884
L56167 36884
" />
<path d="M56867 36184
L56867 36884
" />
<path d="M56167 36184
L56867 36184
" />
<circle cx="58517.7" cy="36534.3" r="390.513" /> 
<circle cx="57517.7" cy="36534.3" r="390.513" /> 
</g>
<g style="fill:#000000; fill-opacity:0.0; 
stroke:#000000; stroke-width:47.2441; stroke-opacity:1; 
stroke-linecap:round; stroke-linejoin:round;">
<path d="M55895 35699
L59139 35699
" />
<path d="M55895 37073
L59139 37073
" />
<path d="M55895 35699
L55895 37073
" />
<path d="M59139 35699
L59139 37073
" />
<path d="M56887 35699
L56887 36120
" />
<path d="M56887 36947
L56887 37073
" />
<path d="M58148 35699
L58148 36321
" />
<path d="M58148 36746
L58148 37073
" />
<path d="M48667 37843
L48667 38146
" />
<path d="M48667 41024
L48667 40721
" />
<path d="M48128 38146
L48128 40721
" />
<path d="M49207 38146
L48128 38146
" />
<path d="M49207 40721
L49207 38146
" />
<path d="M48128 40721
L49207 40721
" />
<path d="M46767 37843
L46767 38146
" />
<path d="M46767 41024
L46767 40721
" />
<path d="M46228 38146
L46228 40721
" />
<path d="M47307 38146
L46228 38146
" />
<path d="M47307 40721
L47307 38146
" />
<path d="M46228 40721
L47307 40721
" />
<path d="M42767 37843
L42767 38146
" />
<path d="M42767 41024
L42767 40721
" />
<path d="M42228 38146
L42228 40721
" />
<path d="M43307 38146
L42228 38146
" />
<path d="M43307 40721
L43307 38146
" />
<path d="M42228 40721
L43307 40721
" />
<path d="M38967 37843
L38967 38146
" />
<path d="M38967 41024
L38967 40721
" />
<path d="M38428 38146
L38428 40721
" />
<path d="M39507 38146
L38428 38146
" />
<path d="M39507 40721
L39507 38146
" />
<path d="M38428 40721
L39507 40721
" />
<path d="M51470 41402
L51773 41402
" />
<path d="M54651 41402
L54348 41402
" />
<path d="M51773 41941
L54348 41941
" />
<path d="M51773 40862
L51773 41941
" />
<path d="M54348 40862
L51773 40862
" />
<path d="M54348 41941
L54348 40862
" />
<path d="M56997 40142
L56694 40142
" />
<path d="M53816 40142
L54119 40142
" />
<path d="M56694 39603
L54119 39603
" />
<path d="M56694 40681
L56694 39603
" />
<path d="M54119 40681
L56694 40681
" />
<path d="M54119 39603
L54119 40681
" />
<path d="M50682 43449
L50985 43449
" />
<path d="M53863 43449
L53560 43449
" />
<path d="M50985 43988
L53560 43988
" />
<path d="M50985 42910
L50985 43988
" />
<path d="M53560 42910
L50985 42910
" />
<path d="M53560 43988
L53560 42910
" />
<path d="M58162 45883
L58466 45883
" />
<path d="M61344 45883
L61040 45883
" />
<path d="M58466 46422
L61040 46422
" />
<path d="M58466 45344
L58466 46422
" />
<path d="M61040 45344
L58466 45344
" />
<path d="M61040 46422
L61040 45344
" />
<path d="M61328 38488
L61025 38488
" />
<path d="M58147 38488
L58450 38488
" />
<path d="M61025 37949
L58450 37949
" />
<path d="M61025 39028
L61025 37949
" />
<path d="M58450 39028
L61025 39028
" />
<path d="M58450 37949
L58450 39028
" />
<path d="M59458 34334
L59155 34334
" />
<path d="M56277 34334
L56580 34334
" />
<path d="M59155 33794
L56580 33794
" />
<path d="M59155 34873
L59155 33794
" />
<path d="M56580 34873
L59155 34873
" />
<path d="M56580 33794
L56580 34873
" />
<path d="M47885 48378
L47885 47654
" />
<path d="M47790 48378
L47790 47654
" />
<path d="M47837 48378
L47837 47654
" />
<path d="M46308 48016
L46773 48016
" />
<path d="M48529 48016
L48064 48016
" />
<path d="M46773 48378
L48064 48378
" />
<path d="M46773 47654
L46773 48378
" />
<path d="M48064 47654
L46773 47654
" />
<path d="M48064 48378
L48064 47654
" />
<path d="M60505 33300
L61229 33300
" />
<path d="M60505 33205
L61229 33205
" />
<path d="M60505 33253
L61229 33253
" />
<path d="M60867 31724
L60867 32188
" />
<path d="M60867 33944
L60867 33479
" />
<path d="M60505 32188
L60505 33479
" />
<path d="M61229 32188
L60505 32188
" />
<path d="M61229 33479
L61229 32188
" />
<path d="M60505 33479
L61229 33479
" />
<path d="M56525 38441
L56525 39323
" />
<path d="M53674 38441
L53674 39323
" />
<path d="M53674 39323
L56525 39323
" />
<path d="M53674 38441
L56525 38441
" />
<path d="M51863 45386
L51863 44504
" />
<path d="M54714 45386
L54714 44504
" />
<path d="M54714 44504
L51863 44504
" />
<path d="M54714 45386
L51863 45386
" />
</g>
<g style="fill:#000000; fill-opacity:0.0; 
stroke:#000000; stroke-width:59.0551; stroke-opacity:1; 
stroke-linecap:round; stroke-linejoin:round;">
<path d="M55375 36284
L55375 36914
" />
<path d="M54745 36284
L55375 36284
" />
<path d="M54745 36914
L54745 36284
" />
<path d="M55375 36914
L54745 36914
" />
<circle cx="54076.4" cy="36599.2" r="317.412" /> 
</g>
<g style="fill:#000000; fill-opacity:0.0; 
stroke:#000000; stroke-width:47.2441; stroke-opacity:1; 
stroke-linecap:round; stroke-linejoin:round;">
<path d="M55574 37428
L55574 37231
" />
<path d="M55672 37329
L55475 37329
" />
</g>
<g style="fill:#000000; fill-opacity:0.0; 
stroke:#000000; stroke-width:59.0551; stroke-opacity:1; 
stroke-linecap:round; stroke-linejoin:round;">
<circle cx="54560.6" cy="36599.2" r="1073.55" /> 
<path d="M57904 51154
L61904 51154
" />
<path d="M57904 48154
L57904 51154
" />
<path d="M61904 48154
L57904 48154
" />
<path d="M61904 51154
L61904 48154
" />
<path d="M61904 50654
L57904 50654
" />
</g>
<g style="fill:#000000; fill-opacity:0.0; 
stroke:#000000; stroke-width:47.2441; stroke-opacity:1; 
stroke-linecap:round; stroke-linejoin:round;">
<circle cx="71486.6" cy="51001.6" r="1746.42" /> 
<circle cx="71486.6" cy="51001.6" r="1044.03" /> 
<circle cx="71486.6" cy="15568.5" r="1746.42" /> 
<circle cx="71486.6" cy="15568.5" r="1044.03" /> 
<circle cx="16368.5" cy="51001.6" r="1746.42" /> 
<circle cx="16368.5" cy="51001.6" r="1044.03" /> 
<circle cx="16368.5" cy="15500" r="1746.42" /> 
<circle cx="16368.5" cy="15500" r="1044.03" /> 
</g>
<g style="fill:#000000; fill-opacity:0.0; 
stroke:#000000; stroke-width:59.0551; stroke-opacity:1; 
stroke-linecap:round; stroke-linejoin:round;">
<path d="M59155 43324
L60139 43324
" />
<path d="M58544 42773
L59155 43324
" />
<path d="M59155 40962
L60139 40962
" />
<path d="M58544 41513
L59155 40962
" />
<path d="M59824 42419
L59824 41867
" />
<path d="M60100 42143
L59548 42143
" />
<path d="M61104 42497
L61104 41789
" />
</g>
<g style="fill:#000000; fill-opacity:0.0; 
stroke:#000000; stroke-width:47.2441; stroke-opacity:1; 
stroke-linecap:round; stroke-linejoin:round;">
<circle cx="52636.2" cy="28487" r="474.078" /> 
</g>
<g style="fill:#000000; fill-opacity:0.0; 
stroke:#000000; stroke-width:59.0551; stroke-opacity:1; 
stroke-linecap:round; stroke-linejoin:round;">
<path d="M53069 25061
L53108 25061
" />
<path d="M52163 25061
L53069 25061
" />
<path d="M52163 26006
L52163 25061
" />
<path d="M53108 26006
L52163 26006
" />
<path d="M53108 25061
L53108 26006
" />
</g>
<g style="fill:#000000; fill-opacity:0.0; 
stroke:#000000; stroke-width:47.2441; stroke-opacity:1; 
stroke-linecap:round; stroke-linejoin:round;">
<path d="M54744 23904
L54114 23904
" />
<path d="M54429 23589
L54429 24219
" />
<circle cx="52636.2" cy="27010.6" r="3196.85" /> 
<circle cx="45819.6" cy="28487" r="474.078" /> 
</g>
<g style="fill:#000000; fill-opacity:0.0; 
stroke:#000000; stroke-width:59.0551; stroke-opacity:1; 
stroke-linecap:round; stroke-linejoin:round;">
<path d="M46252 25061
L46291 25061
" />
<path d="M45347 25061
L46252 25061
" />
<path d="M45347 26006
L45347 25061
" />
<path d="M46291 26006
L45347 26006
" />
<path d="M46291 25061
L46291 26006
" />
</g>
<g style="fill:#000000; fill-opacity:0.0; 
stroke:#000000; stroke-width:47.2441; stroke-opacity:1; 
stroke-linecap:round; stroke-linejoin:round;">
<path d="M47927 23904
L47297 23904
" />
<path d="M47612 23589
L47612 24219
" />
<circle cx="45819.6" cy="27010.6" r="3196.85" /> 
<circle cx="38986.2" cy="18569.7" r="474.078" /> 
</g>
<g style="fill:#000000; fill-opacity:0.0; 
stroke:#000000; stroke-width:59.0551; stroke-opacity:1; 
stroke-linecap:round; stroke-linejoin:round;">
<path d="M38553 21994
L38513 21994
" />
<path d="M39458 21994
L38553 21994
" />
<path d="M39458 21050
L39458 21994
" />
<path d="M38513 21050
L39458 21050
" />
<path d="M38513 21994
L38513 21050
" />
</g>
<g style="fill:#000000; fill-opacity:0.0; 
stroke:#000000; stroke-width:47.2441; stroke-opacity:1; 
stroke-linecap:round; stroke-linejoin:round;">
<path d="M36877 23152
L37507 23152
" />
<path d="M37192 23467
L37192 22837
" />
<circle cx="38986.2" cy="20046.1" r="3196.85" /> 
<circle cx="38936.2" cy="28437" r="474.078" /> 
</g>
<g style="fill:#000000; fill-opacity:0.0; 
stroke:#000000; stroke-width:59.0551; stroke-opacity:1; 
stroke-linecap:round; stroke-linejoin:round;">
<path d="M39369 25011
L39408 25011
" />
<path d="M38463 25011
L39369 25011
" />
<path d="M38463 25956
L38463 25011
" />
<path d="M39408 25956
L38463 25956
" />
<path d="M39408 25011
L39408 25956
" />
</g>
<g style="fill:#000000; fill-opacity:0.0; 
stroke:#000000; stroke-width:47.2441; stroke-opacity:1; 
stroke-linecap:round; stroke-linejoin:round;">
<path d="M41044 23854
L40414 23854
" />
<path d="M40729 23539
L40729 24169
" />
<circle cx="38936.2" cy="26960.6" r="3196.85" /> 
<circle cx="59486.2" cy="18569.7" r="474.078" /> 
</g>
<g style="fill:#000000; fill-opacity:0.0; 
stroke:#000000; stroke-width:59.0551; stroke-opacity:1; 
stroke-linecap:round; stroke-linejoin:round;">
<path d="M59053 21994
L59013 21994
" />
<path d="M59958 21994
L59053 21994
" />
<path d="M59958 21050
L59958 21994
" />
<path d="M59013 21050
L59958 21050
" />
<path d="M59013 21994
L59013 21050
" />
</g>
<g style="fill:#000000; fill-opacity:0.0; 
stroke:#000000; stroke-width:47.2441; stroke-opacity:1; 
stroke-linecap:round; stroke-linejoin:round;">
<path d="M57377 23152
L58007 23152
" />
<path d="M57692 23467
L57692 22837
" />
<circle cx="59486.2" cy="20046.1" r="3196.85" /> 
<circle cx="52652.9" cy="18569.7" r="474.078" /> 
</g>
<g style="fill:#000000; fill-opacity:0.0; 
stroke:#000000; stroke-width:59.0551; stroke-opacity:1; 
stroke-linecap:round; stroke-linejoin:round;">
<path d="M52219 21994
L52180 21994
" />
<path d="M53125 21994
L52219 21994
" />
<path d="M53125 21050
L53125 21994
" />
<path d="M52180 21050
L53125 21050
" />
<path d="M52180 21994
L52180 21050
" />
</g>
<g style="fill:#000000; fill-opacity:0.0; 
stroke:#000000; stroke-width:47.2441; stroke-opacity:1; 
stroke-linecap:round; stroke-linejoin:round;">
<path d="M50544 23152
L51174 23152
" />
<path d="M50859 23467
L50859 22837
" />
<circle cx="52652.9" cy="20046.1" r="3196.85" /> 
<circle cx="59486.2" cy="28487" r="474.078" /> 
</g>
<g style="fill:#000000; fill-opacity:0.0; 
stroke:#000000; stroke-width:59.0551; stroke-opacity:1; 
stroke-linecap:round; stroke-linejoin:round;">
<path d="M59919 25061
L59958 25061
" />
<path d="M59013 25061
L59919 25061
" />
<path d="M59013 26006
L59013 25061
" />
<path d="M59958 26006
L59013 26006
" />
<path d="M59958 25061
L59958 26006
" />
</g>
<g style="fill:#000000; fill-opacity:0.0; 
stroke:#000000; stroke-width:47.2441; stroke-opacity:1; 
stroke-linecap:round; stroke-linejoin:round;">
<path d="M61594 23904
L60964 23904
" />
<path d="M61279 23589
L61279 24219
" />
<circle cx="59486.2" cy="27010.6" r="3196.85" /> 
<circle cx="45819.6" cy="18569.7" r="474.078" /> 
</g>
<g style="fill:#000000; fill-opacity:0.0; 
stroke:#000000; stroke-width:59.0551; stroke-opacity:1; 
stroke-linecap:round; stroke-linejoin:round;">
<path d="M45386 21994
L45347 21994
" />
<path d="M46291 21994
L45386 21994
" />
<path d="M46291 21050
L46291 21994
" />
<path d="M45347 21050
L46291 21050
" />
<path d="M45347 21994
L45347 21050
" />
</g>
<g style="fill:#000000; fill-opacity:0.0; 
stroke:#000000; stroke-width:47.2441; stroke-opacity:1; 
stroke-linecap:round; stroke-linejoin:round;">
<path d="M43711 23152
L44341 23152
" />
<path d="M44026 23467
L44026 22837
" />
<circle cx="45819.6" cy="20046.1" r="3196.85" /> 
</g>
<g style="fill:#000000; fill-opacity:0.0; 
stroke:#000000; stroke-width:59.0551; stroke-opacity:1; 
stroke-linecap:round; stroke-linejoin:round;">
<path d="M36817 35408
L36817 33308
" />
<path d="M36817 35408
L36817 37508
" />
<path d="M37267 37508
L36817 37508
" />
<path d="M36817 33308
L37267 33308
" />
<path d="M38717 37508
L37267 37508
" />
<path d="M37267 33308
L38717 33308
" />
<path d="M36817 34808
L37267 34808
" />
<path d="M36817 36008
L37267 36008
" />
<path d="M38717 33308
L38717 33958
" />
<path d="M38767 34808
L38767 35058
" />
<path d="M38767 35808
L38767 36058
" />
<path d="M38717 37508
L38717 36858
" />
<path d="M37267 37508
L37267 36808
" />
<path d="M37267 36008
L37267 35758
" />
<path d="M37267 36008
L37267 36058
" />
<path d="M37267 35058
L37267 34758
" />
<path d="M37267 33308
L37267 34058
" />
<path d="M48317 35408
L48317 33308
" />
<path d="M48317 35408
L48317 37508
" />
<path d="M48767 37508
L48317 37508
" />
<path d="M48317 33308
L48767 33308
" />
<path d="M50217 37508
L48767 37508
" />
<path d="M48767 33308
L50217 33308
" />
<path d="M48317 34808
L48767 34808
" />
<path d="M48317 36008
L48767 36008
" />
<path d="M50217 33308
L50217 33958
" />
<path d="M50267 34808
L50267 35058
" />
<path d="M50267 35808
L50267 36058
" />
<path d="M50217 37508
L50217 36858
" />
<path d="M48767 37508
L48767 36808
" />
<path d="M48767 36008
L48767 35758
" />
<path d="M48767 36008
L48767 36058
" />
<path d="M48767 35058
L48767 34758
" />
<path d="M48767 33308
L48767 34058
" />
<path d="M44484 35408
L44484 33308
" />
<path d="M44484 35408
L44484 37508
" />
<path d="M44934 37508
L44484 37508
" />
<path d="M44484 33308
L44934 33308
" />
<path d="M46384 37508
L44934 37508
" />
<path d="M44934 33308
L46384 33308
" />
<path d="M44484 34808
L44934 34808
" />
<path d="M44484 36008
L44934 36008
" />
<path d="M46384 33308
L46384 33958
" />
<path d="M46434 34808
L46434 35058
" />
<path d="M46434 35808
L46434 36058
" />
<path d="M46384 37508
L46384 36858
" />
<path d="M44934 37508
L44934 36808
" />
<path d="M44934 36008
L44934 35758
" />
<path d="M44934 36008
L44934 36058
" />
<path d="M44934 35058
L44934 34758
" />
<path d="M44934 33308
L44934 34058
" />
<path d="M40651 35408
L40651 33308
" />
<path d="M40651 35408
L40651 37508
" />
<path d="M41101 37508
L40651 37508
" />
<path d="M40651 33308
L41101 33308
" />
<path d="M42551 37508
L41101 37508
" />
<path d="M41101 33308
L42551 33308
" />
<path d="M40651 34808
L41101 34808
" />
<path d="M40651 36008
L41101 36008
" />
<path d="M42551 33308
L42551 33958
" />
<path d="M42601 34808
L42601 35058
" />
<path d="M42601 35808
L42601 36058
" />
<path d="M42551 37508
L42551 36858
" />
<path d="M41101 37508
L41101 36808
" />
<path d="M41101 36008
L41101 35758
" />
<path d="M41101 36008
L41101 36058
" />
<path d="M41101 35058
L41101 34758
" />
<path d="M41101 33308
L41101 34058
" />
</g>
<g style="fill:#000000; fill-opacity:0.0; 
stroke:#000000; stroke-width:47.2441; stroke-opacity:1; 
stroke-linecap:round; stroke-linejoin:round;">
<path d="M32222 33715
L30041 33715
" />
<path d="M30041 33715
L30041 37353
" />
<path d="M30041 37353
L32222 37353
" />
<path d="M32222 37353
L32222 33715
" />
<path d="M31132 33140
L31132 33715
" />
<path d="M31132 37927
L31132 37353
" />
<path d="M32222 34294
L30041 34294
" />
<path d="M32222 34341
L30041 34341
" />
<path d="M32222 34246
L30041 34246
" />
<path d="M27177 33715
L24996 33715
" />
<path d="M24996 33715
L24996 37353
" />
<path d="M24996 37353
L27177 37353
" />
<path d="M27177 37353
L27177 33715
" />
<path d="M26087 33140
L26087 33715
" />
<path d="M26087 37927
L26087 37353
" />
<path d="M27177 34294
L24996 34294
" />
<path d="M27177 34341
L24996 34341
" />
<path d="M27177 34246
L24996 34246
" />
<path d="M29700 33715
L27519 33715
" />
<path d="M27519 33715
L27519 37353
" />
<path d="M27519 37353
L29700 37353
" />
<path d="M29700 37353
L29700 33715
" />
<path d="M28609 33140
L28609 33715
" />
<path d="M28609 37927
L28609 37353
" />
<path d="M29700 34294
L27519 34294
" />
<path d="M29700 34341
L27519 34341
" />
<path d="M29700 34246
L27519 34246
" />
<path d="M24655 33715
L22474 33715
" />
<path d="M22474 33715
L22474 37353
" />
<path d="M22474 37353
L24655 37353
" />
<path d="M24655 37353
L24655 33715
" />
<path d="M23564 33140
L23564 33715
" />
<path d="M23564 37927
L23564 37353
" />
<path d="M24655 34294
L22474 34294
" />
<path d="M24655 34341
L22474 34341
" />
<path d="M24655 34246
L22474 34246
" />
<g >
</g>
<g style="fill:#000000; fill-opacity:0.0; 
stroke:#000000; stroke-width:118.11; stroke-opacity:1; 
stroke-linecap:round; stroke-linejoin:round;">
<path style="fill:#000000; fill-opacity:0.0; 
stroke:#000000; stroke-width:118.11; stroke-opacity:1; 
stroke-linecap:round; stroke-linejoin:round;fill:none"
d="M 28311,24336
28344,24341
28375,24349
28406,24360
28436,24374
28464,24391
28491,24410
28515,24432
28537,24456
28556,24483
28573,24511
28587,24541
28598,24572
28606,24604
28611,24636
28613,24669
28613,26047
28611,26080
28606,26112
28598,26144
28587,26175
28573,26204
28556,26233
28537,26259
28515,26283
28491,26305
28464,26325
28436,26342
28406,26356
28375,26367
28344,26375
28311,26380
28278,26381
27491,26381
27458,26380
27426,26375
27394,26367
27363,26356
27333,26342
27305,26325
27279,26305
27254,26283
27232,26259
27213,26233
27196,26204
27182,26175
27171,26144
27163,26112
27158,26080
27156,26047
27156,24669
27158,24636
27163,24604
27171,24572
27182,24541
27196,24511
27213,24483
27232,24456
27254,24432
27279,24410
27305,24391
27333,24374
27363,24360
27394,24349
27426,24341
27458,24336
27491,24334
28278,24334
28311,24336
Z" /> 
<path style="fill:#000000; fill-opacity:0.0; 
stroke:#000000; stroke-width:118.11; stroke-opacity:1; 
stroke-linecap:round; stroke-linejoin:round;fill:none"
d="M 26260,24336
26292,24341
26324,24349
26355,24360
26385,24374
26413,24391
26439,24410
26464,24432
26486,24456
26505,24483
26522,24511
26536,24541
26547,24572
26555,24604
26560,24636
26562,24669
26562,26047
26560,26080
26555,26112
26547,26144
26536,26175
26522,26204
26505,26233
26486,26259
26464,26283
26439,26305
26413,26325
26385,26342
26355,26356
26324,26367
26292,26375
26260,26380
26227,26381
25440,26381
25407,26380
25374,26375
25343,26367
25312,26356
25282,26342
25254,26325
25227,26305
25203,26283
25181,26259
25161,26233
25145,26204
25130,26175
25119,26144
25111,26112
25107,26080
25105,26047
25105,24669
25107,24636
25111,24604
25119,24572
25130,24541
25145,24511
25161,24483
25181,24456
25203,24432
25227,24410
25254,24391
25282,24374
25312,24360
25343,24349
25374,24341
25407,24336
25440,24334
26227,24334
26260,24336
Z" /> 
<path style="fill:#000000; fill-opacity:0.0; 
stroke:#000000; stroke-width:118.11; stroke-opacity:1; 
stroke-linecap:round; stroke-linejoin:round;fill:none"
d="M 24209,24336
24241,24341
24273,24349
24304,24360
24334,24374
24362,24391
24388,24410
24413,24432
24435,24456
24454,24483
24471,24511
24485,24541
24496,24572
24504,24604
24509,24636
24511,24669
24511,26047
24509,26080
24504,26112
24496,26144
24485,26175
24471,26204
24454,26233
24435,26259
24413,26283
24388,26305
24362,26325
24334,26342
24304,26356
24273,26367
24241,26375
24209,26380
24176,26381
23388,26381
23356,26380
23323,26375
23291,26367
23260,26356
23231,26342
23203,26325
23176,26305
23152,26283
23130,26259
23110,26233
23093,26204
23079,26175
23068,26144
23060,26112
23055,26080
23054,26047
23054,24669
23055,24636
23060,24604
23068,24572
23079,24541
23093,24511
23110,24483
23130,24456
23152,24432
23176,24410
23203,24391
23231,24374
23260,24360
23291,24349
23323,24341
23356,24336
23388,24334
24176,24334
24209,24336
Z" /> 
<path style="fill:#000000; fill-opacity:0.0; 
stroke:#000000; stroke-width:118.11; stroke-opacity:1; 
stroke-linecap:round; stroke-linejoin:round;fill:none"
d="M 24209,28588
24241,28593
24273,28601
24304,28612
24334,28626
24362,28643
24388,28662
24413,28684
24435,28708
24454,28735
24471,28763
24485,28793
24496,28824
24504,28855
24509,28888
24511,28921
24511,30299
24509,30332
24504,30364
24496,30396
24485,30427
24471,30456
24454,30485
24435,30511
24413,30535
24388,30557
24362,30577
24334,30594
24304,30608
24273,30619
24241,30627
24209,30632
24176,30633
23388,30633
23356,30632
23323,30627
23291,30619
23260,30608
23231,30594
23203,30577
23176,30557
23152,30535
23130,30511
23110,30485
23093,30456
23079,30427
23068,30396
23060,30364
23055,30332
23054,30299
23054,28921
23055,28888
23060,28855
23068,28824
23079,28793
23093,28763
23110,28735
23130,28708
23152,28684
23176,28662
23203,28643
23231,28626
23260,28612
23291,28601
23323,28593
23356,28588
23388,28586
24176,28586
24209,28588
Z" /> 
<path style="fill:#000000; fill-opacity:0.0; 
stroke:#000000; stroke-width:118.11; stroke-opacity:1; 
stroke-linecap:round; stroke-linejoin:round;fill:none"
d="M 26260,28588
26292,28593
26324,28601
26355,28612
26385,28626
26413,28643
26439,28662
26464,28684
26486,28708
26505,28735
26522,28763
26536,28793
26547,28824
26555,28855
26560,28888
26562,28921
26562,30299
26560,30332
26555,30364
26547,30396
26536,30427
26522,30456
26505,30485
26486,30511
26464,30535
26439,30557
26413,30577
26385,30594
26355,30608
26324,30619
26292,30627
26260,30632
26227,30633
25440,30633
25407,30632
25374,30627
25343,30619
25312,30608
25282,30594
25254,30577
25227,30557
25203,30535
25181,30511
25161,30485
25145,30456
25130,30427
25119,30396
25111,30364
25107,30332
25105,30299
25105,28921
25107,28888
25111,28855
25119,28824
25130,28793
25145,28763
25161,28735
25181,28708
25203,28684
25227,28662
25254,28643
25282,28626
25312,28612
25343,28601
25374,28593
25407,28588
25440,28586
26227,28586
26260,28588
Z" /> 
<path style="fill:#000000; fill-opacity:0.0; 
stroke:#000000; stroke-width:118.11; stroke-opacity:1; 
stroke-linecap:round; stroke-linejoin:round;fill:none"
d="M 28311,28588
28344,28593
28375,28601
28406,28612
28436,28626
28464,28643
28491,28662
28515,28684
28537,28708
28556,28735
28573,28763
28587,28793
28598,28824
28606,28855
28611,28888
28613,28921
28613,30299
28611,30332
28606,30364
28598,30396
28587,30427
28573,30456
28556,30485
28537,30511
28515,30535
28491,30557
28464,30577
28436,30594
28406,30608
28375,30619
28344,30627
28311,30632
28278,30633
27491,30633
27458,30632
27426,30627
27394,30619
27363,30608
27333,30594
27305,30577
27279,30557
27254,30535
27232,30511
27213,30485
27196,30456
27182,30427
27171,30396
27163,30364
27158,30332
27156,30299
27156,28921
27158,28888
27163,28855
27171,28824
27182,28793
27196,28763
27213,28735
27232,28708
27254,28684
27279,28662
27305,28643
27333,28626
27363,28612
27394,28601
27426,28593
27458,28588
27491,28586
28278,28586
28311,28588
Z" /> 
</g>
<g >
</g>
<g style="fill:#000000; fill-opacity:0.0; 
stroke:#000000; stroke-width:118.11; stroke-opacity:1; 
stroke-linecap:round; stroke-linejoin:round;">
<path style="fill:#000000; fill-opacity:0.0; 
stroke:#000000; stroke-width:118.11; stroke-opacity:1; 
stroke-linecap:round; stroke-linejoin:round;fill:none"
d="M 24240,44738
24272,44743
24304,44751
24335,44762
24365,44776
24393,44793
24419,44812
24444,44834
24466,44858
24485,44885
24502,44913
24516,44943
24527,44974
24535,45005
24540,45038
24542,45071
24542,46449
24540,46482
24535,46514
24527,46546
24516,46577
24502,46606
24485,46635
24466,46661
24444,46685
24419,46707
24393,46727
24365,46744
24335,46758
24304,46769
24272,46777
24240,46782
24207,46783
23420,46783
23387,46782
23354,46777
23322,46769
23292,46758
23262,46744
23234,46727
23207,46707
23183,46685
23161,46661
23141,46635
23124,46606
23110,46577
23099,46546
23091,46514
23087,46482
23085,46449
23085,45071
23087,45038
23091,45005
23099,44974
23110,44943
23124,44913
23141,44885
23161,44858
23183,44834
23207,44812
23234,44793
23262,44776
23292,44762
23322,44751
23354,44743
23387,44738
23420,44736
24207,44736
24240,44738
Z" /> 
<path style="fill:#000000; fill-opacity:0.0; 
stroke:#000000; stroke-width:118.11; stroke-opacity:1; 
stroke-linecap:round; stroke-linejoin:round;fill:none"
d="M 26291,44738
26323,44743
26355,44751
26386,44762
26416,44776
26444,44793
26470,44812
26495,44834
26517,44858
26536,44885
26553,44913
26567,44943
26578,44974
26586,45005
26591,45038
26593,45071
26593,46449
26591,46482
26586,46514
26578,46546
26567,46577
26553,46606
26536,46635
26517,46661
26495,46685
26470,46707
26444,46727
26416,46744
26386,46758
26355,46769
26323,46777
26291,46782
26258,46783
25471,46783
25438,46782
25405,46777
25374,46769
25343,46758
25313,46744
25285,46727
25258,46707
25234,46685
25212,46661
25193,46635
25176,46606
25162,46577
25151,46546
25143,46514
25138,46482
25136,46449
25136,45071
25138,45038
25143,45005
25151,44974
25162,44943
25176,44913
25193,44885
25212,44858
25234,44834
25258,44812
25285,44793
25313,44776
25343,44762
25374,44751
25405,44743
25438,44738
25471,44736
26258,44736
26291,44738
Z" /> 
<path style="fill:#000000; fill-opacity:0.0; 
stroke:#000000; stroke-width:118.11; stroke-opacity:1; 
stroke-linecap:round; stroke-linejoin:round;fill:none"
d="M 28342,44738
28375,44743
28406,44751
28437,44762
28467,44776
28495,44793
28522,44812
28546,44834
28568,44858
28588,44885
28604,44913
28619,44943
28630,44974
28638,45005
28642,45038
28644,45071
28644,46449
28642,46482
28638,46514
28630,46546
28619,46577
28604,46606
28588,46635
28568,46661
28546,46685
28522,46707
28495,46727
28467,46744
28437,46758
28406,46769
28375,46777
28342,46782
28309,46783
27522,46783
27489,46782
27457,46777
27425,46769
27394,46758
27364,46744
27336,46727
27310,46707
27285,46685
27263,46661
27244,46635
27227,46606
27213,46577
27202,46546
27194,46514
27189,46482
27187,46449
27187,45071
27189,45038
27194,45005
27202,44974
27213,44943
27227,44913
27244,44885
27263,44858
27285,44834
27310,44812
27336,44793
27364,44776
27394,44762
27425,44751
27457,44743
27489,44738
27522,44736
28309,44736
28342,44738
Z" /> 
<path style="fill:#000000; fill-opacity:0.0; 
stroke:#000000; stroke-width:118.11; stroke-opacity:1; 
stroke-linecap:round; stroke-linejoin:round;fill:none"
d="M 28342,40486
28375,40491
28406,40499
28437,40510
28467,40524
28495,40541
28522,40560
28546,40582
28568,40606
28588,40633
28604,40661
28619,40691
28630,40722
28638,40754
28642,40786
28644,40819
28644,42197
28642,42230
28638,42262
28630,42294
28619,42325
28604,42354
28588,42383
28568,42409
28546,42433
28522,42455
28495,42475
28467,42492
28437,42506
28406,42517
28375,42525
28342,42530
28309,42531
27522,42531
27489,42530
27457,42525
27425,42517
27394,42506
27364,42492
27336,42475
27310,42455
27285,42433
27263,42409
27244,42383
27227,42354
27213,42325
27202,42294
27194,42262
27189,42230
27187,42197
27187,40819
27189,40786
27194,40754
27202,40722
27213,40691
27227,40661
27244,40633
27263,40606
27285,40582
27310,40560
27336,40541
27364,40524
27394,40510
27425,40499
27457,40491
27489,40486
27522,40484
28309,40484
28342,40486
Z" /> 
<path style="fill:#000000; fill-opacity:0.0; 
stroke:#000000; stroke-width:118.11; stroke-opacity:1; 
stroke-linecap:round; stroke-linejoin:round;fill:none"
d="M 26291,40486
26323,40491
26355,40499
26386,40510
26416,40524
26444,40541
26470,40560
26495,40582
26517,40606
26536,40633
26553,40661
26567,40691
26578,40722
26586,40754
26591,40786
26593,40819
26593,42197
26591,42230
26586,42262
26578,42294
26567,42325
26553,42354
26536,42383
26517,42409
26495,42433
26470,42455
26444,42475
26416,42492
26386,42506
26355,42517
26323,42525
26291,42530
26258,42531
25471,42531
25438,42530
25405,42525
25374,42517
25343,42506
25313,42492
25285,42475
25258,42455
25234,42433
25212,42409
25193,42383
25176,42354
25162,42325
25151,42294
25143,42262
25138,42230
25136,42197
25136,40819
25138,40786
25143,40754
25151,40722
25162,40691
25176,40661
25193,40633
25212,40606
25234,40582
25258,40560
25285,40541
25313,40524
25343,40510
25374,40499
25405,40491
25438,40486
25471,40484
26258,40484
26291,40486
Z" /> 
<path style="fill:#000000; fill-opacity:0.0; 
stroke:#000000; stroke-width:118.11; stroke-opacity:1; 
stroke-linecap:round; stroke-linejoin:round;fill:none"
d="M 24240,40486
24272,40491
24304,40499
24335,40510
24365,40524
24393,40541
24419,40560
24444,40582
24466,40606
24485,40633
24502,40661
24516,40691
24527,40722
24535,40754
24540,40786
24542,40819
24542,42197
24540,42230
24535,42262
24527,42294
24516,42325
24502,42354
24485,42383
24466,42409
24444,42433
24419,42455
24393,42475
24365,42492
24335,42506
24304,42517
24272,42525
24240,42530
24207,42531
23420,42531
23387,42530
23354,42525
23322,42517
23292,42506
23262,42492
23234,42475
23207,42455
23183,42433
23161,42409
23141,42383
23124,42354
23110,42325
23099,42294
23091,42262
23087,42230
23085,42197
23085,40819
23087,40786
23091,40754
23099,40722
23110,40691
23124,40661
23141,40633
23161,40606
23183,40582
23207,40560
23234,40541
23262,40524
23292,40510
23322,40499
23354,40491
23387,40486
23420,40484
24207,40484
24240,40486
Z" /> 
</g>
<g >
</g>
<g style="fill:#000000; fill-opacity:0.0; 
stroke:#000000; stroke-width:118.11; stroke-opacity:1; 
stroke-linecap:round; stroke-linejoin:round;">
<path style="fill:#000000; fill-opacity:0.0; 
stroke:#000000; stroke-width:118.11; stroke-opacity:1; 
stroke-linecap:round; stroke-linejoin:round;fill:none"
d="M 24259,19941
24291,19946
24323,19954
24354,19965
24384,19979
24412,19996
24438,20015
24463,20037
24485,20062
24504,20088
24521,20116
24535,20146
24546,20177
24554,20209
24559,20241
24561,20274
24561,21652
24559,21685
24554,21717
24546,21749
24535,21780
24521,21810
24504,21838
24485,21864
24463,21888
24438,21911
24412,21930
24384,21947
24354,21961
24323,21972
24291,21980
24259,21985
24226,21987
23438,21987
23406,21985
23373,21980
23341,21972
23310,21961
23281,21947
23253,21930
23226,21911
23202,21888
23180,21864
23160,21838
23143,21810
23129,21780
23118,21749
23110,21717
23105,21685
23104,21652
23104,20274
23105,20241
23110,20209
23118,20177
23129,20146
23143,20116
23160,20088
23180,20062
23202,20037
23226,20015
23253,19996
23281,19979
23310,19965
23341,19954
23373,19946
23406,19941
23438,19939
24226,19939
24259,19941
Z" /> 
<path style="fill:#000000; fill-opacity:0.0; 
stroke:#000000; stroke-width:118.11; stroke-opacity:1; 
stroke-linecap:round; stroke-linejoin:round;fill:none"
d="M 26310,19941
26342,19946
26374,19954
26405,19965
26435,19979
26463,19996
26489,20015
26514,20037
26536,20062
26555,20088
26572,20116
26586,20146
26597,20177
26605,20209
26610,20241
26612,20274
26612,21652
26610,21685
26605,21717
26597,21749
26586,21780
26572,21810
26555,21838
26536,21864
26514,21888
26489,21911
26463,21930
26435,21947
26405,21961
26374,21972
26342,21980
26310,21985
26277,21987
25490,21987
25457,21985
25424,21980
25393,21972
25362,21961
25332,21947
25304,21930
25277,21911
25253,21888
25231,21864
25211,21838
25195,21810
25180,21780
25169,21749
25161,21717
25157,21685
25155,21652
25155,20274
25157,20241
25161,20209
25169,20177
25180,20146
25195,20116
25211,20088
25231,20062
25253,20037
25277,20015
25304,19996
25332,19979
25362,19965
25393,19954
25424,19946
25457,19941
25490,19939
26277,19939
26310,19941
Z" /> 
<path style="fill:#000000; fill-opacity:0.0; 
stroke:#000000; stroke-width:118.11; stroke-opacity:1; 
stroke-linecap:round; stroke-linejoin:round;fill:none"
d="M 28361,19941
28394,19946
28425,19954
28456,19965
28486,19979
28514,19996
28541,20015
28565,20037
28587,20062
28606,20088
28623,20116
28637,20146
28648,20177
28656,20209
28661,20241
28663,20274
28663,21652
28661,21685
28656,21717
28648,21749
28637,21780
28623,21810
28606,21838
28587,21864
28565,21888
28541,21911
28514,21930
28486,21947
28456,21961
28425,21972
28394,21980
28361,21985
28328,21987
27541,21987
27508,21985
27476,21980
27444,21972
27413,21961
27383,21947
27355,21930
27329,21911
27304,21888
27282,21864
27263,21838
27246,21810
27232,21780
27221,21749
27213,21717
27208,21685
27206,21652
27206,20274
27208,20241
27213,20209
27221,20177
27232,20146
27246,20116
27263,20088
27282,20062
27304,20037
27329,20015
27355,19996
27383,19979
27413,19965
27444,19954
27476,19946
27508,19941
27541,19939
28328,19939
28361,19941
Z" /> 
<path style="fill:#000000; fill-opacity:0.0; 
stroke:#000000; stroke-width:118.11; stroke-opacity:1; 
stroke-linecap:round; stroke-linejoin:round;fill:none"
d="M 28361,15689
28394,15694
28425,15702
28456,15713
28486,15727
28514,15744
28541,15763
28565,15785
28587,15810
28606,15836
28623,15864
28637,15894
28648,15925
28656,15957
28661,15989
28663,16022
28663,17400
28661,17433
28656,17465
28648,17497
28637,17528
28623,17558
28606,17586
28587,17612
28565,17637
28541,17659
28514,17678
28486,17695
28456,17709
28425,17720
28394,17728
28361,17733
28328,17735
27541,17735
27508,17733
27476,17728
27444,17720
27413,17709
27383,17695
27355,17678
27329,17659
27304,17637
27282,17612
27263,17586
27246,17558
27232,17528
27221,17497
27213,17465
27208,17433
27206,17400
27206,16022
27208,15989
27213,15957
27221,15925
27232,15894
27246,15864
27263,15836
27282,15810
27304,15785
27329,15763
27355,15744
27383,15727
27413,15713
27444,15702
27476,15694
27508,15689
27541,15687
28328,15687
28361,15689
Z" /> 
<path style="fill:#000000; fill-opacity:0.0; 
stroke:#000000; stroke-width:118.11; stroke-opacity:1; 
stroke-linecap:round; stroke-linejoin:round;fill:none"
d="M 26310,15689
26342,15694
26374,15702
26405,15713
26435,15727
26463,15744
26489,15763
26514,15785
26536,15810
26555,15836
26572,15864
26586,15894
26597,15925
26605,15957
26610,15989
26612,16022
26612,17400
26610,17433
26605,17465
26597,17497
26586,17528
26572,17558
26555,17586
26536,17612
26514,17637
26489,17659
26463,17678
26435,17695
26405,17709
26374,17720
26342,17728
26310,17733
26277,17735
25490,17735
25457,17733
25424,17728
25393,17720
25362,17709
25332,17695
25304,17678
25277,17659
25253,17637
25231,17612
25211,17586
25195,17558
25180,17528
25169,17497
25161,17465
25157,17433
25155,17400
25155,16022
25157,15989
25161,15957
25169,15925
25180,15894
25195,15864
25211,15836
25231,15810
25253,15785
25277,15763
25304,15744
25332,15727
25362,15713
25393,15702
25424,15694
25457,15689
25490,15687
26277,15687
26310,15689
Z" /> 
<path style="fill:#000000; fill-opacity:0.0; 
stroke:#000000; stroke-width:118.11; stroke-opacity:1; 
stroke-linecap:round; stroke-linejoin:round;fill:none"
d="M 24259,15689
24291,15694
24323,15702
24354,15713
24384,15727
24412,15744
24438,15763
24463,15785
24485,15810
24504,15836
24521,15864
24535,15894
24546,15925
24554,15957
24559,15989
24561,16022
24561,17400
24559,17433
24554,17465
24546,17497
24535,17528
24521,17558
24504,17586
24485,17612
24463,17637
24438,17659
24412,17678
24384,17695
24354,17709
24323,17720
24291,17728
24259,17733
24226,17735
23438,17735
23406,17733
23373,17728
23341,17720
23310,17709
23281,17695
23253,17678
23226,17659
23202,17637
23180,17612
23160,17586
23143,17558
23129,17528
23118,17497
23110,17465
23105,17433
23104,17400
23104,16022
23105,15989
23110,15957
23118,15925
23129,15894
23143,15864
23160,15836
23180,15810
23202,15785
23226,15763
23253,15744
23281,15727
23310,15713
23341,15702
23373,15694
23406,15689
23438,15687
24226,15687
24259,15689
Z" /> 
</g>
<g >
</g>
<g >
</g>
<g >
</g>
<g >
</g>
<g >
</g>
<g >
</g>
<g >
</g>
<g >
</g>
<g >
</g>
<g >
</g>
<g >
</g>
<g >
</g>
<g >
</g>
<g >
</g>
<g >
</g>
<g >
</g>
<g >
</g>
<g >
</g>
<g >
</g>
<g >
</g>
<g >
</g>
<g style="fill:#000000; fill-opacity:0.0; 
stroke:#000000; stroke-width:118.11; stroke-opacity:1; 
stroke-linecap:round; stroke-linejoin:round;">
<circle cx="60904.7" cy="49654.3" r="728.346" /> 
<path style="fill:#000000; fill-opacity:0.0; 
stroke:#000000; stroke-width:118.11; stroke-opacity:1; 
stroke-linecap:round; stroke-linejoin:round;fill:none"
d="M 58176,50382
58176,48925
59633,48925
59633,50382
58176,50382
Z" /> 
</g>
<g >
</g>
<g >
</g>
<g >
</g>
<g >
</g>
<g >
</g>
<g style="fill:#000000; fill-opacity:0.0; 
stroke:#000000; stroke-width:118.11; stroke-opacity:1; 
stroke-linecap:round; stroke-linejoin:round;">
<circle cx="60808.7" cy="43127.6" r="728.346" /> 
<circle cx="60808.7" cy="41159.6" r="728.346" /> 
<circle cx="58840.7" cy="42143.6" r="728.346" /> 
</g>
<g >
</g>
<g >
</g>
<g >
</g>
<g >
</g>
<g >
</g>
<g >
</g>
<g >
</g>
<g >
</g>
<g >
</g>
<g >
</g>
<g >
</g>
<g >
</g>
<g >
</g>
<g >
</g>
<g >
</g>
<g >
</g>
</g>
<g style="fill:#000000; fill-opacity:0.0; 
stroke:#000000; stroke-width:118.11; stroke-opacity:1; 
stroke-linecap:round; stroke-linejoin:round;">
</g>
<g style="fill:#000000; fill-opacity:0.0; 
stroke:#000000; stroke-width:59.0551; stroke-opacity:1; 
stroke-linecap:round; stroke-linejoin:round;">
<path d="M25702 30418
L25702 30699
L25683 30755
L25646 30793
L25590 30811
L25552 30811
" />
<path d="M26096 30811
L25871 30811
" />
<path d="M25983 30811
L25983 30418
L25946 30474
L25908 30511
L25871 30530
" />
<path d="M25733 40269
L25733 40550
L25714 40606
L25677 40644
L25621 40662
L25583 40662
" />
<path d="M25902 40306
L25921 40287
L25958 40269
L26052 40269
L26089 40287
L26108 40306
L26127 40344
L26127 40381
L26108 40437
L25883 40662
L26127 40662
" />
<path d="M25752 15472
L25752 15753
L25733 15809
L25696 15847
L25640 15865
L25602 15865
" />
<path d="M25902 15472
L26146 15472
L26015 15622
L26071 15622
L26108 15640
L26127 15659
L26146 15697
L26146 15790
L26127 15828
L26108 15847
L26071 15865
L25958 15865
L25921 15847
L25902 15828
" />
<path d="M35739 36064
L36133 35933
L35739 35801
" />
<path d="M36133 35445
L35945 35576
" />
<path d="M36133 35670
L35739 35670
L35739 35520
L35758 35483
L35777 35464
L35814 35445
L35870 35445
L35908 35464
L35926 35483
L35945 35520
L35945 35670
" />
<path d="M35739 35314
L35739 35070
L35889 35201
L35889 35145
L35908 35108
L35926 35089
L35964 35070
L36058 35070
L36095 35089
L36114 35108
L36133 35145
L36133 35258
L36114 35295
L36095 35314
" />
<path d="M19794 35867
L20188 35736
L19794 35605
" />
<path d="M20188 35248
L20000 35380
" />
<path d="M20188 35473
L19794 35473
L19794 35323
L19813 35286
L19832 35267
L19869 35248
L19925 35248
L19963 35267
L19982 35286
L20000 35323
L20000 35473
" />
<path d="M19832 35098
L19813 35080
L19794 35042
L19794 34948
L19813 34911
L19832 34892
L19869 34873
L19907 34873
L19963 34892
L20188 35117
L20188 34873
" />
<path d="M32983 21497
L33377 21366
L32983 21234
" />
<path d="M33377 20878
L33189 21010
" />
<path d="M33377 21103
L32983 21103
L32983 20953
L33002 20916
L33021 20897
L33058 20878
L33114 20878
L33152 20897
L33171 20916
L33189 20953
L33189 21103
" />
<path d="M33377 20503
L33377 20728
" />
<path d="M33377 20616
L32983 20616
L33039 20653
L33077 20691
L33096 20728
" />
<path d="M51895 50195
L51895 50514
L51914 50551
L51932 50570
L51970 50589
L52045 50589
L52082 50570
L52101 50551
L52120 50514
L52120 50195
" />
<path d="M52513 50589
L52289 50589
" />
<path d="M52401 50589
L52401 50195
L52364 50251
L52326 50289
L52289 50307
" />
<path d="M57217 35090
L57442 35090
" />
<path d="M57330 35484
L57330 35090
" />
<path d="M57780 35484
L57555 35484
" />
<path d="M57667 35484
L57667 35090
L57630 35146
L57592 35184
L57555 35202
" />
<path d="M47912 39687
L47725 39818
" />
<path d="M47912 39912
L47519 39912
L47519 39762
L47537 39724
L47556 39706
L47594 39687
L47650 39687
L47687 39706
L47706 39724
L47725 39762
L47725 39912
" />
<path d="M47912 39312
L47912 39537
" />
<path d="M47912 39424
L47519 39424
L47575 39462
L47612 39499
L47631 39537
" />
<path d="M47519 39068
L47519 39031
L47537 38993
L47556 38974
L47594 38956
L47669 38937
L47762 38937
L47837 38956
L47875 38974
L47894 38993
L47912 39031
L47912 39068
L47894 39106
L47875 39124
L47837 39143
L47762 39162
L47669 39162
L47594 39143
L47556 39124
L47537 39106
L47519 39068
" />
<path d="M46012 39499
L45825 39631
" />
<path d="M46012 39724
L45619 39724
L45619 39574
L45637 39537
L45656 39518
L45694 39499
L45750 39499
L45787 39518
L45806 39537
L45825 39574
L45825 39724
" />
<path d="M46012 39312
L46012 39237
L45994 39199
L45975 39181
L45919 39143
L45844 39124
L45694 39124
L45656 39143
L45637 39162
L45619 39199
L45619 39274
L45637 39312
L45656 39331
L45694 39349
L45787 39349
L45825 39331
L45844 39312
L45862 39274
L45862 39199
L45844 39162
L45825 39143
L45787 39124
" />
<path d="M42012 39499
L41825 39631
" />
<path d="M42012 39724
L41619 39724
L41619 39574
L41637 39537
L41656 39518
L41694 39499
L41750 39499
L41787 39518
L41806 39537
L41825 39574
L41825 39724
" />
<path d="M41787 39274
L41769 39312
L41750 39331
L41712 39349
L41694 39349
L41656 39331
L41637 39312
L41619 39274
L41619 39199
L41637 39162
L41656 39143
L41694 39124
L41712 39124
L41750 39143
L41769 39162
L41787 39199
L41787 39274
L41806 39312
L41825 39331
L41862 39349
L41937 39349
L41975 39331
L41994 39312
L42012 39274
L42012 39199
L41994 39162
L41975 39143
L41937 39124
L41862 39124
L41825 39143
L41806 39162
L41787 39199
" />
<path d="M38212 39499
L38025 39631
" />
<path d="M38212 39724
L37819 39724
L37819 39574
L37837 39537
L37856 39518
L37894 39499
L37950 39499
L37987 39518
L38006 39537
L38025 39574
L38025 39724
" />
<path d="M37819 39368
L37819 39106
L38212 39274
" />
<path d="M52995 42513
L52863 42326
" />
<path d="M52770 42513
L52770 42119
L52920 42119
L52957 42138
L52976 42157
L52995 42194
L52995 42251
L52976 42288
L52957 42307
L52920 42326
L52770 42326
" />
<path d="M53332 42119
L53257 42119
L53219 42138
L53201 42157
L53163 42213
L53144 42288
L53144 42438
L53163 42476
L53182 42494
L53219 42513
L53294 42513
L53332 42494
L53351 42476
L53369 42438
L53369 42344
L53351 42307
L53332 42288
L53294 42269
L53219 42269
L53182 42288
L53163 42307
L53144 42344
" />
<path d="M55341 39387
L55210 39200
" />
<path d="M55116 39387
L55116 38993
L55266 38993
L55303 39012
L55322 39031
L55341 39068
L55341 39125
L55322 39162
L55303 39181
L55266 39200
L55116 39200
" />
<path d="M55697 38993
L55510 38993
L55491 39181
L55510 39162
L55547 39143
L55641 39143
L55678 39162
L55697 39181
L55716 39218
L55716 39312
L55697 39350
L55678 39368
L55641 39387
L55547 39387
L55510 39368
L55491 39350
" />
<path d="M52207 44560
L52076 44373
" />
<path d="M51982 44560
L51982 44167
L52132 44167
L52170 44185
L52188 44204
L52207 44242
L52207 44298
L52188 44335
L52170 44354
L52132 44373
L51982 44373
" />
<path d="M52545 44298
L52545 44560
" />
<path d="M52451 44148
L52357 44429
L52601 44429
" />
<path d="M59687 46994
L59556 46807
" />
<path d="M59462 46994
L59462 46600
L59612 46600
L59650 46619
L59669 46638
L59687 46675
L59687 46732
L59669 46769
L59650 46788
L59612 46807
L59462 46807
" />
<path d="M59819 46600
L60062 46600
L59931 46750
L59987 46750
L60025 46769
L60044 46788
L60062 46825
L60062 46919
L60044 46957
L60025 46975
L59987 46994
L59875 46994
L59837 46975
L59819 46957
" />
<path d="M59672 37734
L59540 37546
" />
<path d="M59447 37734
L59447 37340
L59597 37340
L59634 37359
L59653 37377
L59672 37415
L59672 37471
L59653 37509
L59634 37527
L59597 37546
L59447 37546
" />
<path d="M59822 37377
L59840 37359
L59878 37340
L59972 37340
L60009 37359
L60028 37377
L60047 37415
L60047 37452
L60028 37509
L59803 37734
L60047 37734
" />
<path d="M57802 33579
L57670 33391
" />
<path d="M57577 33579
L57577 33185
L57727 33185
L57764 33204
L57783 33223
L57802 33260
L57802 33316
L57783 33354
L57764 33373
L57727 33391
L57577 33391
" />
<path d="M58177 33579
L57952 33579
" />
<path d="M58064 33579
L58064 33185
L58027 33241
L57989 33279
L57952 33298
" />
<path d="M46940 48950
L46940 48556
L47034 48556
L47090 48575
L47128 48613
L47147 48650
L47165 48725
L47165 48781
L47147 48856
L47128 48894
L47090 48931
L47034 48950
L46940 48950
" />
<path d="M47297 48556
L47559 48556
L47297 48950
L47559 48950
" />
<path d="M47690 48594
L47709 48575
L47746 48556
L47840 48556
L47878 48575
L47896 48594
L47915 48631
L47915 48669
L47896 48725
L47671 48950
L47915 48950
" />
<path d="M59933 32356
L60327 32356
L60327 32449
L60308 32506
L60271 32543
L60233 32562
L60158 32581
L60102 32581
L60027 32562
L59989 32543
L59952 32506
L59933 32449
L59933 32356
" />
<path d="M60327 32712
L60327 32974
L59933 32712
L59933 32974
" />
<path d="M59933 33331
L59933 33106
" />
<path d="M59933 33218
L60327 33218
L60271 33181
L60233 33143
L60214 33106
" />
<path d="M53468 38948
L53487 38967
L53506 39023
L53506 39060
L53487 39117
L53450 39154
L53412 39173
L53337 39192
L53281 39192
L53206 39173
L53168 39154
L53131 39117
L53112 39060
L53112 39023
L53131 38967
L53150 38948
" />
<path d="M53112 38817
L53112 38573
L53262 38704
L53262 38648
L53281 38610
L53300 38592
L53337 38573
L53431 38573
L53468 38592
L53487 38610
L53506 38648
L53506 38760
L53487 38798
L53468 38817
" />
<path d="M55201 45011
L55219 45030
L55238 45086
L55238 45123
L55219 45180
L55182 45217
L55144 45236
L55070 45255
L55013 45255
L54938 45236
L54901 45217
L54863 45180
L54845 45123
L54845 45086
L54863 45030
L54882 45011
" />
<path d="M54882 44861
L54863 44842
L54845 44805
L54845 44711
L54863 44673
L54882 44655
L54920 44636
L54957 44636
L55013 44655
L55238 44880
L55238 44636
" />
<path d="M53656 35479
L53637 35498
L53581 35517
L53543 35517
L53487 35498
L53450 35461
L53431 35423
L53412 35348
L53412 35292
L53431 35217
L53450 35180
L53487 35142
L53543 35123
L53581 35123
L53637 35142
L53656 35161
" />
<path d="M54031 35517
L53806 35517
" />
<path d="M53918 35517
L53918 35123
L53881 35180
L53843 35217
L53806 35236
" />
<path d="M61815 48842
L61421 48842
L61421 48692
L61440 48655
L61458 48636
L61496 48617
L61552 48617
L61590 48636
L61608 48655
L61627 48692
L61627 48842
" />
<path d="M61815 48242
L61815 48467
" />
<path d="M61815 48355
L61421 48355
L61477 48392
L61515 48430
L61533 48467
" />
<path d="M71186 49093
L71186 48699
" />
<path d="M71186 48886
L71411 48886
" />
<path d="M71411 49093
L71411 48699
" />
<path d="M71767 48830
L71767 49093
" />
<path d="M71674 48680
L71580 48961
L71824 48961
" />
<path d="M71186 13659
L71186 13266
" />
<path d="M71186 13453
L71411 13453
" />
<path d="M71411 13659
L71411 13266
" />
<path d="M71561 13266
L71805 13266
L71674 13416
L71730 13416
L71767 13435
L71786 13453
L71805 13491
L71805 13585
L71786 13622
L71767 13641
L71730 13659
L71617 13659
L71580 13641
L71561 13622
" />
<path d="M16068 49093
L16068 48699
" />
<path d="M16068 48886
L16293 48886
" />
<path d="M16293 49093
L16293 48699
" />
<path d="M16462 48736
L16480 48718
L16518 48699
L16612 48699
L16649 48718
L16668 48736
L16687 48774
L16687 48811
L16668 48868
L16443 49093
L16687 49093
" />
<path d="M16068 13591
L16068 13197
" />
<path d="M16068 13385
L16293 13385
" />
<path d="M16293 13591
L16293 13197
" />
<path d="M16687 13591
L16462 13591
" />
<path d="M16574 13591
L16574 13197
L16537 13254
L16499 13291
L16462 13310
" />
<path d="M58502 40877
L58315 41009
" />
<path d="M58502 41102
L58109 41102
L58109 40952
L58127 40915
L58146 40896
L58184 40877
L58240 40877
L58277 40896
L58296 40915
L58315 40952
L58315 41102
" />
<path d="M58109 40765
L58502 40634
L58109 40502
" />
<path d="M58502 40165
L58502 40390
" />
<path d="M58502 40277
L58109 40277
L58165 40315
L58202 40352
L58221 40390
" />
<path d="M52383 30774
L52364 30793
L52308 30812
L52270 30812
L52214 30793
L52176 30756
L52158 30718
L52139 30643
L52139 30587
L52158 30512
L52176 30474
L52214 30437
L52270 30418
L52308 30418
L52364 30437
L52383 30456
" />
<path d="M52758 30812
L52533 30812
" />
<path d="M52645 30812
L52645 30418
L52608 30474
L52570 30512
L52533 30531
" />
<path d="M53133 30812
L52908 30812
" />
<path d="M53020 30812
L53020 30418
L52983 30474
L52945 30512
L52908 30531
" />
<path d="M45753 30774
L45735 30793
L45678 30812
L45641 30812
L45585 30793
L45547 30756
L45528 30718
L45510 30643
L45510 30587
L45528 30512
L45547 30474
L45585 30437
L45641 30418
L45678 30418
L45735 30437
L45753 30456
" />
<path d="M46110 30418
L45922 30418
L45903 30606
L45922 30587
L45960 30568
L46053 30568
L46091 30587
L46110 30606
L46128 30643
L46128 30737
L46110 30774
L46091 30793
L46053 30812
L45960 30812
L45922 30793
L45903 30774
" />
<path d="M38733 16563
L38714 16581
L38658 16600
L38620 16600
L38564 16581
L38526 16544
L38508 16506
L38489 16431
L38489 16375
L38508 16300
L38526 16263
L38564 16225
L38620 16206
L38658 16206
L38714 16225
L38733 16244
" />
<path d="M39108 16600
L38883 16600
" />
<path d="M38995 16600
L38995 16206
L38958 16263
L38920 16300
L38883 16319
" />
<path d="M39351 16206
L39389 16206
L39426 16225
L39445 16244
L39464 16281
L39483 16356
L39483 16450
L39464 16525
L39445 16563
L39426 16581
L39389 16600
L39351 16600
L39314 16581
L39295 16563
L39276 16525
L39258 16450
L39258 16356
L39276 16281
L39295 16244
L39314 16225
L39351 16206
" />
<path d="M38870 30724
L38851 30743
L38795 30762
L38758 30762
L38701 30743
L38664 30706
L38645 30668
L38626 30593
L38626 30537
L38645 30462
L38664 30424
L38701 30387
L38758 30368
L38795 30368
L38851 30387
L38870 30406
" />
<path d="M39208 30368
L39133 30368
L39095 30387
L39076 30406
L39039 30462
L39020 30537
L39020 30687
L39039 30724
L39058 30743
L39095 30762
L39170 30762
L39208 30743
L39226 30724
L39245 30687
L39245 30593
L39226 30556
L39208 30537
L39170 30518
L39095 30518
L39058 30537
L39039 30556
L39020 30593
" />
<path d="M59420 16563
L59401 16581
L59345 16600
L59308 16600
L59251 16581
L59214 16544
L59195 16506
L59176 16431
L59176 16375
L59195 16300
L59214 16263
L59251 16225
L59308 16206
L59345 16206
L59401 16225
L59420 16244
" />
<path d="M59551 16206
L59814 16206
L59645 16600
" />
<path d="M52587 16563
L52568 16581
L52512 16600
L52474 16600
L52418 16581
L52381 16544
L52362 16506
L52343 16431
L52343 16375
L52362 16300
L52381 16263
L52418 16225
L52474 16206
L52512 16206
L52568 16225
L52587 16244
" />
<path d="M52812 16375
L52774 16356
L52755 16338
L52737 16300
L52737 16281
L52755 16244
L52774 16225
L52812 16206
L52887 16206
L52924 16225
L52943 16244
L52962 16281
L52962 16300
L52943 16338
L52924 16356
L52887 16375
L52812 16375
L52774 16394
L52755 16413
L52737 16450
L52737 16525
L52755 16563
L52774 16581
L52812 16600
L52887 16600
L52924 16581
L52943 16563
L52962 16525
L52962 16450
L52943 16413
L52924 16394
L52887 16375
" />
<path d="M59420 30774
L59401 30793
L59345 30812
L59308 30812
L59251 30793
L59214 30756
L59195 30718
L59176 30643
L59176 30587
L59195 30512
L59214 30474
L59251 30437
L59308 30418
L59345 30418
L59401 30437
L59420 30456
" />
<path d="M59758 30549
L59758 30812
" />
<path d="M59664 30399
L59570 30681
L59814 30681
" />
<path d="M45753 16563
L45735 16581
L45678 16600
L45641 16600
L45585 16581
L45547 16544
L45528 16506
L45510 16431
L45510 16375
L45528 16300
L45547 16263
L45585 16225
L45641 16206
L45678 16206
L45735 16225
L45753 16244
" />
<path d="M45941 16600
L46016 16600
L46053 16581
L46072 16563
L46110 16506
L46128 16431
L46128 16281
L46110 16244
L46091 16225
L46053 16206
L45978 16206
L45941 16225
L45922 16244
L45903 16281
L45903 16375
L45922 16413
L45941 16431
L45978 16450
L46053 16450
L46091 16431
L46110 16413
L46128 16375
" />
<path d="M37180 33123
L37142 33105
L37105 33067
L37048 33011
L37011 32992
L36973 32992
" />
<path d="M36992 33086
L36955 33067
L36917 33030
L36899 32955
L36899 32823
L36917 32748
L36955 32711
L36992 32692
L37067 32692
L37105 32711
L37142 32748
L37161 32823
L37161 32955
L37142 33030
L37105 33067
L37067 33086
L36992 33086
" />
<path d="M37536 33086
L37311 33086
" />
<path d="M37423 33086
L37423 32692
L37386 32748
L37348 32786
L37311 32805
" />
<path d="M38820 36305
L38802 36342
L38802 36398
L38820 36455
L38858 36492
L38895 36511
L38970 36530
L39027 36530
L39102 36511
L39139 36492
L39177 36455
L39195 36398
L39195 36361
L39177 36305
L39158 36286
L39027 36286
L39027 36361
" />
<path d="M39177 34520
L39195 34464
L39195 34370
L39177 34333
L39158 34314
L39120 34295
L39083 34295
L39045 34314
L39027 34333
L39008 34370
L38989 34445
L38970 34483
L38952 34502
L38914 34520
L38877 34520
L38839 34502
L38820 34483
L38802 34445
L38802 34352
L38820 34295
" />
<path d="M40195 35511
L39802 35511
L39802 35417
L39820 35361
L39858 35323
L39895 35305
L39970 35286
L40027 35286
L40102 35305
L40139 35323
L40177 35361
L40195 35417
L40195 35511
" />
<path d="M48680 33123
L48642 33105
L48605 33067
L48548 33011
L48511 32992
L48473 32992
" />
<path d="M48492 33086
L48455 33067
L48417 33030
L48399 32955
L48399 32823
L48417 32748
L48455 32711
L48492 32692
L48567 32692
L48605 32711
L48642 32748
L48661 32823
L48661 32955
L48642 33030
L48605 33067
L48567 33086
L48492 33086
" />
<path d="M48998 32823
L48998 33086
" />
<path d="M48905 32673
L48811 32955
L49055 32955
" />
<path d="M50320 36305
L50302 36342
L50302 36398
L50320 36455
L50358 36492
L50395 36511
L50470 36530
L50527 36530
L50602 36511
L50639 36492
L50677 36455
L50695 36398
L50695 36361
L50677 36305
L50658 36286
L50527 36286
L50527 36361
" />
<path d="M50677 34520
L50695 34464
L50695 34370
L50677 34333
L50658 34314
L50620 34295
L50583 34295
L50545 34314
L50527 34333
L50508 34370
L50489 34445
L50470 34483
L50452 34502
L50414 34520
L50377 34520
L50339 34502
L50320 34483
L50302 34445
L50302 34352
L50320 34295
" />
<path d="M51695 35511
L51302 35511
L51302 35417
L51320 35361
L51358 35323
L51395 35305
L51470 35286
L51527 35286
L51602 35305
L51639 35323
L51677 35361
L51695 35417
L51695 35511
" />
<path d="M44846 33123
L44809 33105
L44771 33067
L44715 33011
L44678 32992
L44640 32992
" />
<path d="M44659 33086
L44621 33067
L44584 33030
L44565 32955
L44565 32823
L44584 32748
L44621 32711
L44659 32692
L44734 32692
L44771 32711
L44809 32748
L44828 32823
L44828 32955
L44809 33030
L44771 33067
L44734 33086
L44659 33086
" />
<path d="M44959 32692
L45203 32692
L45071 32842
L45128 32842
L45165 32861
L45184 32880
L45203 32917
L45203 33011
L45184 33048
L45165 33067
L45128 33086
L45015 33086
L44978 33067
L44959 33048
" />
<path d="M46487 36305
L46468 36342
L46468 36398
L46487 36455
L46525 36492
L46562 36511
L46637 36530
L46693 36530
L46768 36511
L46806 36492
L46843 36455
L46862 36398
L46862 36361
L46843 36305
L46824 36286
L46693 36286
L46693 36361
" />
<path d="M46843 34520
L46862 34464
L46862 34370
L46843 34333
L46824 34314
L46787 34295
L46749 34295
L46712 34314
L46693 34333
L46675 34370
L46656 34445
L46637 34483
L46618 34502
L46581 34520
L46543 34520
L46506 34502
L46487 34483
L46468 34445
L46468 34352
L46487 34295
" />
<path d="M47862 35511
L47468 35511
L47468 35417
L47487 35361
L47525 35323
L47562 35305
L47637 35286
L47693 35286
L47768 35305
L47806 35323
L47843 35361
L47862 35417
L47862 35511
" />
<path d="M41013 33123
L40976 33105
L40938 33067
L40882 33011
L40844 32992
L40807 32992
" />
<path d="M40826 33086
L40788 33067
L40751 33030
L40732 32955
L40732 32823
L40751 32748
L40788 32711
L40826 32692
L40901 32692
L40938 32711
L40976 32748
L40994 32823
L40994 32955
L40976 33030
L40938 33067
L40901 33086
L40826 33086
" />
<path d="M41144 32730
L41163 32711
L41201 32692
L41294 32692
L41332 32711
L41351 32730
L41369 32767
L41369 32805
L41351 32861
L41126 33086
L41369 33086
" />
<path d="M42654 36305
L42635 36342
L42635 36398
L42654 36455
L42691 36492
L42729 36511
L42804 36530
L42860 36530
L42935 36511
L42972 36492
L43010 36455
L43029 36398
L43029 36361
L43010 36305
L42991 36286
L42860 36286
L42860 36361
" />
<path d="M43010 34520
L43029 34464
L43029 34370
L43010 34333
L42991 34314
L42954 34295
L42916 34295
L42879 34314
L42860 34333
L42841 34370
L42822 34445
L42804 34483
L42785 34502
L42747 34520
L42710 34520
L42672 34502
L42654 34483
L42635 34445
L42635 34352
L42654 34295
" />
<path d="M44029 35511
L43635 35511
L43635 35417
L43654 35361
L43691 35323
L43729 35305
L43804 35286
L43860 35286
L43935 35305
L43972 35323
L44010 35361
L44029 35417
L44029 35511
" />
<path d="M30141 33612
L30141 33218
L30235 33218
L30291 33237
L30329 33274
L30347 33312
L30366 33387
L30366 33443
L30347 33518
L30329 33556
L30291 33593
L30235 33612
L30141 33612
" />
<path d="M30704 33349
L30704 33612
" />
<path d="M30610 33199
L30516 33481
L30760 33481
" />
<path d="M32215 32637
L31822 32637
" />
<path d="M32215 32412
L31990 32581
" />
<path d="M31822 32412
L32047 32637
" />
<path d="M25096 33612
L25096 33218
L25190 33218
L25246 33237
L25284 33274
L25303 33312
L25321 33387
L25321 33443
L25303 33518
L25284 33556
L25246 33593
L25190 33612
L25096 33612
" />
<path d="M25471 33256
L25490 33237
L25528 33218
L25621 33218
L25659 33237
L25677 33256
L25696 33293
L25696 33331
L25677 33387
L25453 33612
L25696 33612
" />
<path d="M27171 32637
L26777 32637
" />
<path d="M27171 32412
L26946 32581
" />
<path d="M26777 32412
L27002 32637
" />
<path d="M27619 33612
L27619 33218
L27712 33218
L27769 33237
L27806 33274
L27825 33312
L27844 33387
L27844 33443
L27825 33518
L27806 33556
L27769 33593
L27712 33612
L27619 33612
" />
<path d="M27975 33218
L28219 33218
L28087 33368
L28144 33368
L28181 33387
L28200 33406
L28219 33443
L28219 33537
L28200 33574
L28181 33593
L28144 33612
L28031 33612
L27994 33593
L27975 33574
" />
<path d="M29693 32637
L29299 32637
" />
<path d="M29693 32412
L29468 32581
" />
<path d="M29299 32412
L29524 32637
" />
<path d="M22574 33612
L22574 33218
L22668 33218
L22724 33237
L22761 33274
L22780 33312
L22799 33387
L22799 33443
L22780 33518
L22761 33556
L22724 33593
L22668 33612
L22574 33612
" />
<path d="M23174 33612
L22949 33612
" />
<path d="M23061 33612
L23061 33218
L23024 33274
L22986 33312
L22949 33331
" />
<path d="M24648 32637
L24254 32637
" />
<path d="M24648 32412
L24423 32581
" />
<path d="M24254 32412
L24479 32637
" />
<g >
</g>
</g> 
</svg>
