%FSLAX45Y45*%
G04 Gerber Fmt 4.5, Leading zero omitted, Abs format (unit mm)*
G04 Created by KiCad (PCBNEW 5.1.4-e60b266~84~ubuntu18.04.1) date 2019-08-21 17:59:14*
%MOMM*%
%LPD*%
G04 APERTURE LIST*
%ADD10C,0.100000*%
%ADD11C,0.200000*%
%ADD12C,0.300000*%
G04 APERTURE END LIST*
D10*
X3657600Y-13454400D02*
X3657600Y-3454400D01*
X18657600Y-13454400D02*
X3657600Y-13454400D01*
X18657600Y-3454400D02*
X18657600Y-13454400D01*
X3657600Y-3454400D02*
X18657600Y-3454400D01*
D11*
X11625900Y-12158700D02*
X11700900Y-12233700D01*
X11700900Y-12158700D02*
X11625900Y-12233700D01*
X12387900Y-12158700D02*
X12462900Y-12233700D01*
X12462900Y-12158700D02*
X12387900Y-12233700D01*
X15422900Y-7921400D02*
X15497900Y-7996400D01*
X15497900Y-7921400D02*
X15422900Y-7996400D01*
X15422900Y-8683400D02*
X15497900Y-8758400D01*
X15497900Y-8683400D02*
X15422900Y-8758400D01*
X14273200Y-7412800D02*
G75*
G03X14273200Y-7412800I-40000J0D01*
G01*
X14273200Y-8263700D02*
G75*
G03X14273200Y-8263700I-40000J0D01*
G01*
X13605400Y-10196200D02*
G75*
G03X13605400Y-10196200I-40000J0D01*
G01*
X14621400Y-10196200D02*
G75*
G03X14621400Y-10196200I-40000J0D01*
G01*
X13009400Y-10516200D02*
G75*
G03X13009400Y-10516200I-40000J0D01*
G01*
X14025400Y-10516200D02*
G75*
G03X14025400Y-10516200I-40000J0D01*
G01*
X8047600Y-5704400D02*
G75*
G03X8047600Y-5704400I-40000J0D01*
G01*
X8247600Y-4954400D02*
G75*
G03X8247600Y-4954400I-40000J0D01*
G01*
X14705400Y-9776200D02*
G75*
G03X14705400Y-9776200I-40000J0D01*
G01*
X15721400Y-9776200D02*
G75*
G03X15721400Y-9776200I-40000J0D01*
G01*
X11919000Y-9508300D02*
G75*
G03X11919000Y-9508300I-40000J0D01*
G01*
X11919000Y-10524300D02*
G75*
G03X11919000Y-10524300I-40000J0D01*
G01*
X13775400Y-9296200D02*
G75*
G03X13775400Y-9296200I-40000J0D01*
G01*
X14025400Y-9296200D02*
G75*
G03X14025400Y-9296200I-40000J0D01*
G01*
X5347600Y-9354400D02*
G75*
G03X5347600Y-9354400I-40000J0D01*
G01*
X5547600Y-8604400D02*
G75*
G03X5547600Y-8604400I-40000J0D01*
G01*
X13065400Y-11836200D02*
G75*
G03X13065400Y-11836200I-40000J0D01*
G01*
X13065400Y-12090200D02*
G75*
G03X13065400Y-12090200I-40000J0D01*
G01*
X13065400Y-12344200D02*
G75*
G03X13065400Y-12344200I-40000J0D01*
G01*
X13065400Y-12598200D02*
G75*
G03X13065400Y-12598200I-40000J0D01*
G01*
X13827400Y-11836200D02*
G75*
G03X13827400Y-11836200I-40000J0D01*
G01*
X13827400Y-12090200D02*
G75*
G03X13827400Y-12090200I-40000J0D01*
G01*
X13827400Y-12344200D02*
G75*
G03X13827400Y-12344200I-40000J0D01*
G01*
X13827400Y-12598200D02*
G75*
G03X13827400Y-12598200I-40000J0D01*
G01*
X14709400Y-11654400D02*
G75*
G03X14709400Y-11654400I-40000J0D01*
G01*
X15725400Y-11654400D02*
G75*
G03X15725400Y-11654400I-40000J0D01*
G01*
X13325400Y-11416200D02*
G75*
G03X13325400Y-11416200I-40000J0D01*
G01*
X13825400Y-11416200D02*
G75*
G03X13825400Y-11416200I-40000J0D01*
G01*
X10903000Y-9508300D02*
G75*
G03X10903000Y-9508300I-40000J0D01*
G01*
X10903000Y-10524300D02*
G75*
G03X10903000Y-10524300I-40000J0D01*
G01*
X12809400Y-11036200D02*
G75*
G03X12809400Y-11036200I-40000J0D01*
G01*
X13825400Y-11036200D02*
G75*
G03X13825400Y-11036200I-40000J0D01*
G01*
X9937800Y-9508300D02*
G75*
G03X9937800Y-9508300I-40000J0D01*
G01*
X9937800Y-10524300D02*
G75*
G03X9937800Y-10524300I-40000J0D01*
G01*
X8747600Y-9404400D02*
G75*
G03X8747600Y-9404400I-40000J0D01*
G01*
X8947600Y-8654400D02*
G75*
G03X8947600Y-8654400I-40000J0D01*
G01*
X14230400Y-8720900D02*
G75*
G03X14230400Y-8720900I-40000J0D01*
G01*
X15246400Y-8720900D02*
G75*
G03X15246400Y-8720900I-40000J0D01*
G01*
X12401600Y-9508300D02*
G75*
G03X12401600Y-9508300I-40000J0D01*
G01*
X12401600Y-10524300D02*
G75*
G03X12401600Y-10524300I-40000J0D01*
G01*
X13785400Y-9876200D02*
G75*
G03X13785400Y-9876200I-40000J0D01*
G01*
X14285400Y-9876200D02*
G75*
G03X14285400Y-9876200I-40000J0D01*
G01*
X14355500Y-9229700D02*
X14355500Y-9329700D01*
X14305500Y-9279700D02*
X14405500Y-9279700D01*
X14609500Y-9229700D02*
X14609500Y-9329700D01*
X14559500Y-9279700D02*
X14659500Y-9279700D01*
X14863500Y-9229700D02*
X14863500Y-9329700D01*
X14813500Y-9279700D02*
X14913500Y-9279700D01*
X10665549Y-8775083D02*
X10665549Y-8704318D01*
X10594784Y-8704318D01*
X10594784Y-8775083D01*
X10665549Y-8775083D01*
X10665549Y-9283083D02*
X10665549Y-9212318D01*
X10594784Y-9212318D01*
X10594784Y-9283083D01*
X10665549Y-9283083D01*
X10856049Y-9029083D02*
X10856049Y-8958318D01*
X10785284Y-8958318D01*
X10785284Y-9029083D01*
X10856049Y-9029083D01*
X12612882Y-8775083D02*
X12612882Y-8704318D01*
X12542117Y-8704318D01*
X12542117Y-8775083D01*
X12612882Y-8775083D01*
X12612882Y-9283083D02*
X12612882Y-9212318D01*
X12542117Y-9212318D01*
X12542117Y-9283083D01*
X12612882Y-9283083D01*
X12803382Y-9029083D02*
X12803382Y-8958318D01*
X12732617Y-8958318D01*
X12732617Y-9029083D01*
X12803382Y-9029083D01*
X11639216Y-8775083D02*
X11639216Y-8704318D01*
X11568451Y-8704318D01*
X11568451Y-8775083D01*
X11639216Y-8775083D01*
X11639216Y-9283083D02*
X11639216Y-9212318D01*
X11568451Y-9212318D01*
X11568451Y-9283083D01*
X11639216Y-9283083D01*
X11829716Y-9029083D02*
X11829716Y-8958318D01*
X11758951Y-8958318D01*
X11758951Y-9029083D01*
X11829716Y-9029083D01*
X9691883Y-8775083D02*
X9691883Y-8704318D01*
X9621118Y-8704318D01*
X9621118Y-8775083D01*
X9691883Y-8775083D01*
X9691883Y-9283083D02*
X9691883Y-9212318D01*
X9621118Y-9212318D01*
X9621118Y-9283083D01*
X9691883Y-9283083D01*
X9882383Y-9029083D02*
X9882383Y-8958318D01*
X9811618Y-8958318D01*
X9811618Y-9029083D01*
X9882383Y-9029083D01*
X14945528Y-10764408D02*
X15005472Y-10704464D01*
X14945528Y-10644520D01*
X14885584Y-10704464D01*
X14945528Y-10764408D01*
X15445400Y-10514472D02*
X15505344Y-10454528D01*
X15445400Y-10394584D01*
X15385456Y-10454528D01*
X15445400Y-10514472D01*
X15445400Y-11014344D02*
X15505344Y-10954400D01*
X15445400Y-10894456D01*
X15385456Y-10954400D01*
X15445400Y-11014344D01*
X14947600Y-10764344D02*
X15007544Y-10704400D01*
X14947600Y-10644456D01*
X14887656Y-10704400D01*
X14947600Y-10764344D01*
X15447600Y-10264344D02*
X15507544Y-10204400D01*
X15447600Y-10144456D01*
X15387656Y-10204400D01*
X15447600Y-10264344D01*
X15447600Y-11264344D02*
X15507544Y-11204400D01*
X15447600Y-11144456D01*
X15387656Y-11204400D01*
X15447600Y-11264344D01*
X13315422Y-4658400D02*
X13435422Y-4778400D01*
X13435422Y-4658400D02*
X13315422Y-4778400D01*
X13435422Y-4718400D02*
G75*
G03X13435422Y-4718400I-60000J0D01*
G01*
X13315422Y-5408400D02*
X13435422Y-5528400D01*
X13435422Y-5408400D02*
X13315422Y-5528400D01*
X13435422Y-5468400D02*
G75*
G03X13435422Y-5468400I-60000J0D01*
G01*
X11577011Y-4658400D02*
X11697011Y-4778400D01*
X11697011Y-4658400D02*
X11577011Y-4778400D01*
X11697011Y-4718400D02*
G75*
G03X11697011Y-4718400I-60000J0D01*
G01*
X11577011Y-5408400D02*
X11697011Y-5528400D01*
X11697011Y-5408400D02*
X11577011Y-5528400D01*
X11697011Y-5468400D02*
G75*
G03X11697011Y-5468400I-60000J0D01*
G01*
X13316933Y-6426400D02*
X13436933Y-6546400D01*
X13436933Y-6426400D02*
X13316933Y-6546400D01*
X13436933Y-6486400D02*
G75*
G03X13436933Y-6486400I-60000J0D01*
G01*
X13316933Y-7176400D02*
X13436933Y-7296400D01*
X13436933Y-7176400D02*
X13316933Y-7296400D01*
X13436933Y-7236400D02*
G75*
G03X13436933Y-7236400I-60000J0D01*
G01*
X15053833Y-4658400D02*
X15173833Y-4778400D01*
X15173833Y-4658400D02*
X15053833Y-4778400D01*
X15173833Y-4718400D02*
G75*
G03X15173833Y-4718400I-60000J0D01*
G01*
X15053833Y-5408400D02*
X15173833Y-5528400D01*
X15173833Y-5408400D02*
X15053833Y-5528400D01*
X15173833Y-5468400D02*
G75*
G03X15173833Y-5468400I-60000J0D01*
G01*
X15053600Y-6426400D02*
X15173600Y-6546400D01*
X15173600Y-6426400D02*
X15053600Y-6546400D01*
X15173600Y-6486400D02*
G75*
G03X15173600Y-6486400I-60000J0D01*
G01*
X15053600Y-7176400D02*
X15173600Y-7296400D01*
X15173600Y-7176400D02*
X15053600Y-7296400D01*
X15173600Y-7236400D02*
G75*
G03X15173600Y-7236400I-60000J0D01*
G01*
X9843600Y-6426400D02*
X9963600Y-6546400D01*
X9963600Y-6426400D02*
X9843600Y-6546400D01*
X9963600Y-6486400D02*
G75*
G03X9963600Y-6486400I-60000J0D01*
G01*
X9843600Y-7176400D02*
X9963600Y-7296400D01*
X9963600Y-7176400D02*
X9843600Y-7296400D01*
X9963600Y-7236400D02*
G75*
G03X9963600Y-7236400I-60000J0D01*
G01*
X9838600Y-4658400D02*
X9958600Y-4778400D01*
X9958600Y-4658400D02*
X9838600Y-4778400D01*
X9958600Y-4718400D02*
G75*
G03X9958600Y-4718400I-60000J0D01*
G01*
X9838600Y-5408400D02*
X9958600Y-5528400D01*
X9958600Y-5408400D02*
X9838600Y-5528400D01*
X9958600Y-5468400D02*
G75*
G03X9958600Y-5468400I-60000J0D01*
G01*
X11580267Y-6426400D02*
X11700267Y-6546400D01*
X11700267Y-6426400D02*
X11580267Y-6546400D01*
X11700267Y-6486400D02*
G75*
G03X11700267Y-6486400I-60000J0D01*
G01*
X11580267Y-7176400D02*
X11700267Y-7296400D01*
X11700267Y-7176400D02*
X11580267Y-7296400D01*
X11700267Y-7236400D02*
G75*
G03X11700267Y-7236400I-60000J0D01*
G01*
X7842600Y-8198700D02*
X7972600Y-8328700D01*
X7972600Y-8198700D02*
X7842600Y-8328700D01*
X7907600Y-8198700D02*
X7907600Y-8328700D01*
X7842600Y-8263700D02*
X7972600Y-8263700D01*
X7842600Y-9722700D02*
X7972600Y-9852700D01*
X7972600Y-9722700D02*
X7842600Y-9852700D01*
X7907600Y-9722700D02*
X7907600Y-9852700D01*
X7842600Y-9787700D02*
X7972600Y-9787700D01*
X6561200Y-8198700D02*
X6691200Y-8328700D01*
X6691200Y-8198700D02*
X6561200Y-8328700D01*
X6626200Y-8198700D02*
X6626200Y-8328700D01*
X6561200Y-8263700D02*
X6691200Y-8263700D01*
X6561200Y-9722700D02*
X6691200Y-9852700D01*
X6691200Y-9722700D02*
X6561200Y-9852700D01*
X6626200Y-9722700D02*
X6626200Y-9852700D01*
X6561200Y-9787700D02*
X6691200Y-9787700D01*
X5920500Y-8198700D02*
X6050500Y-8328700D01*
X6050500Y-8198700D02*
X5920500Y-8328700D01*
X5985500Y-8198700D02*
X5985500Y-8328700D01*
X5920500Y-8263700D02*
X6050500Y-8263700D01*
X5920500Y-9722700D02*
X6050500Y-9852700D01*
X6050500Y-9722700D02*
X5920500Y-9852700D01*
X5985500Y-9722700D02*
X5985500Y-9852700D01*
X5920500Y-9787700D02*
X6050500Y-9787700D01*
X7201900Y-8198700D02*
X7331900Y-8328700D01*
X7331900Y-8198700D02*
X7201900Y-8328700D01*
X7266900Y-8198700D02*
X7266900Y-8328700D01*
X7201900Y-8263700D02*
X7331900Y-8263700D01*
X7201900Y-9722700D02*
X7331900Y-9852700D01*
X7331900Y-9722700D02*
X7201900Y-9852700D01*
X7266900Y-9722700D02*
X7266900Y-9852700D01*
X7201900Y-9787700D02*
X7331900Y-9787700D01*
X14885600Y-12536000D02*
X15038000Y-12688400D01*
X15038000Y-12536000D02*
X14885600Y-12688400D01*
X15015682Y-12666082D02*
X15015682Y-12558318D01*
X14907918Y-12558318D01*
X14907918Y-12666082D01*
X15015682Y-12666082D01*
X15393600Y-12536000D02*
X15546000Y-12688400D01*
X15546000Y-12536000D02*
X15393600Y-12688400D01*
X15523682Y-12666082D02*
X15523682Y-12558318D01*
X15415918Y-12558318D01*
X15415918Y-12666082D01*
X15523682Y-12666082D01*
X5920200Y-10414600D02*
X6177200Y-10671600D01*
X6177200Y-10414600D02*
X5920200Y-10671600D01*
X6048700Y-10671600D02*
X6177200Y-10543100D01*
X6048700Y-10414600D01*
X5920200Y-10543100D01*
X6048700Y-10671600D01*
X5920200Y-11494600D02*
X6177200Y-11751600D01*
X6177200Y-11494600D02*
X5920200Y-11751600D01*
X6048700Y-11751600D02*
X6177200Y-11623100D01*
X6048700Y-11494600D01*
X5920200Y-11623100D01*
X6048700Y-11751600D01*
X6441200Y-10414600D02*
X6698200Y-10671600D01*
X6698200Y-10414600D02*
X6441200Y-10671600D01*
X6569700Y-10671600D02*
X6698200Y-10543100D01*
X6569700Y-10414600D01*
X6441200Y-10543100D01*
X6569700Y-10671600D01*
X6441200Y-11494600D02*
X6698200Y-11751600D01*
X6698200Y-11494600D02*
X6441200Y-11751600D01*
X6569700Y-11751600D02*
X6698200Y-11623100D01*
X6569700Y-11494600D01*
X6441200Y-11623100D01*
X6569700Y-11751600D01*
X6962200Y-10414600D02*
X7219200Y-10671600D01*
X7219200Y-10414600D02*
X6962200Y-10671600D01*
X7090700Y-10671600D02*
X7219200Y-10543100D01*
X7090700Y-10414600D01*
X6962200Y-10543100D01*
X7090700Y-10671600D01*
X6962200Y-11494600D02*
X7219200Y-11751600D01*
X7219200Y-11494600D02*
X6962200Y-11751600D01*
X7090700Y-11751600D02*
X7219200Y-11623100D01*
X7090700Y-11494600D01*
X6962200Y-11623100D01*
X7090700Y-11751600D01*
X5912300Y-6312500D02*
X6169300Y-6569500D01*
X6169300Y-6312500D02*
X5912300Y-6569500D01*
X6040800Y-6569500D02*
X6169300Y-6441000D01*
X6040800Y-6312500D01*
X5912300Y-6441000D01*
X6040800Y-6569500D01*
X5912300Y-7392500D02*
X6169300Y-7649500D01*
X6169300Y-7392500D02*
X5912300Y-7649500D01*
X6040800Y-7649500D02*
X6169300Y-7521000D01*
X6040800Y-7392500D01*
X5912300Y-7521000D01*
X6040800Y-7649500D01*
X6433300Y-6312500D02*
X6690300Y-6569500D01*
X6690300Y-6312500D02*
X6433300Y-6569500D01*
X6561800Y-6569500D02*
X6690300Y-6441000D01*
X6561800Y-6312500D01*
X6433300Y-6441000D01*
X6561800Y-6569500D01*
X6433300Y-7392500D02*
X6690300Y-7649500D01*
X6690300Y-7392500D02*
X6433300Y-7649500D01*
X6561800Y-7649500D02*
X6690300Y-7521000D01*
X6561800Y-7392500D01*
X6433300Y-7521000D01*
X6561800Y-7649500D01*
X6954300Y-6312500D02*
X7211300Y-6569500D01*
X7211300Y-6312500D02*
X6954300Y-6569500D01*
X7082800Y-6569500D02*
X7211300Y-6441000D01*
X7082800Y-6312500D01*
X6954300Y-6441000D01*
X7082800Y-6569500D01*
X6954300Y-7392500D02*
X7211300Y-7649500D01*
X7211300Y-7392500D02*
X6954300Y-7649500D01*
X7082800Y-7649500D02*
X7211300Y-7521000D01*
X7082800Y-7392500D01*
X6954300Y-7521000D01*
X7082800Y-7649500D01*
X5925000Y-4116200D02*
X6182000Y-4373200D01*
X6182000Y-4116200D02*
X5925000Y-4373200D01*
X6053500Y-4373200D02*
X6182000Y-4244700D01*
X6053500Y-4116200D01*
X5925000Y-4244700D01*
X6053500Y-4373200D01*
X5925000Y-5196200D02*
X6182000Y-5453200D01*
X6182000Y-5196200D02*
X5925000Y-5453200D01*
X6053500Y-5453200D02*
X6182000Y-5324700D01*
X6053500Y-5196200D01*
X5925000Y-5324700D01*
X6053500Y-5453200D01*
X6446000Y-4116200D02*
X6703000Y-4373200D01*
X6703000Y-4116200D02*
X6446000Y-4373200D01*
X6574500Y-4373200D02*
X6703000Y-4244700D01*
X6574500Y-4116200D01*
X6446000Y-4244700D01*
X6574500Y-4373200D01*
X6446000Y-5196200D02*
X6703000Y-5453200D01*
X6703000Y-5196200D02*
X6446000Y-5453200D01*
X6574500Y-5453200D02*
X6703000Y-5324700D01*
X6574500Y-5196200D01*
X6446000Y-5324700D01*
X6574500Y-5453200D01*
X6967000Y-4116200D02*
X7224000Y-4373200D01*
X7224000Y-4116200D02*
X6967000Y-4373200D01*
X7095500Y-4373200D02*
X7224000Y-4244700D01*
X7095500Y-4116200D01*
X6967000Y-4244700D01*
X7095500Y-4373200D01*
X6967000Y-5196200D02*
X7224000Y-5453200D01*
X7224000Y-5196200D02*
X6967000Y-5453200D01*
X7095500Y-5453200D02*
X7224000Y-5324700D01*
X7095500Y-5196200D01*
X6967000Y-5324700D01*
X7095500Y-5453200D01*
X18157600Y-3739400D02*
X18157600Y-4169400D01*
X17942600Y-3954400D02*
X18372600Y-3954400D01*
X18372600Y-3954400D02*
G75*
G03X18372600Y-3954400I-215000J0D01*
G01*
X4157600Y-3722000D02*
X4157600Y-4152000D01*
X3942600Y-3937000D02*
X4372600Y-3937000D01*
X4372600Y-3937000D02*
G75*
G03X4372600Y-3937000I-215000J0D01*
G01*
X4157600Y-12739400D02*
X4157600Y-13169400D01*
X3942600Y-12954400D02*
X4372600Y-12954400D01*
X4372600Y-12954400D02*
G75*
G03X4372600Y-12954400I-215000J0D01*
G01*
X18157600Y-12739400D02*
X18157600Y-13169400D01*
X17942600Y-12954400D02*
X18372600Y-12954400D01*
X18372600Y-12954400D02*
G75*
G03X18372600Y-12954400I-215000J0D01*
G01*
D12*
X3939028Y-13925114D02*
X3939028Y-13625114D01*
X4010457Y-13625114D01*
X4053314Y-13639400D01*
X4081886Y-13667971D01*
X4096171Y-13696543D01*
X4110457Y-13753686D01*
X4110457Y-13796543D01*
X4096171Y-13853686D01*
X4081886Y-13882257D01*
X4053314Y-13910829D01*
X4010457Y-13925114D01*
X3939028Y-13925114D01*
X4239028Y-13925114D02*
X4239028Y-13725114D01*
X4239028Y-13782257D02*
X4253314Y-13753686D01*
X4267600Y-13739400D01*
X4296171Y-13725114D01*
X4324743Y-13725114D01*
X4424743Y-13925114D02*
X4424743Y-13725114D01*
X4424743Y-13625114D02*
X4410457Y-13639400D01*
X4424743Y-13653686D01*
X4439028Y-13639400D01*
X4424743Y-13625114D01*
X4424743Y-13653686D01*
X4610457Y-13925114D02*
X4581886Y-13910829D01*
X4567600Y-13882257D01*
X4567600Y-13625114D01*
X4767600Y-13925114D02*
X4739028Y-13910829D01*
X4724743Y-13882257D01*
X4724743Y-13625114D01*
X5110457Y-13925114D02*
X5110457Y-13625114D01*
X5210457Y-13839400D01*
X5310457Y-13625114D01*
X5310457Y-13925114D01*
X5581886Y-13925114D02*
X5581886Y-13767971D01*
X5567600Y-13739400D01*
X5539028Y-13725114D01*
X5481886Y-13725114D01*
X5453314Y-13739400D01*
X5581886Y-13910829D02*
X5553314Y-13925114D01*
X5481886Y-13925114D01*
X5453314Y-13910829D01*
X5439028Y-13882257D01*
X5439028Y-13853686D01*
X5453314Y-13825114D01*
X5481886Y-13810829D01*
X5553314Y-13810829D01*
X5581886Y-13796543D01*
X5724743Y-13725114D02*
X5724743Y-14025114D01*
X5724743Y-13739400D02*
X5753314Y-13725114D01*
X5810457Y-13725114D01*
X5839028Y-13739400D01*
X5853314Y-13753686D01*
X5867600Y-13782257D01*
X5867600Y-13867971D01*
X5853314Y-13896543D01*
X5839028Y-13910829D01*
X5810457Y-13925114D01*
X5753314Y-13925114D01*
X5724743Y-13910829D01*
X5996171Y-13896543D02*
X6010457Y-13910829D01*
X5996171Y-13925114D01*
X5981886Y-13910829D01*
X5996171Y-13896543D01*
X5996171Y-13925114D01*
X5996171Y-13739400D02*
X6010457Y-13753686D01*
X5996171Y-13767971D01*
X5981886Y-13753686D01*
X5996171Y-13739400D01*
X5996171Y-13767971D01*
X3577600Y-14381900D02*
X3652600Y-14456900D01*
X3652600Y-14381900D02*
X3577600Y-14456900D01*
X3996171Y-14255114D02*
X4024743Y-14255114D01*
X4053314Y-14269400D01*
X4067600Y-14283686D01*
X4081886Y-14312257D01*
X4096171Y-14369400D01*
X4096171Y-14440829D01*
X4081886Y-14497971D01*
X4067600Y-14526543D01*
X4053314Y-14540829D01*
X4024743Y-14555114D01*
X3996171Y-14555114D01*
X3967600Y-14540829D01*
X3953314Y-14526543D01*
X3939028Y-14497971D01*
X3924743Y-14440829D01*
X3924743Y-14369400D01*
X3939028Y-14312257D01*
X3953314Y-14283686D01*
X3967600Y-14269400D01*
X3996171Y-14255114D01*
X4224743Y-14526543D02*
X4239028Y-14540829D01*
X4224743Y-14555114D01*
X4210457Y-14540829D01*
X4224743Y-14526543D01*
X4224743Y-14555114D01*
X4339028Y-14255114D02*
X4539028Y-14255114D01*
X4410457Y-14555114D01*
X4796171Y-14255114D02*
X4653314Y-14255114D01*
X4639028Y-14397971D01*
X4653314Y-14383686D01*
X4681886Y-14369400D01*
X4753314Y-14369400D01*
X4781886Y-14383686D01*
X4796171Y-14397971D01*
X4810457Y-14426543D01*
X4810457Y-14497971D01*
X4796171Y-14526543D01*
X4781886Y-14540829D01*
X4753314Y-14555114D01*
X4681886Y-14555114D01*
X4653314Y-14540829D01*
X4639028Y-14526543D01*
X4939028Y-14555114D02*
X4939028Y-14355114D01*
X4939028Y-14383686D02*
X4953314Y-14369400D01*
X4981886Y-14355114D01*
X5024743Y-14355114D01*
X5053314Y-14369400D01*
X5067600Y-14397971D01*
X5067600Y-14555114D01*
X5067600Y-14397971D02*
X5081886Y-14369400D01*
X5110457Y-14355114D01*
X5153314Y-14355114D01*
X5181886Y-14369400D01*
X5196171Y-14397971D01*
X5196171Y-14555114D01*
X5339028Y-14555114D02*
X5339028Y-14355114D01*
X5339028Y-14383686D02*
X5353314Y-14369400D01*
X5381886Y-14355114D01*
X5424743Y-14355114D01*
X5453314Y-14369400D01*
X5467600Y-14397971D01*
X5467600Y-14555114D01*
X5467600Y-14397971D02*
X5481886Y-14369400D01*
X5510457Y-14355114D01*
X5553314Y-14355114D01*
X5581886Y-14369400D01*
X5596171Y-14397971D01*
X5596171Y-14555114D01*
X6181886Y-14240829D02*
X5924743Y-14626543D01*
X6567600Y-14255114D02*
X6596171Y-14255114D01*
X6624743Y-14269400D01*
X6639028Y-14283686D01*
X6653314Y-14312257D01*
X6667600Y-14369400D01*
X6667600Y-14440829D01*
X6653314Y-14497971D01*
X6639028Y-14526543D01*
X6624743Y-14540829D01*
X6596171Y-14555114D01*
X6567600Y-14555114D01*
X6539028Y-14540829D01*
X6524743Y-14526543D01*
X6510457Y-14497971D01*
X6496171Y-14440829D01*
X6496171Y-14369400D01*
X6510457Y-14312257D01*
X6524743Y-14283686D01*
X6539028Y-14269400D01*
X6567600Y-14255114D01*
X6796171Y-14526543D02*
X6810457Y-14540829D01*
X6796171Y-14555114D01*
X6781886Y-14540829D01*
X6796171Y-14526543D01*
X6796171Y-14555114D01*
X6996171Y-14255114D02*
X7024743Y-14255114D01*
X7053314Y-14269400D01*
X7067600Y-14283686D01*
X7081886Y-14312257D01*
X7096171Y-14369400D01*
X7096171Y-14440829D01*
X7081886Y-14497971D01*
X7067600Y-14526543D01*
X7053314Y-14540829D01*
X7024743Y-14555114D01*
X6996171Y-14555114D01*
X6967600Y-14540829D01*
X6953314Y-14526543D01*
X6939028Y-14497971D01*
X6924743Y-14440829D01*
X6924743Y-14369400D01*
X6939028Y-14312257D01*
X6953314Y-14283686D01*
X6967600Y-14269400D01*
X6996171Y-14255114D01*
X7196171Y-14255114D02*
X7381886Y-14255114D01*
X7281886Y-14369400D01*
X7324743Y-14369400D01*
X7353314Y-14383686D01*
X7367600Y-14397971D01*
X7381886Y-14426543D01*
X7381886Y-14497971D01*
X7367600Y-14526543D01*
X7353314Y-14540829D01*
X7324743Y-14555114D01*
X7239028Y-14555114D01*
X7210457Y-14540829D01*
X7196171Y-14526543D01*
X7567600Y-14255114D02*
X7596171Y-14255114D01*
X7624743Y-14269400D01*
X7639028Y-14283686D01*
X7653314Y-14312257D01*
X7667600Y-14369400D01*
X7667600Y-14440829D01*
X7653314Y-14497971D01*
X7639028Y-14526543D01*
X7624743Y-14540829D01*
X7596171Y-14555114D01*
X7567600Y-14555114D01*
X7539028Y-14540829D01*
X7524743Y-14526543D01*
X7510457Y-14497971D01*
X7496171Y-14440829D01*
X7496171Y-14369400D01*
X7510457Y-14312257D01*
X7524743Y-14283686D01*
X7539028Y-14269400D01*
X7567600Y-14255114D01*
X7781886Y-14255114D02*
X7781886Y-14312257D01*
X7896171Y-14255114D02*
X7896171Y-14312257D01*
X8339028Y-14669400D02*
X8324743Y-14655114D01*
X8296171Y-14612257D01*
X8281886Y-14583686D01*
X8267600Y-14540829D01*
X8253314Y-14469400D01*
X8253314Y-14412257D01*
X8267600Y-14340829D01*
X8281886Y-14297971D01*
X8296171Y-14269400D01*
X8324743Y-14226543D01*
X8339028Y-14212257D01*
X8581886Y-14355114D02*
X8581886Y-14555114D01*
X8510457Y-14240829D02*
X8439028Y-14455114D01*
X8624743Y-14455114D01*
X8967600Y-14555114D02*
X8967600Y-14255114D01*
X9096171Y-14555114D02*
X9096171Y-14397971D01*
X9081886Y-14369400D01*
X9053314Y-14355114D01*
X9010457Y-14355114D01*
X8981886Y-14369400D01*
X8967600Y-14383686D01*
X9281886Y-14555114D02*
X9253314Y-14540829D01*
X9239028Y-14526543D01*
X9224743Y-14497971D01*
X9224743Y-14412257D01*
X9239028Y-14383686D01*
X9253314Y-14369400D01*
X9281886Y-14355114D01*
X9324743Y-14355114D01*
X9353314Y-14369400D01*
X9367600Y-14383686D01*
X9381886Y-14412257D01*
X9381886Y-14497971D01*
X9367600Y-14526543D01*
X9353314Y-14540829D01*
X9324743Y-14555114D01*
X9281886Y-14555114D01*
X9553314Y-14555114D02*
X9524743Y-14540829D01*
X9510457Y-14512257D01*
X9510457Y-14255114D01*
X9781886Y-14540829D02*
X9753314Y-14555114D01*
X9696171Y-14555114D01*
X9667600Y-14540829D01*
X9653314Y-14512257D01*
X9653314Y-14397971D01*
X9667600Y-14369400D01*
X9696171Y-14355114D01*
X9753314Y-14355114D01*
X9781886Y-14369400D01*
X9796171Y-14397971D01*
X9796171Y-14426543D01*
X9653314Y-14455114D01*
X9910457Y-14540829D02*
X9939028Y-14555114D01*
X9996171Y-14555114D01*
X10024743Y-14540829D01*
X10039028Y-14512257D01*
X10039028Y-14497971D01*
X10024743Y-14469400D01*
X9996171Y-14455114D01*
X9953314Y-14455114D01*
X9924743Y-14440829D01*
X9910457Y-14412257D01*
X9910457Y-14397971D01*
X9924743Y-14369400D01*
X9953314Y-14355114D01*
X9996171Y-14355114D01*
X10024743Y-14369400D01*
X10139028Y-14669400D02*
X10153314Y-14655114D01*
X10181886Y-14612257D01*
X10196171Y-14583686D01*
X10210457Y-14540829D01*
X10224743Y-14469400D01*
X10224743Y-14412257D01*
X10210457Y-14340829D01*
X10196171Y-14297971D01*
X10181886Y-14269400D01*
X10153314Y-14226543D01*
X10139028Y-14212257D01*
X3652600Y-14815400D02*
G75*
G03X3652600Y-14815400I-40000J0D01*
G01*
X3996171Y-14651114D02*
X4024743Y-14651114D01*
X4053314Y-14665400D01*
X4067600Y-14679686D01*
X4081886Y-14708257D01*
X4096171Y-14765400D01*
X4096171Y-14836829D01*
X4081886Y-14893971D01*
X4067600Y-14922543D01*
X4053314Y-14936829D01*
X4024743Y-14951114D01*
X3996171Y-14951114D01*
X3967600Y-14936829D01*
X3953314Y-14922543D01*
X3939028Y-14893971D01*
X3924743Y-14836829D01*
X3924743Y-14765400D01*
X3939028Y-14708257D01*
X3953314Y-14679686D01*
X3967600Y-14665400D01*
X3996171Y-14651114D01*
X4224743Y-14922543D02*
X4239028Y-14936829D01*
X4224743Y-14951114D01*
X4210457Y-14936829D01*
X4224743Y-14922543D01*
X4224743Y-14951114D01*
X4410457Y-14779686D02*
X4381886Y-14765400D01*
X4367600Y-14751114D01*
X4353314Y-14722543D01*
X4353314Y-14708257D01*
X4367600Y-14679686D01*
X4381886Y-14665400D01*
X4410457Y-14651114D01*
X4467600Y-14651114D01*
X4496171Y-14665400D01*
X4510457Y-14679686D01*
X4524743Y-14708257D01*
X4524743Y-14722543D01*
X4510457Y-14751114D01*
X4496171Y-14765400D01*
X4467600Y-14779686D01*
X4410457Y-14779686D01*
X4381886Y-14793971D01*
X4367600Y-14808257D01*
X4353314Y-14836829D01*
X4353314Y-14893971D01*
X4367600Y-14922543D01*
X4381886Y-14936829D01*
X4410457Y-14951114D01*
X4467600Y-14951114D01*
X4496171Y-14936829D01*
X4510457Y-14922543D01*
X4524743Y-14893971D01*
X4524743Y-14836829D01*
X4510457Y-14808257D01*
X4496171Y-14793971D01*
X4467600Y-14779686D01*
X4710457Y-14651114D02*
X4739028Y-14651114D01*
X4767600Y-14665400D01*
X4781886Y-14679686D01*
X4796171Y-14708257D01*
X4810457Y-14765400D01*
X4810457Y-14836829D01*
X4796171Y-14893971D01*
X4781886Y-14922543D01*
X4767600Y-14936829D01*
X4739028Y-14951114D01*
X4710457Y-14951114D01*
X4681886Y-14936829D01*
X4667600Y-14922543D01*
X4653314Y-14893971D01*
X4639028Y-14836829D01*
X4639028Y-14765400D01*
X4653314Y-14708257D01*
X4667600Y-14679686D01*
X4681886Y-14665400D01*
X4710457Y-14651114D01*
X4939028Y-14951114D02*
X4939028Y-14751114D01*
X4939028Y-14779686D02*
X4953314Y-14765400D01*
X4981886Y-14751114D01*
X5024743Y-14751114D01*
X5053314Y-14765400D01*
X5067600Y-14793971D01*
X5067600Y-14951114D01*
X5067600Y-14793971D02*
X5081886Y-14765400D01*
X5110457Y-14751114D01*
X5153314Y-14751114D01*
X5181886Y-14765400D01*
X5196171Y-14793971D01*
X5196171Y-14951114D01*
X5339028Y-14951114D02*
X5339028Y-14751114D01*
X5339028Y-14779686D02*
X5353314Y-14765400D01*
X5381886Y-14751114D01*
X5424743Y-14751114D01*
X5453314Y-14765400D01*
X5467600Y-14793971D01*
X5467600Y-14951114D01*
X5467600Y-14793971D02*
X5481886Y-14765400D01*
X5510457Y-14751114D01*
X5553314Y-14751114D01*
X5581886Y-14765400D01*
X5596171Y-14793971D01*
X5596171Y-14951114D01*
X6181886Y-14636829D02*
X5924743Y-15022543D01*
X6567600Y-14651114D02*
X6596171Y-14651114D01*
X6624743Y-14665400D01*
X6639028Y-14679686D01*
X6653314Y-14708257D01*
X6667600Y-14765400D01*
X6667600Y-14836829D01*
X6653314Y-14893971D01*
X6639028Y-14922543D01*
X6624743Y-14936829D01*
X6596171Y-14951114D01*
X6567600Y-14951114D01*
X6539028Y-14936829D01*
X6524743Y-14922543D01*
X6510457Y-14893971D01*
X6496171Y-14836829D01*
X6496171Y-14765400D01*
X6510457Y-14708257D01*
X6524743Y-14679686D01*
X6539028Y-14665400D01*
X6567600Y-14651114D01*
X6796171Y-14922543D02*
X6810457Y-14936829D01*
X6796171Y-14951114D01*
X6781886Y-14936829D01*
X6796171Y-14922543D01*
X6796171Y-14951114D01*
X6996171Y-14651114D02*
X7024743Y-14651114D01*
X7053314Y-14665400D01*
X7067600Y-14679686D01*
X7081886Y-14708257D01*
X7096171Y-14765400D01*
X7096171Y-14836829D01*
X7081886Y-14893971D01*
X7067600Y-14922543D01*
X7053314Y-14936829D01*
X7024743Y-14951114D01*
X6996171Y-14951114D01*
X6967600Y-14936829D01*
X6953314Y-14922543D01*
X6939028Y-14893971D01*
X6924743Y-14836829D01*
X6924743Y-14765400D01*
X6939028Y-14708257D01*
X6953314Y-14679686D01*
X6967600Y-14665400D01*
X6996171Y-14651114D01*
X7196171Y-14651114D02*
X7381886Y-14651114D01*
X7281886Y-14765400D01*
X7324743Y-14765400D01*
X7353314Y-14779686D01*
X7367600Y-14793971D01*
X7381886Y-14822543D01*
X7381886Y-14893971D01*
X7367600Y-14922543D01*
X7353314Y-14936829D01*
X7324743Y-14951114D01*
X7239028Y-14951114D01*
X7210457Y-14936829D01*
X7196171Y-14922543D01*
X7667600Y-14951114D02*
X7496171Y-14951114D01*
X7581886Y-14951114D02*
X7581886Y-14651114D01*
X7553314Y-14693971D01*
X7524743Y-14722543D01*
X7496171Y-14736829D01*
X7781886Y-14651114D02*
X7781886Y-14708257D01*
X7896171Y-14651114D02*
X7896171Y-14708257D01*
X8339028Y-15065400D02*
X8324743Y-15051114D01*
X8296171Y-15008257D01*
X8281886Y-14979686D01*
X8267600Y-14936829D01*
X8253314Y-14865400D01*
X8253314Y-14808257D01*
X8267600Y-14736829D01*
X8281886Y-14693971D01*
X8296171Y-14665400D01*
X8324743Y-14622543D01*
X8339028Y-14608257D01*
X8581886Y-14751114D02*
X8581886Y-14951114D01*
X8510457Y-14636829D02*
X8439028Y-14851114D01*
X8624743Y-14851114D01*
X8724743Y-14679686D02*
X8739028Y-14665400D01*
X8767600Y-14651114D01*
X8839028Y-14651114D01*
X8867600Y-14665400D01*
X8881886Y-14679686D01*
X8896171Y-14708257D01*
X8896171Y-14736829D01*
X8881886Y-14779686D01*
X8710457Y-14951114D01*
X8896171Y-14951114D01*
X9253314Y-14951114D02*
X9253314Y-14651114D01*
X9381886Y-14951114D02*
X9381886Y-14793971D01*
X9367600Y-14765400D01*
X9339028Y-14751114D01*
X9296171Y-14751114D01*
X9267600Y-14765400D01*
X9253314Y-14779686D01*
X9567600Y-14951114D02*
X9539028Y-14936829D01*
X9524743Y-14922543D01*
X9510457Y-14893971D01*
X9510457Y-14808257D01*
X9524743Y-14779686D01*
X9539028Y-14765400D01*
X9567600Y-14751114D01*
X9610457Y-14751114D01*
X9639028Y-14765400D01*
X9653314Y-14779686D01*
X9667600Y-14808257D01*
X9667600Y-14893971D01*
X9653314Y-14922543D01*
X9639028Y-14936829D01*
X9610457Y-14951114D01*
X9567600Y-14951114D01*
X9839028Y-14951114D02*
X9810457Y-14936829D01*
X9796171Y-14908257D01*
X9796171Y-14651114D01*
X10067600Y-14936829D02*
X10039028Y-14951114D01*
X9981886Y-14951114D01*
X9953314Y-14936829D01*
X9939028Y-14908257D01*
X9939028Y-14793971D01*
X9953314Y-14765400D01*
X9981886Y-14751114D01*
X10039028Y-14751114D01*
X10067600Y-14765400D01*
X10081886Y-14793971D01*
X10081886Y-14822543D01*
X9939028Y-14851114D01*
X10196171Y-14936829D02*
X10224743Y-14951114D01*
X10281886Y-14951114D01*
X10310457Y-14936829D01*
X10324743Y-14908257D01*
X10324743Y-14893971D01*
X10310457Y-14865400D01*
X10281886Y-14851114D01*
X10239028Y-14851114D01*
X10210457Y-14836829D01*
X10196171Y-14808257D01*
X10196171Y-14793971D01*
X10210457Y-14765400D01*
X10239028Y-14751114D01*
X10281886Y-14751114D01*
X10310457Y-14765400D01*
X10424743Y-15065400D02*
X10439028Y-15051114D01*
X10467600Y-15008257D01*
X10481886Y-14979686D01*
X10496171Y-14936829D01*
X10510457Y-14865400D01*
X10510457Y-14808257D01*
X10496171Y-14736829D01*
X10481886Y-14693971D01*
X10467600Y-14665400D01*
X10439028Y-14622543D01*
X10424743Y-14608257D01*
X3602600Y-15161400D02*
X3602600Y-15261400D01*
X3552600Y-15211400D02*
X3652600Y-15211400D01*
X4096171Y-15347114D02*
X3924743Y-15347114D01*
X4010457Y-15347114D02*
X4010457Y-15047114D01*
X3981886Y-15089971D01*
X3953314Y-15118543D01*
X3924743Y-15132829D01*
X4224743Y-15318543D02*
X4239028Y-15332829D01*
X4224743Y-15347114D01*
X4210457Y-15332829D01*
X4224743Y-15318543D01*
X4224743Y-15347114D01*
X4424743Y-15047114D02*
X4453314Y-15047114D01*
X4481886Y-15061400D01*
X4496171Y-15075686D01*
X4510457Y-15104257D01*
X4524743Y-15161400D01*
X4524743Y-15232829D01*
X4510457Y-15289971D01*
X4496171Y-15318543D01*
X4481886Y-15332829D01*
X4453314Y-15347114D01*
X4424743Y-15347114D01*
X4396171Y-15332829D01*
X4381886Y-15318543D01*
X4367600Y-15289971D01*
X4353314Y-15232829D01*
X4353314Y-15161400D01*
X4367600Y-15104257D01*
X4381886Y-15075686D01*
X4396171Y-15061400D01*
X4424743Y-15047114D01*
X4710457Y-15047114D02*
X4739028Y-15047114D01*
X4767600Y-15061400D01*
X4781886Y-15075686D01*
X4796171Y-15104257D01*
X4810457Y-15161400D01*
X4810457Y-15232829D01*
X4796171Y-15289971D01*
X4781886Y-15318543D01*
X4767600Y-15332829D01*
X4739028Y-15347114D01*
X4710457Y-15347114D01*
X4681886Y-15332829D01*
X4667600Y-15318543D01*
X4653314Y-15289971D01*
X4639028Y-15232829D01*
X4639028Y-15161400D01*
X4653314Y-15104257D01*
X4667600Y-15075686D01*
X4681886Y-15061400D01*
X4710457Y-15047114D01*
X4939028Y-15347114D02*
X4939028Y-15147114D01*
X4939028Y-15175686D02*
X4953314Y-15161400D01*
X4981886Y-15147114D01*
X5024743Y-15147114D01*
X5053314Y-15161400D01*
X5067600Y-15189971D01*
X5067600Y-15347114D01*
X5067600Y-15189971D02*
X5081886Y-15161400D01*
X5110457Y-15147114D01*
X5153314Y-15147114D01*
X5181886Y-15161400D01*
X5196171Y-15189971D01*
X5196171Y-15347114D01*
X5339028Y-15347114D02*
X5339028Y-15147114D01*
X5339028Y-15175686D02*
X5353314Y-15161400D01*
X5381886Y-15147114D01*
X5424743Y-15147114D01*
X5453314Y-15161400D01*
X5467600Y-15189971D01*
X5467600Y-15347114D01*
X5467600Y-15189971D02*
X5481886Y-15161400D01*
X5510457Y-15147114D01*
X5553314Y-15147114D01*
X5581886Y-15161400D01*
X5596171Y-15189971D01*
X5596171Y-15347114D01*
X6181886Y-15032829D02*
X5924743Y-15418543D01*
X6567600Y-15047114D02*
X6596171Y-15047114D01*
X6624743Y-15061400D01*
X6639028Y-15075686D01*
X6653314Y-15104257D01*
X6667600Y-15161400D01*
X6667600Y-15232829D01*
X6653314Y-15289971D01*
X6639028Y-15318543D01*
X6624743Y-15332829D01*
X6596171Y-15347114D01*
X6567600Y-15347114D01*
X6539028Y-15332829D01*
X6524743Y-15318543D01*
X6510457Y-15289971D01*
X6496171Y-15232829D01*
X6496171Y-15161400D01*
X6510457Y-15104257D01*
X6524743Y-15075686D01*
X6539028Y-15061400D01*
X6567600Y-15047114D01*
X6796171Y-15318543D02*
X6810457Y-15332829D01*
X6796171Y-15347114D01*
X6781886Y-15332829D01*
X6796171Y-15318543D01*
X6796171Y-15347114D01*
X6996171Y-15047114D02*
X7024743Y-15047114D01*
X7053314Y-15061400D01*
X7067600Y-15075686D01*
X7081886Y-15104257D01*
X7096171Y-15161400D01*
X7096171Y-15232829D01*
X7081886Y-15289971D01*
X7067600Y-15318543D01*
X7053314Y-15332829D01*
X7024743Y-15347114D01*
X6996171Y-15347114D01*
X6967600Y-15332829D01*
X6953314Y-15318543D01*
X6939028Y-15289971D01*
X6924743Y-15232829D01*
X6924743Y-15161400D01*
X6939028Y-15104257D01*
X6953314Y-15075686D01*
X6967600Y-15061400D01*
X6996171Y-15047114D01*
X7196171Y-15047114D02*
X7381886Y-15047114D01*
X7281886Y-15161400D01*
X7324743Y-15161400D01*
X7353314Y-15175686D01*
X7367600Y-15189971D01*
X7381886Y-15218543D01*
X7381886Y-15289971D01*
X7367600Y-15318543D01*
X7353314Y-15332829D01*
X7324743Y-15347114D01*
X7239028Y-15347114D01*
X7210457Y-15332829D01*
X7196171Y-15318543D01*
X7524743Y-15347114D02*
X7581886Y-15347114D01*
X7610457Y-15332829D01*
X7624743Y-15318543D01*
X7653314Y-15275686D01*
X7667600Y-15218543D01*
X7667600Y-15104257D01*
X7653314Y-15075686D01*
X7639028Y-15061400D01*
X7610457Y-15047114D01*
X7553314Y-15047114D01*
X7524743Y-15061400D01*
X7510457Y-15075686D01*
X7496171Y-15104257D01*
X7496171Y-15175686D01*
X7510457Y-15204257D01*
X7524743Y-15218543D01*
X7553314Y-15232829D01*
X7610457Y-15232829D01*
X7639028Y-15218543D01*
X7653314Y-15204257D01*
X7667600Y-15175686D01*
X7781886Y-15047114D02*
X7781886Y-15104257D01*
X7896171Y-15047114D02*
X7896171Y-15104257D01*
X8339028Y-15461400D02*
X8324743Y-15447114D01*
X8296171Y-15404257D01*
X8281886Y-15375686D01*
X8267600Y-15332829D01*
X8253314Y-15261400D01*
X8253314Y-15204257D01*
X8267600Y-15132829D01*
X8281886Y-15089971D01*
X8296171Y-15061400D01*
X8324743Y-15018543D01*
X8339028Y-15004257D01*
X8424743Y-15047114D02*
X8610457Y-15047114D01*
X8510457Y-15161400D01*
X8553314Y-15161400D01*
X8581886Y-15175686D01*
X8596171Y-15189971D01*
X8610457Y-15218543D01*
X8610457Y-15289971D01*
X8596171Y-15318543D01*
X8581886Y-15332829D01*
X8553314Y-15347114D01*
X8467600Y-15347114D01*
X8439028Y-15332829D01*
X8424743Y-15318543D01*
X8967600Y-15347114D02*
X8967600Y-15047114D01*
X9096171Y-15347114D02*
X9096171Y-15189971D01*
X9081886Y-15161400D01*
X9053314Y-15147114D01*
X9010457Y-15147114D01*
X8981886Y-15161400D01*
X8967600Y-15175686D01*
X9281886Y-15347114D02*
X9253314Y-15332829D01*
X9239028Y-15318543D01*
X9224743Y-15289971D01*
X9224743Y-15204257D01*
X9239028Y-15175686D01*
X9253314Y-15161400D01*
X9281886Y-15147114D01*
X9324743Y-15147114D01*
X9353314Y-15161400D01*
X9367600Y-15175686D01*
X9381886Y-15204257D01*
X9381886Y-15289971D01*
X9367600Y-15318543D01*
X9353314Y-15332829D01*
X9324743Y-15347114D01*
X9281886Y-15347114D01*
X9553314Y-15347114D02*
X9524743Y-15332829D01*
X9510457Y-15304257D01*
X9510457Y-15047114D01*
X9781886Y-15332829D02*
X9753314Y-15347114D01*
X9696171Y-15347114D01*
X9667600Y-15332829D01*
X9653314Y-15304257D01*
X9653314Y-15189971D01*
X9667600Y-15161400D01*
X9696171Y-15147114D01*
X9753314Y-15147114D01*
X9781886Y-15161400D01*
X9796171Y-15189971D01*
X9796171Y-15218543D01*
X9653314Y-15247114D01*
X9910457Y-15332829D02*
X9939028Y-15347114D01*
X9996171Y-15347114D01*
X10024743Y-15332829D01*
X10039028Y-15304257D01*
X10039028Y-15289971D01*
X10024743Y-15261400D01*
X9996171Y-15247114D01*
X9953314Y-15247114D01*
X9924743Y-15232829D01*
X9910457Y-15204257D01*
X9910457Y-15189971D01*
X9924743Y-15161400D01*
X9953314Y-15147114D01*
X9996171Y-15147114D01*
X10024743Y-15161400D01*
X10139028Y-15461400D02*
X10153314Y-15447114D01*
X10181886Y-15404257D01*
X10196171Y-15375686D01*
X10210457Y-15332829D01*
X10224743Y-15261400D01*
X10224743Y-15204257D01*
X10210457Y-15132829D01*
X10196171Y-15089971D01*
X10181886Y-15061400D01*
X10153314Y-15018543D01*
X10139028Y-15004257D01*
X3637944Y-15642783D02*
X3637944Y-15572018D01*
X3567179Y-15572018D01*
X3567179Y-15642783D01*
X3637944Y-15642783D01*
X4096171Y-15743114D02*
X3924743Y-15743114D01*
X4010457Y-15743114D02*
X4010457Y-15443114D01*
X3981886Y-15485971D01*
X3953314Y-15514543D01*
X3924743Y-15528829D01*
X4224743Y-15714543D02*
X4239028Y-15728829D01*
X4224743Y-15743114D01*
X4210457Y-15728829D01*
X4224743Y-15714543D01*
X4224743Y-15743114D01*
X4424743Y-15443114D02*
X4453314Y-15443114D01*
X4481886Y-15457400D01*
X4496171Y-15471686D01*
X4510457Y-15500257D01*
X4524743Y-15557400D01*
X4524743Y-15628829D01*
X4510457Y-15685971D01*
X4496171Y-15714543D01*
X4481886Y-15728829D01*
X4453314Y-15743114D01*
X4424743Y-15743114D01*
X4396171Y-15728829D01*
X4381886Y-15714543D01*
X4367600Y-15685971D01*
X4353314Y-15628829D01*
X4353314Y-15557400D01*
X4367600Y-15500257D01*
X4381886Y-15471686D01*
X4396171Y-15457400D01*
X4424743Y-15443114D01*
X4710457Y-15443114D02*
X4739028Y-15443114D01*
X4767600Y-15457400D01*
X4781886Y-15471686D01*
X4796171Y-15500257D01*
X4810457Y-15557400D01*
X4810457Y-15628829D01*
X4796171Y-15685971D01*
X4781886Y-15714543D01*
X4767600Y-15728829D01*
X4739028Y-15743114D01*
X4710457Y-15743114D01*
X4681886Y-15728829D01*
X4667600Y-15714543D01*
X4653314Y-15685971D01*
X4639028Y-15628829D01*
X4639028Y-15557400D01*
X4653314Y-15500257D01*
X4667600Y-15471686D01*
X4681886Y-15457400D01*
X4710457Y-15443114D01*
X4939028Y-15743114D02*
X4939028Y-15543114D01*
X4939028Y-15571686D02*
X4953314Y-15557400D01*
X4981886Y-15543114D01*
X5024743Y-15543114D01*
X5053314Y-15557400D01*
X5067600Y-15585971D01*
X5067600Y-15743114D01*
X5067600Y-15585971D02*
X5081886Y-15557400D01*
X5110457Y-15543114D01*
X5153314Y-15543114D01*
X5181886Y-15557400D01*
X5196171Y-15585971D01*
X5196171Y-15743114D01*
X5339028Y-15743114D02*
X5339028Y-15543114D01*
X5339028Y-15571686D02*
X5353314Y-15557400D01*
X5381886Y-15543114D01*
X5424743Y-15543114D01*
X5453314Y-15557400D01*
X5467600Y-15585971D01*
X5467600Y-15743114D01*
X5467600Y-15585971D02*
X5481886Y-15557400D01*
X5510457Y-15543114D01*
X5553314Y-15543114D01*
X5581886Y-15557400D01*
X5596171Y-15585971D01*
X5596171Y-15743114D01*
X6181886Y-15428829D02*
X5924743Y-15814543D01*
X6567600Y-15443114D02*
X6596171Y-15443114D01*
X6624743Y-15457400D01*
X6639028Y-15471686D01*
X6653314Y-15500257D01*
X6667600Y-15557400D01*
X6667600Y-15628829D01*
X6653314Y-15685971D01*
X6639028Y-15714543D01*
X6624743Y-15728829D01*
X6596171Y-15743114D01*
X6567600Y-15743114D01*
X6539028Y-15728829D01*
X6524743Y-15714543D01*
X6510457Y-15685971D01*
X6496171Y-15628829D01*
X6496171Y-15557400D01*
X6510457Y-15500257D01*
X6524743Y-15471686D01*
X6539028Y-15457400D01*
X6567600Y-15443114D01*
X6796171Y-15714543D02*
X6810457Y-15728829D01*
X6796171Y-15743114D01*
X6781886Y-15728829D01*
X6796171Y-15714543D01*
X6796171Y-15743114D01*
X6996171Y-15443114D02*
X7024743Y-15443114D01*
X7053314Y-15457400D01*
X7067600Y-15471686D01*
X7081886Y-15500257D01*
X7096171Y-15557400D01*
X7096171Y-15628829D01*
X7081886Y-15685971D01*
X7067600Y-15714543D01*
X7053314Y-15728829D01*
X7024743Y-15743114D01*
X6996171Y-15743114D01*
X6967600Y-15728829D01*
X6953314Y-15714543D01*
X6939028Y-15685971D01*
X6924743Y-15628829D01*
X6924743Y-15557400D01*
X6939028Y-15500257D01*
X6953314Y-15471686D01*
X6967600Y-15457400D01*
X6996171Y-15443114D01*
X7196171Y-15443114D02*
X7381886Y-15443114D01*
X7281886Y-15557400D01*
X7324743Y-15557400D01*
X7353314Y-15571686D01*
X7367600Y-15585971D01*
X7381886Y-15614543D01*
X7381886Y-15685971D01*
X7367600Y-15714543D01*
X7353314Y-15728829D01*
X7324743Y-15743114D01*
X7239028Y-15743114D01*
X7210457Y-15728829D01*
X7196171Y-15714543D01*
X7524743Y-15743114D02*
X7581886Y-15743114D01*
X7610457Y-15728829D01*
X7624743Y-15714543D01*
X7653314Y-15671686D01*
X7667600Y-15614543D01*
X7667600Y-15500257D01*
X7653314Y-15471686D01*
X7639028Y-15457400D01*
X7610457Y-15443114D01*
X7553314Y-15443114D01*
X7524743Y-15457400D01*
X7510457Y-15471686D01*
X7496171Y-15500257D01*
X7496171Y-15571686D01*
X7510457Y-15600257D01*
X7524743Y-15614543D01*
X7553314Y-15628829D01*
X7610457Y-15628829D01*
X7639028Y-15614543D01*
X7653314Y-15600257D01*
X7667600Y-15571686D01*
X7781886Y-15443114D02*
X7781886Y-15500257D01*
X7896171Y-15443114D02*
X7896171Y-15500257D01*
X8339028Y-15857400D02*
X8324743Y-15843114D01*
X8296171Y-15800257D01*
X8281886Y-15771686D01*
X8267600Y-15728829D01*
X8253314Y-15657400D01*
X8253314Y-15600257D01*
X8267600Y-15528829D01*
X8281886Y-15485971D01*
X8296171Y-15457400D01*
X8324743Y-15414543D01*
X8339028Y-15400257D01*
X8610457Y-15743114D02*
X8439028Y-15743114D01*
X8524743Y-15743114D02*
X8524743Y-15443114D01*
X8496171Y-15485971D01*
X8467600Y-15514543D01*
X8439028Y-15528829D01*
X8724743Y-15471686D02*
X8739028Y-15457400D01*
X8767600Y-15443114D01*
X8839028Y-15443114D01*
X8867600Y-15457400D01*
X8881886Y-15471686D01*
X8896171Y-15500257D01*
X8896171Y-15528829D01*
X8881886Y-15571686D01*
X8710457Y-15743114D01*
X8896171Y-15743114D01*
X9253314Y-15743114D02*
X9253314Y-15443114D01*
X9381886Y-15743114D02*
X9381886Y-15585971D01*
X9367600Y-15557400D01*
X9339028Y-15543114D01*
X9296171Y-15543114D01*
X9267600Y-15557400D01*
X9253314Y-15571686D01*
X9567600Y-15743114D02*
X9539028Y-15728829D01*
X9524743Y-15714543D01*
X9510457Y-15685971D01*
X9510457Y-15600257D01*
X9524743Y-15571686D01*
X9539028Y-15557400D01*
X9567600Y-15543114D01*
X9610457Y-15543114D01*
X9639028Y-15557400D01*
X9653314Y-15571686D01*
X9667600Y-15600257D01*
X9667600Y-15685971D01*
X9653314Y-15714543D01*
X9639028Y-15728829D01*
X9610457Y-15743114D01*
X9567600Y-15743114D01*
X9839028Y-15743114D02*
X9810457Y-15728829D01*
X9796171Y-15700257D01*
X9796171Y-15443114D01*
X10067600Y-15728829D02*
X10039028Y-15743114D01*
X9981886Y-15743114D01*
X9953314Y-15728829D01*
X9939028Y-15700257D01*
X9939028Y-15585971D01*
X9953314Y-15557400D01*
X9981886Y-15543114D01*
X10039028Y-15543114D01*
X10067600Y-15557400D01*
X10081886Y-15585971D01*
X10081886Y-15614543D01*
X9939028Y-15643114D01*
X10196171Y-15728829D02*
X10224743Y-15743114D01*
X10281886Y-15743114D01*
X10310457Y-15728829D01*
X10324743Y-15700257D01*
X10324743Y-15685971D01*
X10310457Y-15657400D01*
X10281886Y-15643114D01*
X10239028Y-15643114D01*
X10210457Y-15628829D01*
X10196171Y-15600257D01*
X10196171Y-15585971D01*
X10210457Y-15557400D01*
X10239028Y-15543114D01*
X10281886Y-15543114D01*
X10310457Y-15557400D01*
X10424743Y-15857400D02*
X10439028Y-15843114D01*
X10467600Y-15800257D01*
X10481886Y-15771686D01*
X10496171Y-15728829D01*
X10510457Y-15657400D01*
X10510457Y-15600257D01*
X10496171Y-15528829D01*
X10481886Y-15485971D01*
X10467600Y-15457400D01*
X10439028Y-15414543D01*
X10424743Y-15400257D01*
X3592656Y-16063344D02*
X3652600Y-16003400D01*
X3592656Y-15943456D01*
X3532712Y-16003400D01*
X3592656Y-16063344D01*
X4096171Y-16139114D02*
X3924743Y-16139114D01*
X4010457Y-16139114D02*
X4010457Y-15839114D01*
X3981886Y-15881971D01*
X3953314Y-15910543D01*
X3924743Y-15924829D01*
X4224743Y-16110543D02*
X4239028Y-16124829D01*
X4224743Y-16139114D01*
X4210457Y-16124829D01*
X4224743Y-16110543D01*
X4224743Y-16139114D01*
X4353314Y-15867686D02*
X4367600Y-15853400D01*
X4396171Y-15839114D01*
X4467600Y-15839114D01*
X4496171Y-15853400D01*
X4510457Y-15867686D01*
X4524743Y-15896257D01*
X4524743Y-15924829D01*
X4510457Y-15967686D01*
X4339028Y-16139114D01*
X4524743Y-16139114D01*
X4710457Y-15839114D02*
X4739028Y-15839114D01*
X4767600Y-15853400D01*
X4781886Y-15867686D01*
X4796171Y-15896257D01*
X4810457Y-15953400D01*
X4810457Y-16024829D01*
X4796171Y-16081971D01*
X4781886Y-16110543D01*
X4767600Y-16124829D01*
X4739028Y-16139114D01*
X4710457Y-16139114D01*
X4681886Y-16124829D01*
X4667600Y-16110543D01*
X4653314Y-16081971D01*
X4639028Y-16024829D01*
X4639028Y-15953400D01*
X4653314Y-15896257D01*
X4667600Y-15867686D01*
X4681886Y-15853400D01*
X4710457Y-15839114D01*
X4939028Y-16139114D02*
X4939028Y-15939114D01*
X4939028Y-15967686D02*
X4953314Y-15953400D01*
X4981886Y-15939114D01*
X5024743Y-15939114D01*
X5053314Y-15953400D01*
X5067600Y-15981971D01*
X5067600Y-16139114D01*
X5067600Y-15981971D02*
X5081886Y-15953400D01*
X5110457Y-15939114D01*
X5153314Y-15939114D01*
X5181886Y-15953400D01*
X5196171Y-15981971D01*
X5196171Y-16139114D01*
X5339028Y-16139114D02*
X5339028Y-15939114D01*
X5339028Y-15967686D02*
X5353314Y-15953400D01*
X5381886Y-15939114D01*
X5424743Y-15939114D01*
X5453314Y-15953400D01*
X5467600Y-15981971D01*
X5467600Y-16139114D01*
X5467600Y-15981971D02*
X5481886Y-15953400D01*
X5510457Y-15939114D01*
X5553314Y-15939114D01*
X5581886Y-15953400D01*
X5596171Y-15981971D01*
X5596171Y-16139114D01*
X6181886Y-15824829D02*
X5924743Y-16210543D01*
X6567600Y-15839114D02*
X6596171Y-15839114D01*
X6624743Y-15853400D01*
X6639028Y-15867686D01*
X6653314Y-15896257D01*
X6667600Y-15953400D01*
X6667600Y-16024829D01*
X6653314Y-16081971D01*
X6639028Y-16110543D01*
X6624743Y-16124829D01*
X6596171Y-16139114D01*
X6567600Y-16139114D01*
X6539028Y-16124829D01*
X6524743Y-16110543D01*
X6510457Y-16081971D01*
X6496171Y-16024829D01*
X6496171Y-15953400D01*
X6510457Y-15896257D01*
X6524743Y-15867686D01*
X6539028Y-15853400D01*
X6567600Y-15839114D01*
X6796171Y-16110543D02*
X6810457Y-16124829D01*
X6796171Y-16139114D01*
X6781886Y-16124829D01*
X6796171Y-16110543D01*
X6796171Y-16139114D01*
X6996171Y-15839114D02*
X7024743Y-15839114D01*
X7053314Y-15853400D01*
X7067600Y-15867686D01*
X7081886Y-15896257D01*
X7096171Y-15953400D01*
X7096171Y-16024829D01*
X7081886Y-16081971D01*
X7067600Y-16110543D01*
X7053314Y-16124829D01*
X7024743Y-16139114D01*
X6996171Y-16139114D01*
X6967600Y-16124829D01*
X6953314Y-16110543D01*
X6939028Y-16081971D01*
X6924743Y-16024829D01*
X6924743Y-15953400D01*
X6939028Y-15896257D01*
X6953314Y-15867686D01*
X6967600Y-15853400D01*
X6996171Y-15839114D01*
X7353314Y-15939114D02*
X7353314Y-16139114D01*
X7281886Y-15824829D02*
X7210457Y-16039114D01*
X7396171Y-16039114D01*
X7481886Y-15839114D02*
X7681886Y-15839114D01*
X7553314Y-16139114D01*
X7781886Y-15839114D02*
X7781886Y-15896257D01*
X7896171Y-15839114D02*
X7896171Y-15896257D01*
X8339028Y-16253400D02*
X8324743Y-16239114D01*
X8296171Y-16196257D01*
X8281886Y-16167686D01*
X8267600Y-16124829D01*
X8253314Y-16053400D01*
X8253314Y-15996257D01*
X8267600Y-15924829D01*
X8281886Y-15881971D01*
X8296171Y-15853400D01*
X8324743Y-15810543D01*
X8339028Y-15796257D01*
X8581886Y-15839114D02*
X8524743Y-15839114D01*
X8496171Y-15853400D01*
X8481886Y-15867686D01*
X8453314Y-15910543D01*
X8439028Y-15967686D01*
X8439028Y-16081971D01*
X8453314Y-16110543D01*
X8467600Y-16124829D01*
X8496171Y-16139114D01*
X8553314Y-16139114D01*
X8581886Y-16124829D01*
X8596171Y-16110543D01*
X8610457Y-16081971D01*
X8610457Y-16010543D01*
X8596171Y-15981971D01*
X8581886Y-15967686D01*
X8553314Y-15953400D01*
X8496171Y-15953400D01*
X8467600Y-15967686D01*
X8453314Y-15981971D01*
X8439028Y-16010543D01*
X8967600Y-16139114D02*
X8967600Y-15839114D01*
X9096171Y-16139114D02*
X9096171Y-15981971D01*
X9081886Y-15953400D01*
X9053314Y-15939114D01*
X9010457Y-15939114D01*
X8981886Y-15953400D01*
X8967600Y-15967686D01*
X9281886Y-16139114D02*
X9253314Y-16124829D01*
X9239028Y-16110543D01*
X9224743Y-16081971D01*
X9224743Y-15996257D01*
X9239028Y-15967686D01*
X9253314Y-15953400D01*
X9281886Y-15939114D01*
X9324743Y-15939114D01*
X9353314Y-15953400D01*
X9367600Y-15967686D01*
X9381886Y-15996257D01*
X9381886Y-16081971D01*
X9367600Y-16110543D01*
X9353314Y-16124829D01*
X9324743Y-16139114D01*
X9281886Y-16139114D01*
X9553314Y-16139114D02*
X9524743Y-16124829D01*
X9510457Y-16096257D01*
X9510457Y-15839114D01*
X9781886Y-16124829D02*
X9753314Y-16139114D01*
X9696171Y-16139114D01*
X9667600Y-16124829D01*
X9653314Y-16096257D01*
X9653314Y-15981971D01*
X9667600Y-15953400D01*
X9696171Y-15939114D01*
X9753314Y-15939114D01*
X9781886Y-15953400D01*
X9796171Y-15981971D01*
X9796171Y-16010543D01*
X9653314Y-16039114D01*
X9910457Y-16124829D02*
X9939028Y-16139114D01*
X9996171Y-16139114D01*
X10024743Y-16124829D01*
X10039028Y-16096257D01*
X10039028Y-16081971D01*
X10024743Y-16053400D01*
X9996171Y-16039114D01*
X9953314Y-16039114D01*
X9924743Y-16024829D01*
X9910457Y-15996257D01*
X9910457Y-15981971D01*
X9924743Y-15953400D01*
X9953314Y-15939114D01*
X9996171Y-15939114D01*
X10024743Y-15953400D01*
X10139028Y-16253400D02*
X10153314Y-16239114D01*
X10181886Y-16196257D01*
X10196171Y-16167686D01*
X10210457Y-16124829D01*
X10224743Y-16053400D01*
X10224743Y-15996257D01*
X10210457Y-15924829D01*
X10196171Y-15881971D01*
X10181886Y-15853400D01*
X10153314Y-15810543D01*
X10139028Y-15796257D01*
X3532600Y-16339400D02*
X3652600Y-16459400D01*
X3652600Y-16339400D02*
X3532600Y-16459400D01*
X3652600Y-16399400D02*
G75*
G03X3652600Y-16399400I-60000J0D01*
G01*
X4096171Y-16535114D02*
X3924743Y-16535114D01*
X4010457Y-16535114D02*
X4010457Y-16235114D01*
X3981886Y-16277971D01*
X3953314Y-16306543D01*
X3924743Y-16320829D01*
X4224743Y-16506543D02*
X4239028Y-16520829D01*
X4224743Y-16535114D01*
X4210457Y-16520829D01*
X4224743Y-16506543D01*
X4224743Y-16535114D01*
X4353314Y-16263686D02*
X4367600Y-16249400D01*
X4396171Y-16235114D01*
X4467600Y-16235114D01*
X4496171Y-16249400D01*
X4510457Y-16263686D01*
X4524743Y-16292257D01*
X4524743Y-16320829D01*
X4510457Y-16363686D01*
X4339028Y-16535114D01*
X4524743Y-16535114D01*
X4710457Y-16235114D02*
X4739028Y-16235114D01*
X4767600Y-16249400D01*
X4781886Y-16263686D01*
X4796171Y-16292257D01*
X4810457Y-16349400D01*
X4810457Y-16420829D01*
X4796171Y-16477971D01*
X4781886Y-16506543D01*
X4767600Y-16520829D01*
X4739028Y-16535114D01*
X4710457Y-16535114D01*
X4681886Y-16520829D01*
X4667600Y-16506543D01*
X4653314Y-16477971D01*
X4639028Y-16420829D01*
X4639028Y-16349400D01*
X4653314Y-16292257D01*
X4667600Y-16263686D01*
X4681886Y-16249400D01*
X4710457Y-16235114D01*
X4939028Y-16535114D02*
X4939028Y-16335114D01*
X4939028Y-16363686D02*
X4953314Y-16349400D01*
X4981886Y-16335114D01*
X5024743Y-16335114D01*
X5053314Y-16349400D01*
X5067600Y-16377971D01*
X5067600Y-16535114D01*
X5067600Y-16377971D02*
X5081886Y-16349400D01*
X5110457Y-16335114D01*
X5153314Y-16335114D01*
X5181886Y-16349400D01*
X5196171Y-16377971D01*
X5196171Y-16535114D01*
X5339028Y-16535114D02*
X5339028Y-16335114D01*
X5339028Y-16363686D02*
X5353314Y-16349400D01*
X5381886Y-16335114D01*
X5424743Y-16335114D01*
X5453314Y-16349400D01*
X5467600Y-16377971D01*
X5467600Y-16535114D01*
X5467600Y-16377971D02*
X5481886Y-16349400D01*
X5510457Y-16335114D01*
X5553314Y-16335114D01*
X5581886Y-16349400D01*
X5596171Y-16377971D01*
X5596171Y-16535114D01*
X6181886Y-16220829D02*
X5924743Y-16606543D01*
X6567600Y-16235114D02*
X6596171Y-16235114D01*
X6624743Y-16249400D01*
X6639028Y-16263686D01*
X6653314Y-16292257D01*
X6667600Y-16349400D01*
X6667600Y-16420829D01*
X6653314Y-16477971D01*
X6639028Y-16506543D01*
X6624743Y-16520829D01*
X6596171Y-16535114D01*
X6567600Y-16535114D01*
X6539028Y-16520829D01*
X6524743Y-16506543D01*
X6510457Y-16477971D01*
X6496171Y-16420829D01*
X6496171Y-16349400D01*
X6510457Y-16292257D01*
X6524743Y-16263686D01*
X6539028Y-16249400D01*
X6567600Y-16235114D01*
X6796171Y-16506543D02*
X6810457Y-16520829D01*
X6796171Y-16535114D01*
X6781886Y-16520829D01*
X6796171Y-16506543D01*
X6796171Y-16535114D01*
X6996171Y-16235114D02*
X7024743Y-16235114D01*
X7053314Y-16249400D01*
X7067600Y-16263686D01*
X7081886Y-16292257D01*
X7096171Y-16349400D01*
X7096171Y-16420829D01*
X7081886Y-16477971D01*
X7067600Y-16506543D01*
X7053314Y-16520829D01*
X7024743Y-16535114D01*
X6996171Y-16535114D01*
X6967600Y-16520829D01*
X6953314Y-16506543D01*
X6939028Y-16477971D01*
X6924743Y-16420829D01*
X6924743Y-16349400D01*
X6939028Y-16292257D01*
X6953314Y-16263686D01*
X6967600Y-16249400D01*
X6996171Y-16235114D01*
X7353314Y-16335114D02*
X7353314Y-16535114D01*
X7281886Y-16220829D02*
X7210457Y-16435114D01*
X7396171Y-16435114D01*
X7481886Y-16235114D02*
X7681886Y-16235114D01*
X7553314Y-16535114D01*
X7781886Y-16235114D02*
X7781886Y-16292257D01*
X7896171Y-16235114D02*
X7896171Y-16292257D01*
X8339028Y-16649400D02*
X8324743Y-16635114D01*
X8296171Y-16592257D01*
X8281886Y-16563686D01*
X8267600Y-16520829D01*
X8253314Y-16449400D01*
X8253314Y-16392257D01*
X8267600Y-16320829D01*
X8281886Y-16277971D01*
X8296171Y-16249400D01*
X8324743Y-16206543D01*
X8339028Y-16192257D01*
X8610457Y-16535114D02*
X8439028Y-16535114D01*
X8524743Y-16535114D02*
X8524743Y-16235114D01*
X8496171Y-16277971D01*
X8467600Y-16306543D01*
X8439028Y-16320829D01*
X8867600Y-16235114D02*
X8810457Y-16235114D01*
X8781886Y-16249400D01*
X8767600Y-16263686D01*
X8739028Y-16306543D01*
X8724743Y-16363686D01*
X8724743Y-16477971D01*
X8739028Y-16506543D01*
X8753314Y-16520829D01*
X8781886Y-16535114D01*
X8839028Y-16535114D01*
X8867600Y-16520829D01*
X8881886Y-16506543D01*
X8896171Y-16477971D01*
X8896171Y-16406543D01*
X8881886Y-16377971D01*
X8867600Y-16363686D01*
X8839028Y-16349400D01*
X8781886Y-16349400D01*
X8753314Y-16363686D01*
X8739028Y-16377971D01*
X8724743Y-16406543D01*
X9253314Y-16535114D02*
X9253314Y-16235114D01*
X9381886Y-16535114D02*
X9381886Y-16377971D01*
X9367600Y-16349400D01*
X9339028Y-16335114D01*
X9296171Y-16335114D01*
X9267600Y-16349400D01*
X9253314Y-16363686D01*
X9567600Y-16535114D02*
X9539028Y-16520829D01*
X9524743Y-16506543D01*
X9510457Y-16477971D01*
X9510457Y-16392257D01*
X9524743Y-16363686D01*
X9539028Y-16349400D01*
X9567600Y-16335114D01*
X9610457Y-16335114D01*
X9639028Y-16349400D01*
X9653314Y-16363686D01*
X9667600Y-16392257D01*
X9667600Y-16477971D01*
X9653314Y-16506543D01*
X9639028Y-16520829D01*
X9610457Y-16535114D01*
X9567600Y-16535114D01*
X9839028Y-16535114D02*
X9810457Y-16520829D01*
X9796171Y-16492257D01*
X9796171Y-16235114D01*
X10067600Y-16520829D02*
X10039028Y-16535114D01*
X9981886Y-16535114D01*
X9953314Y-16520829D01*
X9939028Y-16492257D01*
X9939028Y-16377971D01*
X9953314Y-16349400D01*
X9981886Y-16335114D01*
X10039028Y-16335114D01*
X10067600Y-16349400D01*
X10081886Y-16377971D01*
X10081886Y-16406543D01*
X9939028Y-16435114D01*
X10196171Y-16520829D02*
X10224743Y-16535114D01*
X10281886Y-16535114D01*
X10310457Y-16520829D01*
X10324743Y-16492257D01*
X10324743Y-16477971D01*
X10310457Y-16449400D01*
X10281886Y-16435114D01*
X10239028Y-16435114D01*
X10210457Y-16420829D01*
X10196171Y-16392257D01*
X10196171Y-16377971D01*
X10210457Y-16349400D01*
X10239028Y-16335114D01*
X10281886Y-16335114D01*
X10310457Y-16349400D01*
X10424743Y-16649400D02*
X10439028Y-16635114D01*
X10467600Y-16592257D01*
X10481886Y-16563686D01*
X10496171Y-16520829D01*
X10510457Y-16449400D01*
X10510457Y-16392257D01*
X10496171Y-16320829D01*
X10481886Y-16277971D01*
X10467600Y-16249400D01*
X10439028Y-16206543D01*
X10424743Y-16192257D01*
X3522600Y-16730400D02*
X3652600Y-16860400D01*
X3652600Y-16730400D02*
X3522600Y-16860400D01*
X3587600Y-16730400D02*
X3587600Y-16860400D01*
X3522600Y-16795400D02*
X3652600Y-16795400D01*
X4096171Y-16931114D02*
X3924743Y-16931114D01*
X4010457Y-16931114D02*
X4010457Y-16631114D01*
X3981886Y-16673971D01*
X3953314Y-16702543D01*
X3924743Y-16716829D01*
X4224743Y-16902543D02*
X4239028Y-16916829D01*
X4224743Y-16931114D01*
X4210457Y-16916829D01*
X4224743Y-16902543D01*
X4224743Y-16931114D01*
X4339028Y-16631114D02*
X4524743Y-16631114D01*
X4424743Y-16745400D01*
X4467600Y-16745400D01*
X4496171Y-16759686D01*
X4510457Y-16773971D01*
X4524743Y-16802543D01*
X4524743Y-16873972D01*
X4510457Y-16902543D01*
X4496171Y-16916829D01*
X4467600Y-16931114D01*
X4381886Y-16931114D01*
X4353314Y-16916829D01*
X4339028Y-16902543D01*
X4710457Y-16631114D02*
X4739028Y-16631114D01*
X4767600Y-16645400D01*
X4781886Y-16659686D01*
X4796171Y-16688257D01*
X4810457Y-16745400D01*
X4810457Y-16816829D01*
X4796171Y-16873972D01*
X4781886Y-16902543D01*
X4767600Y-16916829D01*
X4739028Y-16931114D01*
X4710457Y-16931114D01*
X4681886Y-16916829D01*
X4667600Y-16902543D01*
X4653314Y-16873972D01*
X4639028Y-16816829D01*
X4639028Y-16745400D01*
X4653314Y-16688257D01*
X4667600Y-16659686D01*
X4681886Y-16645400D01*
X4710457Y-16631114D01*
X4939028Y-16931114D02*
X4939028Y-16731114D01*
X4939028Y-16759686D02*
X4953314Y-16745400D01*
X4981886Y-16731114D01*
X5024743Y-16731114D01*
X5053314Y-16745400D01*
X5067600Y-16773971D01*
X5067600Y-16931114D01*
X5067600Y-16773971D02*
X5081886Y-16745400D01*
X5110457Y-16731114D01*
X5153314Y-16731114D01*
X5181886Y-16745400D01*
X5196171Y-16773971D01*
X5196171Y-16931114D01*
X5339028Y-16931114D02*
X5339028Y-16731114D01*
X5339028Y-16759686D02*
X5353314Y-16745400D01*
X5381886Y-16731114D01*
X5424743Y-16731114D01*
X5453314Y-16745400D01*
X5467600Y-16773971D01*
X5467600Y-16931114D01*
X5467600Y-16773971D02*
X5481886Y-16745400D01*
X5510457Y-16731114D01*
X5553314Y-16731114D01*
X5581886Y-16745400D01*
X5596171Y-16773971D01*
X5596171Y-16931114D01*
X6181886Y-16616829D02*
X5924743Y-17002543D01*
X6567600Y-16631114D02*
X6596171Y-16631114D01*
X6624743Y-16645400D01*
X6639028Y-16659686D01*
X6653314Y-16688257D01*
X6667600Y-16745400D01*
X6667600Y-16816829D01*
X6653314Y-16873972D01*
X6639028Y-16902543D01*
X6624743Y-16916829D01*
X6596171Y-16931114D01*
X6567600Y-16931114D01*
X6539028Y-16916829D01*
X6524743Y-16902543D01*
X6510457Y-16873972D01*
X6496171Y-16816829D01*
X6496171Y-16745400D01*
X6510457Y-16688257D01*
X6524743Y-16659686D01*
X6539028Y-16645400D01*
X6567600Y-16631114D01*
X6796171Y-16902543D02*
X6810457Y-16916829D01*
X6796171Y-16931114D01*
X6781886Y-16916829D01*
X6796171Y-16902543D01*
X6796171Y-16931114D01*
X6996171Y-16631114D02*
X7024743Y-16631114D01*
X7053314Y-16645400D01*
X7067600Y-16659686D01*
X7081886Y-16688257D01*
X7096171Y-16745400D01*
X7096171Y-16816829D01*
X7081886Y-16873972D01*
X7067600Y-16902543D01*
X7053314Y-16916829D01*
X7024743Y-16931114D01*
X6996171Y-16931114D01*
X6967600Y-16916829D01*
X6953314Y-16902543D01*
X6939028Y-16873972D01*
X6924743Y-16816829D01*
X6924743Y-16745400D01*
X6939028Y-16688257D01*
X6953314Y-16659686D01*
X6967600Y-16645400D01*
X6996171Y-16631114D01*
X7367600Y-16631114D02*
X7224743Y-16631114D01*
X7210457Y-16773971D01*
X7224743Y-16759686D01*
X7253314Y-16745400D01*
X7324743Y-16745400D01*
X7353314Y-16759686D01*
X7367600Y-16773971D01*
X7381886Y-16802543D01*
X7381886Y-16873972D01*
X7367600Y-16902543D01*
X7353314Y-16916829D01*
X7324743Y-16931114D01*
X7253314Y-16931114D01*
X7224743Y-16916829D01*
X7210457Y-16902543D01*
X7667600Y-16931114D02*
X7496171Y-16931114D01*
X7581886Y-16931114D02*
X7581886Y-16631114D01*
X7553314Y-16673971D01*
X7524743Y-16702543D01*
X7496171Y-16716829D01*
X7781886Y-16631114D02*
X7781886Y-16688257D01*
X7896171Y-16631114D02*
X7896171Y-16688257D01*
X8339028Y-17045400D02*
X8324743Y-17031114D01*
X8296171Y-16988257D01*
X8281886Y-16959686D01*
X8267600Y-16916829D01*
X8253314Y-16845400D01*
X8253314Y-16788257D01*
X8267600Y-16716829D01*
X8281886Y-16673971D01*
X8296171Y-16645400D01*
X8324743Y-16602543D01*
X8339028Y-16588257D01*
X8496171Y-16759686D02*
X8467600Y-16745400D01*
X8453314Y-16731114D01*
X8439028Y-16702543D01*
X8439028Y-16688257D01*
X8453314Y-16659686D01*
X8467600Y-16645400D01*
X8496171Y-16631114D01*
X8553314Y-16631114D01*
X8581886Y-16645400D01*
X8596171Y-16659686D01*
X8610457Y-16688257D01*
X8610457Y-16702543D01*
X8596171Y-16731114D01*
X8581886Y-16745400D01*
X8553314Y-16759686D01*
X8496171Y-16759686D01*
X8467600Y-16773971D01*
X8453314Y-16788257D01*
X8439028Y-16816829D01*
X8439028Y-16873972D01*
X8453314Y-16902543D01*
X8467600Y-16916829D01*
X8496171Y-16931114D01*
X8553314Y-16931114D01*
X8581886Y-16916829D01*
X8596171Y-16902543D01*
X8610457Y-16873972D01*
X8610457Y-16816829D01*
X8596171Y-16788257D01*
X8581886Y-16773971D01*
X8553314Y-16759686D01*
X8967600Y-16931114D02*
X8967600Y-16631114D01*
X9096171Y-16931114D02*
X9096171Y-16773971D01*
X9081886Y-16745400D01*
X9053314Y-16731114D01*
X9010457Y-16731114D01*
X8981886Y-16745400D01*
X8967600Y-16759686D01*
X9281886Y-16931114D02*
X9253314Y-16916829D01*
X9239028Y-16902543D01*
X9224743Y-16873972D01*
X9224743Y-16788257D01*
X9239028Y-16759686D01*
X9253314Y-16745400D01*
X9281886Y-16731114D01*
X9324743Y-16731114D01*
X9353314Y-16745400D01*
X9367600Y-16759686D01*
X9381886Y-16788257D01*
X9381886Y-16873972D01*
X9367600Y-16902543D01*
X9353314Y-16916829D01*
X9324743Y-16931114D01*
X9281886Y-16931114D01*
X9553314Y-16931114D02*
X9524743Y-16916829D01*
X9510457Y-16888257D01*
X9510457Y-16631114D01*
X9781886Y-16916829D02*
X9753314Y-16931114D01*
X9696171Y-16931114D01*
X9667600Y-16916829D01*
X9653314Y-16888257D01*
X9653314Y-16773971D01*
X9667600Y-16745400D01*
X9696171Y-16731114D01*
X9753314Y-16731114D01*
X9781886Y-16745400D01*
X9796171Y-16773971D01*
X9796171Y-16802543D01*
X9653314Y-16831114D01*
X9910457Y-16916829D02*
X9939028Y-16931114D01*
X9996171Y-16931114D01*
X10024743Y-16916829D01*
X10039028Y-16888257D01*
X10039028Y-16873972D01*
X10024743Y-16845400D01*
X9996171Y-16831114D01*
X9953314Y-16831114D01*
X9924743Y-16816829D01*
X9910457Y-16788257D01*
X9910457Y-16773971D01*
X9924743Y-16745400D01*
X9953314Y-16731114D01*
X9996171Y-16731114D01*
X10024743Y-16745400D01*
X10139028Y-17045400D02*
X10153314Y-17031114D01*
X10181886Y-16988257D01*
X10196171Y-16959686D01*
X10210457Y-16916829D01*
X10224743Y-16845400D01*
X10224743Y-16788257D01*
X10210457Y-16716829D01*
X10196171Y-16673971D01*
X10181886Y-16645400D01*
X10153314Y-16602543D01*
X10139028Y-16588257D01*
X3500200Y-17115200D02*
X3652600Y-17267600D01*
X3652600Y-17115200D02*
X3500200Y-17267600D01*
X3630282Y-17245282D02*
X3630282Y-17137518D01*
X3522518Y-17137518D01*
X3522518Y-17245282D01*
X3630282Y-17245282D01*
X4096171Y-17327114D02*
X3924743Y-17327114D01*
X4010457Y-17327114D02*
X4010457Y-17027114D01*
X3981886Y-17069972D01*
X3953314Y-17098543D01*
X3924743Y-17112829D01*
X4224743Y-17298543D02*
X4239028Y-17312829D01*
X4224743Y-17327114D01*
X4210457Y-17312829D01*
X4224743Y-17298543D01*
X4224743Y-17327114D01*
X4510457Y-17027114D02*
X4367600Y-17027114D01*
X4353314Y-17169972D01*
X4367600Y-17155686D01*
X4396171Y-17141400D01*
X4467600Y-17141400D01*
X4496171Y-17155686D01*
X4510457Y-17169972D01*
X4524743Y-17198543D01*
X4524743Y-17269972D01*
X4510457Y-17298543D01*
X4496171Y-17312829D01*
X4467600Y-17327114D01*
X4396171Y-17327114D01*
X4367600Y-17312829D01*
X4353314Y-17298543D01*
X4639028Y-17055686D02*
X4653314Y-17041400D01*
X4681886Y-17027114D01*
X4753314Y-17027114D01*
X4781886Y-17041400D01*
X4796171Y-17055686D01*
X4810457Y-17084257D01*
X4810457Y-17112829D01*
X4796171Y-17155686D01*
X4624743Y-17327114D01*
X4810457Y-17327114D01*
X4939028Y-17327114D02*
X4939028Y-17127114D01*
X4939028Y-17155686D02*
X4953314Y-17141400D01*
X4981886Y-17127114D01*
X5024743Y-17127114D01*
X5053314Y-17141400D01*
X5067600Y-17169972D01*
X5067600Y-17327114D01*
X5067600Y-17169972D02*
X5081886Y-17141400D01*
X5110457Y-17127114D01*
X5153314Y-17127114D01*
X5181886Y-17141400D01*
X5196171Y-17169972D01*
X5196171Y-17327114D01*
X5339028Y-17327114D02*
X5339028Y-17127114D01*
X5339028Y-17155686D02*
X5353314Y-17141400D01*
X5381886Y-17127114D01*
X5424743Y-17127114D01*
X5453314Y-17141400D01*
X5467600Y-17169972D01*
X5467600Y-17327114D01*
X5467600Y-17169972D02*
X5481886Y-17141400D01*
X5510457Y-17127114D01*
X5553314Y-17127114D01*
X5581886Y-17141400D01*
X5596171Y-17169972D01*
X5596171Y-17327114D01*
X6181886Y-17012829D02*
X5924743Y-17398543D01*
X6567600Y-17027114D02*
X6596171Y-17027114D01*
X6624743Y-17041400D01*
X6639028Y-17055686D01*
X6653314Y-17084257D01*
X6667600Y-17141400D01*
X6667600Y-17212829D01*
X6653314Y-17269972D01*
X6639028Y-17298543D01*
X6624743Y-17312829D01*
X6596171Y-17327114D01*
X6567600Y-17327114D01*
X6539028Y-17312829D01*
X6524743Y-17298543D01*
X6510457Y-17269972D01*
X6496171Y-17212829D01*
X6496171Y-17141400D01*
X6510457Y-17084257D01*
X6524743Y-17055686D01*
X6539028Y-17041400D01*
X6567600Y-17027114D01*
X6796171Y-17298543D02*
X6810457Y-17312829D01*
X6796171Y-17327114D01*
X6781886Y-17312829D01*
X6796171Y-17298543D01*
X6796171Y-17327114D01*
X6996171Y-17027114D02*
X7024743Y-17027114D01*
X7053314Y-17041400D01*
X7067600Y-17055686D01*
X7081886Y-17084257D01*
X7096171Y-17141400D01*
X7096171Y-17212829D01*
X7081886Y-17269972D01*
X7067600Y-17298543D01*
X7053314Y-17312829D01*
X7024743Y-17327114D01*
X6996171Y-17327114D01*
X6967600Y-17312829D01*
X6953314Y-17298543D01*
X6939028Y-17269972D01*
X6924743Y-17212829D01*
X6924743Y-17141400D01*
X6939028Y-17084257D01*
X6953314Y-17055686D01*
X6967600Y-17041400D01*
X6996171Y-17027114D01*
X7353314Y-17027114D02*
X7296171Y-17027114D01*
X7267600Y-17041400D01*
X7253314Y-17055686D01*
X7224743Y-17098543D01*
X7210457Y-17155686D01*
X7210457Y-17269972D01*
X7224743Y-17298543D01*
X7239028Y-17312829D01*
X7267600Y-17327114D01*
X7324743Y-17327114D01*
X7353314Y-17312829D01*
X7367600Y-17298543D01*
X7381886Y-17269972D01*
X7381886Y-17198543D01*
X7367600Y-17169972D01*
X7353314Y-17155686D01*
X7324743Y-17141400D01*
X7267600Y-17141400D01*
X7239028Y-17155686D01*
X7224743Y-17169972D01*
X7210457Y-17198543D01*
X7567600Y-17027114D02*
X7596171Y-17027114D01*
X7624743Y-17041400D01*
X7639028Y-17055686D01*
X7653314Y-17084257D01*
X7667600Y-17141400D01*
X7667600Y-17212829D01*
X7653314Y-17269972D01*
X7639028Y-17298543D01*
X7624743Y-17312829D01*
X7596171Y-17327114D01*
X7567600Y-17327114D01*
X7539028Y-17312829D01*
X7524743Y-17298543D01*
X7510457Y-17269972D01*
X7496171Y-17212829D01*
X7496171Y-17141400D01*
X7510457Y-17084257D01*
X7524743Y-17055686D01*
X7539028Y-17041400D01*
X7567600Y-17027114D01*
X7781886Y-17027114D02*
X7781886Y-17084257D01*
X7896171Y-17027114D02*
X7896171Y-17084257D01*
X8339028Y-17441400D02*
X8324743Y-17427114D01*
X8296171Y-17384257D01*
X8281886Y-17355686D01*
X8267600Y-17312829D01*
X8253314Y-17241400D01*
X8253314Y-17184257D01*
X8267600Y-17112829D01*
X8281886Y-17069972D01*
X8296171Y-17041400D01*
X8324743Y-16998543D01*
X8339028Y-16984257D01*
X8439028Y-17055686D02*
X8453314Y-17041400D01*
X8481886Y-17027114D01*
X8553314Y-17027114D01*
X8581886Y-17041400D01*
X8596171Y-17055686D01*
X8610457Y-17084257D01*
X8610457Y-17112829D01*
X8596171Y-17155686D01*
X8424743Y-17327114D01*
X8610457Y-17327114D01*
X8967600Y-17327114D02*
X8967600Y-17027114D01*
X9096171Y-17327114D02*
X9096171Y-17169972D01*
X9081886Y-17141400D01*
X9053314Y-17127114D01*
X9010457Y-17127114D01*
X8981886Y-17141400D01*
X8967600Y-17155686D01*
X9281886Y-17327114D02*
X9253314Y-17312829D01*
X9239028Y-17298543D01*
X9224743Y-17269972D01*
X9224743Y-17184257D01*
X9239028Y-17155686D01*
X9253314Y-17141400D01*
X9281886Y-17127114D01*
X9324743Y-17127114D01*
X9353314Y-17141400D01*
X9367600Y-17155686D01*
X9381886Y-17184257D01*
X9381886Y-17269972D01*
X9367600Y-17298543D01*
X9353314Y-17312829D01*
X9324743Y-17327114D01*
X9281886Y-17327114D01*
X9553314Y-17327114D02*
X9524743Y-17312829D01*
X9510457Y-17284257D01*
X9510457Y-17027114D01*
X9781886Y-17312829D02*
X9753314Y-17327114D01*
X9696171Y-17327114D01*
X9667600Y-17312829D01*
X9653314Y-17284257D01*
X9653314Y-17169972D01*
X9667600Y-17141400D01*
X9696171Y-17127114D01*
X9753314Y-17127114D01*
X9781886Y-17141400D01*
X9796171Y-17169972D01*
X9796171Y-17198543D01*
X9653314Y-17227114D01*
X9910457Y-17312829D02*
X9939028Y-17327114D01*
X9996171Y-17327114D01*
X10024743Y-17312829D01*
X10039028Y-17284257D01*
X10039028Y-17269972D01*
X10024743Y-17241400D01*
X9996171Y-17227114D01*
X9953314Y-17227114D01*
X9924743Y-17212829D01*
X9910457Y-17184257D01*
X9910457Y-17169972D01*
X9924743Y-17141400D01*
X9953314Y-17127114D01*
X9996171Y-17127114D01*
X10024743Y-17141400D01*
X10139028Y-17441400D02*
X10153314Y-17427114D01*
X10181886Y-17384257D01*
X10196171Y-17355686D01*
X10210457Y-17312829D01*
X10224743Y-17241400D01*
X10224743Y-17184257D01*
X10210457Y-17112829D01*
X10196171Y-17069972D01*
X10181886Y-17041400D01*
X10153314Y-16998543D01*
X10139028Y-16984257D01*
X3395600Y-17458900D02*
X3652600Y-17715900D01*
X3652600Y-17458900D02*
X3395600Y-17715900D01*
X3524100Y-17715900D02*
X3652600Y-17587400D01*
X3524100Y-17458900D01*
X3395600Y-17587400D01*
X3524100Y-17715900D01*
X3924743Y-17451686D02*
X3939028Y-17437400D01*
X3967600Y-17423114D01*
X4039028Y-17423114D01*
X4067600Y-17437400D01*
X4081886Y-17451686D01*
X4096171Y-17480257D01*
X4096171Y-17508829D01*
X4081886Y-17551686D01*
X3910457Y-17723114D01*
X4096171Y-17723114D01*
X4224743Y-17694543D02*
X4239028Y-17708829D01*
X4224743Y-17723114D01*
X4210457Y-17708829D01*
X4224743Y-17694543D01*
X4224743Y-17723114D01*
X4510457Y-17423114D02*
X4367600Y-17423114D01*
X4353314Y-17565972D01*
X4367600Y-17551686D01*
X4396171Y-17537400D01*
X4467600Y-17537400D01*
X4496171Y-17551686D01*
X4510457Y-17565972D01*
X4524743Y-17594543D01*
X4524743Y-17665972D01*
X4510457Y-17694543D01*
X4496171Y-17708829D01*
X4467600Y-17723114D01*
X4396171Y-17723114D01*
X4367600Y-17708829D01*
X4353314Y-17694543D01*
X4624743Y-17423114D02*
X4824743Y-17423114D01*
X4696171Y-17723114D01*
X4939028Y-17723114D02*
X4939028Y-17523114D01*
X4939028Y-17551686D02*
X4953314Y-17537400D01*
X4981886Y-17523114D01*
X5024743Y-17523114D01*
X5053314Y-17537400D01*
X5067600Y-17565972D01*
X5067600Y-17723114D01*
X5067600Y-17565972D02*
X5081886Y-17537400D01*
X5110457Y-17523114D01*
X5153314Y-17523114D01*
X5181886Y-17537400D01*
X5196171Y-17565972D01*
X5196171Y-17723114D01*
X5339028Y-17723114D02*
X5339028Y-17523114D01*
X5339028Y-17551686D02*
X5353314Y-17537400D01*
X5381886Y-17523114D01*
X5424743Y-17523114D01*
X5453314Y-17537400D01*
X5467600Y-17565972D01*
X5467600Y-17723114D01*
X5467600Y-17565972D02*
X5481886Y-17537400D01*
X5510457Y-17523114D01*
X5553314Y-17523114D01*
X5581886Y-17537400D01*
X5596171Y-17565972D01*
X5596171Y-17723114D01*
X6181886Y-17408829D02*
X5924743Y-17794543D01*
X6567600Y-17423114D02*
X6596171Y-17423114D01*
X6624743Y-17437400D01*
X6639028Y-17451686D01*
X6653314Y-17480257D01*
X6667600Y-17537400D01*
X6667600Y-17608829D01*
X6653314Y-17665972D01*
X6639028Y-17694543D01*
X6624743Y-17708829D01*
X6596171Y-17723114D01*
X6567600Y-17723114D01*
X6539028Y-17708829D01*
X6524743Y-17694543D01*
X6510457Y-17665972D01*
X6496171Y-17608829D01*
X6496171Y-17537400D01*
X6510457Y-17480257D01*
X6524743Y-17451686D01*
X6539028Y-17437400D01*
X6567600Y-17423114D01*
X6796171Y-17694543D02*
X6810457Y-17708829D01*
X6796171Y-17723114D01*
X6781886Y-17708829D01*
X6796171Y-17694543D01*
X6796171Y-17723114D01*
X7096171Y-17723114D02*
X6924743Y-17723114D01*
X7010457Y-17723114D02*
X7010457Y-17423114D01*
X6981886Y-17465972D01*
X6953314Y-17494543D01*
X6924743Y-17508829D01*
X7281886Y-17423114D02*
X7310457Y-17423114D01*
X7339028Y-17437400D01*
X7353314Y-17451686D01*
X7367600Y-17480257D01*
X7381886Y-17537400D01*
X7381886Y-17608829D01*
X7367600Y-17665972D01*
X7353314Y-17694543D01*
X7339028Y-17708829D01*
X7310457Y-17723114D01*
X7281886Y-17723114D01*
X7253314Y-17708829D01*
X7239028Y-17694543D01*
X7224743Y-17665972D01*
X7210457Y-17608829D01*
X7210457Y-17537400D01*
X7224743Y-17480257D01*
X7239028Y-17451686D01*
X7253314Y-17437400D01*
X7281886Y-17423114D01*
X7667600Y-17723114D02*
X7496171Y-17723114D01*
X7581886Y-17723114D02*
X7581886Y-17423114D01*
X7553314Y-17465972D01*
X7524743Y-17494543D01*
X7496171Y-17508829D01*
X7781886Y-17423114D02*
X7781886Y-17480257D01*
X7896171Y-17423114D02*
X7896171Y-17480257D01*
X8339028Y-17837400D02*
X8324743Y-17823114D01*
X8296171Y-17780257D01*
X8281886Y-17751686D01*
X8267600Y-17708829D01*
X8253314Y-17637400D01*
X8253314Y-17580257D01*
X8267600Y-17508829D01*
X8281886Y-17465972D01*
X8296171Y-17437400D01*
X8324743Y-17394543D01*
X8339028Y-17380257D01*
X8610457Y-17723114D02*
X8439028Y-17723114D01*
X8524743Y-17723114D02*
X8524743Y-17423114D01*
X8496171Y-17465972D01*
X8467600Y-17494543D01*
X8439028Y-17508829D01*
X8781886Y-17551686D02*
X8753314Y-17537400D01*
X8739028Y-17523114D01*
X8724743Y-17494543D01*
X8724743Y-17480257D01*
X8739028Y-17451686D01*
X8753314Y-17437400D01*
X8781886Y-17423114D01*
X8839028Y-17423114D01*
X8867600Y-17437400D01*
X8881886Y-17451686D01*
X8896171Y-17480257D01*
X8896171Y-17494543D01*
X8881886Y-17523114D01*
X8867600Y-17537400D01*
X8839028Y-17551686D01*
X8781886Y-17551686D01*
X8753314Y-17565972D01*
X8739028Y-17580257D01*
X8724743Y-17608829D01*
X8724743Y-17665972D01*
X8739028Y-17694543D01*
X8753314Y-17708829D01*
X8781886Y-17723114D01*
X8839028Y-17723114D01*
X8867600Y-17708829D01*
X8881886Y-17694543D01*
X8896171Y-17665972D01*
X8896171Y-17608829D01*
X8881886Y-17580257D01*
X8867600Y-17565972D01*
X8839028Y-17551686D01*
X9253314Y-17723114D02*
X9253314Y-17423114D01*
X9381886Y-17723114D02*
X9381886Y-17565972D01*
X9367600Y-17537400D01*
X9339028Y-17523114D01*
X9296171Y-17523114D01*
X9267600Y-17537400D01*
X9253314Y-17551686D01*
X9567600Y-17723114D02*
X9539028Y-17708829D01*
X9524743Y-17694543D01*
X9510457Y-17665972D01*
X9510457Y-17580257D01*
X9524743Y-17551686D01*
X9539028Y-17537400D01*
X9567600Y-17523114D01*
X9610457Y-17523114D01*
X9639028Y-17537400D01*
X9653314Y-17551686D01*
X9667600Y-17580257D01*
X9667600Y-17665972D01*
X9653314Y-17694543D01*
X9639028Y-17708829D01*
X9610457Y-17723114D01*
X9567600Y-17723114D01*
X9839028Y-17723114D02*
X9810457Y-17708829D01*
X9796171Y-17680257D01*
X9796171Y-17423114D01*
X10067600Y-17708829D02*
X10039028Y-17723114D01*
X9981886Y-17723114D01*
X9953314Y-17708829D01*
X9939028Y-17680257D01*
X9939028Y-17565972D01*
X9953314Y-17537400D01*
X9981886Y-17523114D01*
X10039028Y-17523114D01*
X10067600Y-17537400D01*
X10081886Y-17565972D01*
X10081886Y-17594543D01*
X9939028Y-17623114D01*
X10196171Y-17708829D02*
X10224743Y-17723114D01*
X10281886Y-17723114D01*
X10310457Y-17708829D01*
X10324743Y-17680257D01*
X10324743Y-17665972D01*
X10310457Y-17637400D01*
X10281886Y-17623114D01*
X10239028Y-17623114D01*
X10210457Y-17608829D01*
X10196171Y-17580257D01*
X10196171Y-17565972D01*
X10210457Y-17537400D01*
X10239028Y-17523114D01*
X10281886Y-17523114D01*
X10310457Y-17537400D01*
X10424743Y-17837400D02*
X10439028Y-17823114D01*
X10467600Y-17780257D01*
X10481886Y-17751686D01*
X10496171Y-17708829D01*
X10510457Y-17637400D01*
X10510457Y-17580257D01*
X10496171Y-17508829D01*
X10481886Y-17465972D01*
X10467600Y-17437400D01*
X10439028Y-17394543D01*
X10424743Y-17380257D01*
X3437600Y-17768400D02*
X3437600Y-18198400D01*
X3222600Y-17983400D02*
X3652600Y-17983400D01*
X3652600Y-17983400D02*
G75*
G03X3652600Y-17983400I-215000J0D01*
G01*
X4067600Y-17919114D02*
X4067600Y-18119114D01*
X3996171Y-17804829D02*
X3924743Y-18019114D01*
X4110457Y-18019114D01*
X4224743Y-18090543D02*
X4239028Y-18104829D01*
X4224743Y-18119114D01*
X4210457Y-18104829D01*
X4224743Y-18090543D01*
X4224743Y-18119114D01*
X4339028Y-17819114D02*
X4524743Y-17819114D01*
X4424743Y-17933400D01*
X4467600Y-17933400D01*
X4496171Y-17947686D01*
X4510457Y-17961972D01*
X4524743Y-17990543D01*
X4524743Y-18061972D01*
X4510457Y-18090543D01*
X4496171Y-18104829D01*
X4467600Y-18119114D01*
X4381886Y-18119114D01*
X4353314Y-18104829D01*
X4339028Y-18090543D01*
X4710457Y-17819114D02*
X4739028Y-17819114D01*
X4767600Y-17833400D01*
X4781886Y-17847686D01*
X4796171Y-17876257D01*
X4810457Y-17933400D01*
X4810457Y-18004829D01*
X4796171Y-18061972D01*
X4781886Y-18090543D01*
X4767600Y-18104829D01*
X4739028Y-18119114D01*
X4710457Y-18119114D01*
X4681886Y-18104829D01*
X4667600Y-18090543D01*
X4653314Y-18061972D01*
X4639028Y-18004829D01*
X4639028Y-17933400D01*
X4653314Y-17876257D01*
X4667600Y-17847686D01*
X4681886Y-17833400D01*
X4710457Y-17819114D01*
X4939028Y-18119114D02*
X4939028Y-17919114D01*
X4939028Y-17947686D02*
X4953314Y-17933400D01*
X4981886Y-17919114D01*
X5024743Y-17919114D01*
X5053314Y-17933400D01*
X5067600Y-17961972D01*
X5067600Y-18119114D01*
X5067600Y-17961972D02*
X5081886Y-17933400D01*
X5110457Y-17919114D01*
X5153314Y-17919114D01*
X5181886Y-17933400D01*
X5196171Y-17961972D01*
X5196171Y-18119114D01*
X5339028Y-18119114D02*
X5339028Y-17919114D01*
X5339028Y-17947686D02*
X5353314Y-17933400D01*
X5381886Y-17919114D01*
X5424743Y-17919114D01*
X5453314Y-17933400D01*
X5467600Y-17961972D01*
X5467600Y-18119114D01*
X5467600Y-17961972D02*
X5481886Y-17933400D01*
X5510457Y-17919114D01*
X5553314Y-17919114D01*
X5581886Y-17933400D01*
X5596171Y-17961972D01*
X5596171Y-18119114D01*
X6181886Y-17804829D02*
X5924743Y-18190543D01*
X6567600Y-17819114D02*
X6596171Y-17819114D01*
X6624743Y-17833400D01*
X6639028Y-17847686D01*
X6653314Y-17876257D01*
X6667600Y-17933400D01*
X6667600Y-18004829D01*
X6653314Y-18061972D01*
X6639028Y-18090543D01*
X6624743Y-18104829D01*
X6596171Y-18119114D01*
X6567600Y-18119114D01*
X6539028Y-18104829D01*
X6524743Y-18090543D01*
X6510457Y-18061972D01*
X6496171Y-18004829D01*
X6496171Y-17933400D01*
X6510457Y-17876257D01*
X6524743Y-17847686D01*
X6539028Y-17833400D01*
X6567600Y-17819114D01*
X6796171Y-18090543D02*
X6810457Y-18104829D01*
X6796171Y-18119114D01*
X6781886Y-18104829D01*
X6796171Y-18090543D01*
X6796171Y-18119114D01*
X7096171Y-18119114D02*
X6924743Y-18119114D01*
X7010457Y-18119114D02*
X7010457Y-17819114D01*
X6981886Y-17861972D01*
X6953314Y-17890543D01*
X6924743Y-17904829D01*
X7353314Y-17819114D02*
X7296171Y-17819114D01*
X7267600Y-17833400D01*
X7253314Y-17847686D01*
X7224743Y-17890543D01*
X7210457Y-17947686D01*
X7210457Y-18061972D01*
X7224743Y-18090543D01*
X7239028Y-18104829D01*
X7267600Y-18119114D01*
X7324743Y-18119114D01*
X7353314Y-18104829D01*
X7367600Y-18090543D01*
X7381886Y-18061972D01*
X7381886Y-17990543D01*
X7367600Y-17961972D01*
X7353314Y-17947686D01*
X7324743Y-17933400D01*
X7267600Y-17933400D01*
X7239028Y-17947686D01*
X7224743Y-17961972D01*
X7210457Y-17990543D01*
X7524743Y-18119114D02*
X7581886Y-18119114D01*
X7610457Y-18104829D01*
X7624743Y-18090543D01*
X7653314Y-18047686D01*
X7667600Y-17990543D01*
X7667600Y-17876257D01*
X7653314Y-17847686D01*
X7639028Y-17833400D01*
X7610457Y-17819114D01*
X7553314Y-17819114D01*
X7524743Y-17833400D01*
X7510457Y-17847686D01*
X7496171Y-17876257D01*
X7496171Y-17947686D01*
X7510457Y-17976257D01*
X7524743Y-17990543D01*
X7553314Y-18004829D01*
X7610457Y-18004829D01*
X7639028Y-17990543D01*
X7653314Y-17976257D01*
X7667600Y-17947686D01*
X7781886Y-17819114D02*
X7781886Y-17876257D01*
X7896171Y-17819114D02*
X7896171Y-17876257D01*
X8339028Y-18233400D02*
X8324743Y-18219114D01*
X8296171Y-18176257D01*
X8281886Y-18147686D01*
X8267600Y-18104829D01*
X8253314Y-18033400D01*
X8253314Y-17976257D01*
X8267600Y-17904829D01*
X8281886Y-17861972D01*
X8296171Y-17833400D01*
X8324743Y-17790543D01*
X8339028Y-17776257D01*
X8581886Y-17919114D02*
X8581886Y-18119114D01*
X8510457Y-17804829D02*
X8439028Y-18019114D01*
X8624743Y-18019114D01*
X8967600Y-18119114D02*
X8967600Y-17819114D01*
X9096171Y-18119114D02*
X9096171Y-17961972D01*
X9081886Y-17933400D01*
X9053314Y-17919114D01*
X9010457Y-17919114D01*
X8981886Y-17933400D01*
X8967600Y-17947686D01*
X9281886Y-18119114D02*
X9253314Y-18104829D01*
X9239028Y-18090543D01*
X9224743Y-18061972D01*
X9224743Y-17976257D01*
X9239028Y-17947686D01*
X9253314Y-17933400D01*
X9281886Y-17919114D01*
X9324743Y-17919114D01*
X9353314Y-17933400D01*
X9367600Y-17947686D01*
X9381886Y-17976257D01*
X9381886Y-18061972D01*
X9367600Y-18090543D01*
X9353314Y-18104829D01*
X9324743Y-18119114D01*
X9281886Y-18119114D01*
X9553314Y-18119114D02*
X9524743Y-18104829D01*
X9510457Y-18076257D01*
X9510457Y-17819114D01*
X9781886Y-18104829D02*
X9753314Y-18119114D01*
X9696171Y-18119114D01*
X9667600Y-18104829D01*
X9653314Y-18076257D01*
X9653314Y-17961972D01*
X9667600Y-17933400D01*
X9696171Y-17919114D01*
X9753314Y-17919114D01*
X9781886Y-17933400D01*
X9796171Y-17961972D01*
X9796171Y-17990543D01*
X9653314Y-18019114D01*
X9910457Y-18104829D02*
X9939028Y-18119114D01*
X9996171Y-18119114D01*
X10024743Y-18104829D01*
X10039028Y-18076257D01*
X10039028Y-18061972D01*
X10024743Y-18033400D01*
X9996171Y-18019114D01*
X9953314Y-18019114D01*
X9924743Y-18004829D01*
X9910457Y-17976257D01*
X9910457Y-17961972D01*
X9924743Y-17933400D01*
X9953314Y-17919114D01*
X9996171Y-17919114D01*
X10024743Y-17933400D01*
X10139028Y-18233400D02*
X10153314Y-18219114D01*
X10181886Y-18176257D01*
X10196171Y-18147686D01*
X10210457Y-18104829D01*
X10224743Y-18033400D01*
X10224743Y-17976257D01*
X10210457Y-17904829D01*
X10196171Y-17861972D01*
X10181886Y-17833400D01*
X10153314Y-17790543D01*
X10139028Y-17776257D01*
X10681886Y-18233400D02*
X10667600Y-18219114D01*
X10639028Y-18176257D01*
X10624743Y-18147686D01*
X10610457Y-18104829D01*
X10596171Y-18033400D01*
X10596171Y-17976257D01*
X10610457Y-17904829D01*
X10624743Y-17861972D01*
X10639028Y-17833400D01*
X10667600Y-17790543D01*
X10681886Y-17776257D01*
X10796171Y-17919114D02*
X10796171Y-18119114D01*
X10796171Y-17947686D02*
X10810457Y-17933400D01*
X10839028Y-17919114D01*
X10881886Y-17919114D01*
X10910457Y-17933400D01*
X10924743Y-17961972D01*
X10924743Y-18119114D01*
X11110457Y-18119114D02*
X11081886Y-18104829D01*
X11067600Y-18090543D01*
X11053314Y-18061972D01*
X11053314Y-17976257D01*
X11067600Y-17947686D01*
X11081886Y-17933400D01*
X11110457Y-17919114D01*
X11153314Y-17919114D01*
X11181886Y-17933400D01*
X11196171Y-17947686D01*
X11210457Y-17976257D01*
X11210457Y-18061972D01*
X11196171Y-18090543D01*
X11181886Y-18104829D01*
X11153314Y-18119114D01*
X11110457Y-18119114D01*
X11296171Y-17919114D02*
X11410457Y-17919114D01*
X11339028Y-17819114D02*
X11339028Y-18076257D01*
X11353314Y-18104829D01*
X11381886Y-18119114D01*
X11410457Y-18119114D01*
X11739028Y-17919114D02*
X11739028Y-18219114D01*
X11739028Y-17933400D02*
X11767600Y-17919114D01*
X11824743Y-17919114D01*
X11853314Y-17933400D01*
X11867600Y-17947686D01*
X11881886Y-17976257D01*
X11881886Y-18061972D01*
X11867600Y-18090543D01*
X11853314Y-18104829D01*
X11824743Y-18119114D01*
X11767600Y-18119114D01*
X11739028Y-18104829D01*
X12053314Y-18119114D02*
X12024743Y-18104829D01*
X12010457Y-18076257D01*
X12010457Y-17819114D01*
X12296171Y-18119114D02*
X12296171Y-17961972D01*
X12281886Y-17933400D01*
X12253314Y-17919114D01*
X12196171Y-17919114D01*
X12167600Y-17933400D01*
X12296171Y-18104829D02*
X12267600Y-18119114D01*
X12196171Y-18119114D01*
X12167600Y-18104829D01*
X12153314Y-18076257D01*
X12153314Y-18047686D01*
X12167600Y-18019114D01*
X12196171Y-18004829D01*
X12267600Y-18004829D01*
X12296171Y-17990543D01*
X12396171Y-17919114D02*
X12510457Y-17919114D01*
X12439028Y-17819114D02*
X12439028Y-18076257D01*
X12453314Y-18104829D01*
X12481886Y-18119114D01*
X12510457Y-18119114D01*
X12724743Y-18104829D02*
X12696171Y-18119114D01*
X12639028Y-18119114D01*
X12610457Y-18104829D01*
X12596171Y-18076257D01*
X12596171Y-17961972D01*
X12610457Y-17933400D01*
X12639028Y-17919114D01*
X12696171Y-17919114D01*
X12724743Y-17933400D01*
X12739028Y-17961972D01*
X12739028Y-17990543D01*
X12596171Y-18019114D01*
X12996171Y-18119114D02*
X12996171Y-17819114D01*
X12996171Y-18104829D02*
X12967600Y-18119114D01*
X12910457Y-18119114D01*
X12881886Y-18104829D01*
X12867600Y-18090543D01*
X12853314Y-18061972D01*
X12853314Y-17976257D01*
X12867600Y-17947686D01*
X12881886Y-17933400D01*
X12910457Y-17919114D01*
X12967600Y-17919114D01*
X12996171Y-17933400D01*
X13110457Y-18233400D02*
X13124743Y-18219114D01*
X13153314Y-18176257D01*
X13167600Y-18147686D01*
X13181886Y-18104829D01*
X13196171Y-18033400D01*
X13196171Y-17976257D01*
X13181886Y-17904829D01*
X13167600Y-17861972D01*
X13153314Y-17833400D01*
X13124743Y-17790543D01*
X13110457Y-17776257D01*
M02*
