<?xml version="1.0" standalone="no"?>
 <!DOCTYPE svg PUBLIC "-//W3C//DTD SVG 1.1//EN" 
 "http://www.w3.org/Graphics/SVG/1.1/DTD/svg11.dtd"> 
<svg xmlns="http://www.w3.org/2000/svg" version="1.1" 
    width="29.7002cm" height="21.0007cm" viewBox="0 0 116930 82680 ">
<title>SVG Picture created as maximiseur3-F_Fab.svg date 2019/08/21 02:02:46 </title>
  <desc>Picture generated by PCBNEW </desc>
<g style="fill:#000000; fill-opacity:1;stroke:#000000; stroke-opacity:1;
stroke-linecap:round; stroke-linejoin:round; "
 transform="translate(0 0) scale(1 1)">
</g>
<g style="fill:#000000; fill-opacity:0.0; 
stroke:#000000; stroke-width:-0.000393701; stroke-opacity:1; 
stroke-linecap:round; stroke-linejoin:round;">
</g>
<g style="fill:#000000; fill-opacity:0.0; 
stroke:#000000; stroke-width:39.3701; stroke-opacity:1; 
stroke-linecap:round; stroke-linejoin:round;">
<path d="M102530 52970
L102530 13600
" />
<path d="M43474 52970
L102530 52970
" />
<path d="M43474 13600
L43474 52970
" />
<path d="M102530 13600
L43474 13600
" />
<path d="M61619 37125
L61619 36928
" />
<path d="M61521 37027
L61718 37027
" />
<g >
</g>
<g >
</g>
<g >
</g>
<g >
</g>
<g >
</g>
<g >
</g>
<g >
</g>
<g >
</g>
<g >
</g>
<g >
</g>
<g >
</g>
<g >
</g>
<g >
</g>
<g >
</g>
<g >
</g>
<g >
</g>
<g >
</g>
<g >
</g>
<g >
</g>
<g >
</g>
<g >
</g>
<g >
</g>
<g >
</g>
<g >
</g>
<g >
</g>
<g >
</g>
<g >
</g>
<g >
</g>
<g >
</g>
<g >
</g>
<g >
</g>
<g >
</g>
<g >
</g>
<g >
</g>
<g >
</g>
<g >
</g>
<g >
</g>
<g >
</g>
<g >
</g>
<g >
</g>
<g >
</g>
<g >
</g>
<g >
</g>
<g >
</g>
<g >
</g>
<g >
</g>
</g>
<g style="fill:#000000; fill-opacity:0.0; 
stroke:#000000; stroke-width:39.3701; stroke-opacity:1; 
stroke-linecap:round; stroke-linejoin:round;">
</g>
<g style="fill:#000000; fill-opacity:0.0; 
stroke:#000000; stroke-width:59.0551; stroke-opacity:1; 
stroke-linecap:round; stroke-linejoin:round;">
<path d="M57543 41199
L57524 41180
L57486 41161
L57393 41161
L57355 41180
L57336 41199
L57318 41236
L57318 41274
L57336 41330
L57561 41555
L57318 41555
" />
<path d="M57149 41555
L57149 41161
" />
<path d="M57111 41405
L56999 41555
" />
<path d="M56999 41293
L57149 41443
" />
<path d="M45625 51179
L45625 50785
" />
<path d="M45625 50973
L45400 50973
" />
<path d="M45400 51179
L45400 50785
" />
<path d="M45044 50917
L45044 51179
" />
<path d="M45137 50767
L45231 51048
L44987 51048
" />
<path d="M45625 15746
L45625 15352
" />
<path d="M45625 15540
L45400 15540
" />
<path d="M45400 15746
L45400 15352
" />
<path d="M45250 15352
L45006 15352
L45137 15502
L45081 15502
L45044 15521
L45025 15540
L45006 15577
L45006 15671
L45025 15709
L45044 15727
L45081 15746
L45194 15746
L45231 15727
L45250 15709
" />
<path d="M100743 51179
L100743 50785
" />
<path d="M100743 50973
L100518 50973
" />
<path d="M100518 51179
L100518 50785
" />
<path d="M100349 50823
L100330 50804
L100293 50785
L100199 50785
L100162 50804
L100143 50823
L100124 50860
L100124 50898
L100143 50954
L100368 51179
L100124 51179
" />
<path d="M100743 15678
L100743 15284
" />
<path d="M100743 15471
L100518 15471
" />
<path d="M100518 15678
L100518 15284
" />
<path d="M100124 15678
L100349 15678
" />
<path d="M100237 15678
L100237 15284
L100274 15340
L100312 15378
L100349 15396
" />
<path d="M82430 36388
L82036 36283
L82430 36178
" />
<path d="M82430 35923
L82430 36073
L82243 36088
L82261 36073
L82280 36043
L82280 35968
L82261 35938
L82243 35923
L82205 35908
L82111 35908
L82074 35923
L82055 35938
L82036 35968
L82036 36043
L82055 36073
L82074 36088
" />
<path d="M82430 35638
L82430 35698
L82411 35728
L82393 35743
L82336 35773
L82261 35788
L82111 35788
L82074 35773
L82055 35758
L82036 35728
L82036 35668
L82055 35638
L82074 35623
L82111 35608
L82205 35608
L82243 35623
L82261 35638
L82280 35668
L82280 35728
L82261 35758
L82243 35773
L82205 35788
" />
<path d="M82430 35503
L82430 35293
L82036 35503
L82036 35293
" />
<path d="M82149 35188
L82149 35038
" />
<path d="M82036 35218
L82430 35113
L82036 35008
" />
<path d="M82261 34858
L82280 34888
L82299 34903
L82336 34918
L82355 34918
L82393 34903
L82411 34888
L82430 34858
L82430 34798
L82411 34768
L82393 34753
L82355 34738
L82336 34738
L82299 34753
L82280 34768
L82261 34798
L82261 34858
L82243 34888
L82224 34903
L82186 34918
L82111 34918
L82074 34903
L82055 34888
L82036 34858
L82036 34798
L82055 34768
L82074 34753
L82111 34738
L82186 34738
L82224 34753
L82243 34768
L82261 34798
" />
<path d="M95895 36191
L95501 36086
L95895 35981
" />
<path d="M95895 35726
L95895 35876
L95707 35891
L95726 35876
L95745 35846
L95745 35771
L95726 35741
L95707 35726
L95670 35711
L95576 35711
L95538 35726
L95520 35741
L95501 35771
L95501 35846
L95520 35876
L95538 35891
" />
<path d="M95895 35441
L95895 35501
L95876 35531
L95857 35546
L95801 35576
L95726 35591
L95576 35591
L95538 35576
L95520 35561
L95501 35531
L95501 35471
L95520 35441
L95538 35426
L95576 35411
L95670 35411
L95707 35426
L95726 35441
L95745 35471
L95745 35531
L95726 35561
L95707 35576
L95670 35591
" />
<path d="M95895 35306
L95895 35097
L95501 35306
L95501 35097
" />
<path d="M95613 34992
L95613 34842
" />
<path d="M95501 35022
L95895 34917
L95501 34812
" />
<path d="M95726 34662
L95745 34692
L95763 34707
L95801 34722
L95820 34722
L95857 34707
L95876 34692
L95895 34662
L95895 34602
L95876 34572
L95857 34557
L95820 34542
L95801 34542
L95763 34557
L95745 34572
L95726 34602
L95726 34662
L95707 34692
L95688 34707
L95651 34722
L95576 34722
L95538 34707
L95520 34692
L95501 34662
L95501 34602
L95520 34572
L95538 34557
L95576 34542
L95651 34542
L95688 34557
L95707 34572
L95726 34602
" />
<path d="M85186 21821
L84792 21716
L85186 21611
" />
<path d="M85186 21356
L85186 21506
L84999 21521
L85017 21506
L85036 21476
L85036 21401
L85017 21371
L84999 21356
L84961 21341
L84867 21341
L84830 21356
L84811 21371
L84792 21401
L84792 21476
L84811 21506
L84830 21521
" />
<path d="M85186 21071
L85186 21131
L85167 21161
L85149 21176
L85092 21206
L85017 21221
L84867 21221
L84830 21206
L84811 21191
L84792 21161
L84792 21101
L84811 21071
L84830 21056
L84867 21041
L84961 21041
L84999 21056
L85017 21071
L85036 21101
L85036 21161
L85017 21191
L84999 21206
L84961 21221
" />
<path d="M85186 20936
L85186 20726
L84792 20936
L84792 20726
" />
<path d="M84905 20621
L84905 20471
" />
<path d="M84792 20651
L85186 20546
L84792 20441
" />
<path d="M85017 20291
L85036 20321
L85055 20336
L85092 20351
L85111 20351
L85149 20336
L85167 20321
L85186 20291
L85186 20231
L85167 20201
L85149 20186
L85111 20171
L85092 20171
L85055 20186
L85036 20201
L85017 20231
L85017 20291
L84999 20321
L84980 20336
L84942 20351
L84867 20351
L84830 20336
L84811 20321
L84792 20291
L84792 20231
L84811 20201
L84830 20186
L84867 20171
L84942 20171
L84980 20186
L84999 20201
L85017 20231
" />
<path d="M63974 48800
L63974 48987
L64368 48987
" />
<path d="M63974 48668
L64368 48668
L64087 48537
L64368 48406
L63974 48406
" />
<path d="M64368 48256
L64368 48012
L64218 48144
L64218 48087
L64199 48050
L64180 48031
L64143 48012
L64049 48012
L64012 48031
L63993 48050
L63974 48087
L63974 48200
L63993 48237
L64012 48256
" />
<path d="M63974 47637
L63974 47862
" />
<path d="M63974 47750
L64368 47750
L64312 47787
L64274 47825
L64255 47862
" />
<path d="M63974 47262
L63974 47487
" />
<path d="M63974 47375
L64368 47375
L64312 47412
L64274 47450
L64255 47487
" />
<path d="M60143 35889
L60087 35902
L60068 35915
L60049 35942
L60049 35981
L60068 36007
L60087 36020
L60124 36033
L60274 36033
L60274 35758
L60143 35758
L60105 35771
L60087 35784
L60068 35810
L60068 35837
L60087 35863
L60105 35876
L60143 35889
L60274 35889
" />
<path d="M59880 36033
L59880 35758
L59787 35758
L59730 35771
L59693 35797
L59674 35823
L59656 35876
L59656 35915
L59674 35968
L59693 35994
L59730 36020
L59787 36033
L59880 36033
" />
<path d="M59281 36033
L59506 36033
" />
<path d="M59393 36033
L59393 35758
L59431 35797
L59468 35823
L59506 35837
" />
<path d="M59149 35758
L58906 35758
L59037 35863
L58981 35863
L58943 35876
L58924 35889
L58906 35915
L58906 35981
L58924 36007
L58943 36020
L58981 36033
L59093 36033
L59131 36020
L59149 36007
" />
<path d="M58718 36033
L58643 36033
L58606 36020
L58587 36007
L58549 35968
L58531 35915
L58531 35810
L58549 35784
L58568 35771
L58606 35758
L58681 35758
L58718 35771
L58737 35784
L58756 35810
L58756 35876
L58737 35902
L58718 35915
L58681 35928
L58606 35928
L58568 35915
L58549 35902
L58531 35876
" />
<path d="M59712 35090
L59487 35090
" />
<path d="M59599 35484
L59599 35090
" />
<path d="M59149 35484
L59374 35484
" />
<path d="M59262 35484
L59262 35090
L59299 35146
L59337 35184
L59374 35202
" />
<path d="M68084 39696
L68084 39921
" />
<path d="M68084 39809
L68477 39809
L68421 39846
L68384 39884
L68365 39921
" />
<path d="M68477 39340
L68477 39527
L68290 39546
L68309 39527
L68327 39490
L68327 39396
L68309 39359
L68290 39340
L68252 39321
L68159 39321
L68121 39340
L68102 39359
L68084 39396
L68084 39490
L68102 39527
L68121 39546
" />
<path d="M68477 39078
L68477 39040
L68459 39003
L68440 38984
L68402 38965
L68327 38946
L68234 38946
L68159 38965
L68121 38984
L68102 39003
L68084 39040
L68084 39078
L68102 39115
L68121 39134
L68159 39153
L68234 39171
L68327 39171
L68402 39153
L68440 39134
L68459 39115
L68477 39078
" />
<path d="M69984 39696
L69984 39921
" />
<path d="M69984 39809
L70377 39809
L70321 39846
L70284 39884
L70265 39921
" />
<path d="M70377 39340
L70377 39527
L70190 39546
L70209 39527
L70227 39490
L70227 39396
L70209 39359
L70190 39340
L70152 39321
L70059 39321
L70021 39340
L70002 39359
L69984 39396
L69984 39490
L70002 39527
L70021 39546
" />
<path d="M70377 39078
L70377 39040
L70359 39003
L70340 38984
L70302 38965
L70227 38946
L70134 38946
L70059 38965
L70021 38984
L70002 39003
L69984 39040
L69984 39078
L70002 39115
L70021 39134
L70059 39153
L70134 39171
L70227 39171
L70302 39153
L70340 39134
L70359 39115
L70377 39078
" />
<path d="M73984 39696
L73984 39921
" />
<path d="M73984 39809
L74377 39809
L74321 39846
L74284 39884
L74265 39921
" />
<path d="M74377 39340
L74377 39527
L74190 39546
L74209 39527
L74227 39490
L74227 39396
L74209 39359
L74190 39340
L74152 39321
L74059 39321
L74021 39340
L74002 39359
L73984 39396
L73984 39490
L74002 39527
L74021 39546
" />
<path d="M74377 39078
L74377 39040
L74359 39003
L74340 38984
L74302 38965
L74227 38946
L74134 38946
L74059 38965
L74021 38984
L74002 39003
L73984 39040
L73984 39078
L74002 39115
L74021 39134
L74059 39153
L74134 39171
L74227 39171
L74302 39153
L74340 39134
L74359 39115
L74377 39078
" />
<path d="M77784 39696
L77784 39921
" />
<path d="M77784 39809
L78177 39809
L78121 39846
L78084 39884
L78065 39921
" />
<path d="M78177 39340
L78177 39527
L77990 39546
L78009 39527
L78027 39490
L78027 39396
L78009 39359
L77990 39340
L77952 39321
L77859 39321
L77821 39340
L77802 39359
L77784 39396
L77784 39490
L77802 39527
L77821 39546
" />
<path d="M78177 39078
L78177 39040
L78159 39003
L78140 38984
L78102 38965
L78027 38946
L77934 38946
L77859 38965
L77821 38984
L77802 39003
L77784 39040
L77784 39078
L77802 39115
L77821 39134
L77859 39153
L77934 39171
L78027 39171
L78102 39153
L78140 39134
L78159 39115
L78177 39078
" />
<path d="M64103 41580
L64328 41580
" />
<path d="M64216 41580
L64216 41186
L64253 41243
L64291 41280
L64328 41299
" />
<path d="M63934 41580
L63934 41186
" />
<path d="M63897 41430
L63785 41580
" />
<path d="M63785 41317
L63934 41467
" />
<path d="M63428 41186
L63616 41186
L63635 41374
L63616 41355
L63578 41336
L63485 41336
L63447 41355
L63428 41374
L63410 41411
L63410 41505
L63428 41542
L63447 41561
L63485 41580
L63578 41580
L63616 41561
L63635 41542
" />
<path d="M61944 40320
L62169 40320
" />
<path d="M62057 40320
L62057 39926
L62094 39983
L62132 40020
L62169 40039
" />
<path d="M61701 39926
L61663 39926
L61626 39945
L61607 39964
L61588 40001
L61569 40076
L61569 40170
L61588 40245
L61607 40283
L61626 40301
L61663 40320
L61701 40320
L61738 40301
L61757 40283
L61776 40245
L61794 40170
L61794 40076
L61776 40001
L61757 39964
L61738 39945
L61701 39926
" />
<path d="M61326 39926
L61288 39926
L61251 39945
L61232 39964
L61213 40001
L61194 40076
L61194 40170
L61213 40245
L61232 40283
L61251 40301
L61288 40320
L61326 40320
L61363 40301
L61382 40283
L61401 40245
L61419 40170
L61419 40076
L61401 40001
L61382 39964
L61363 39945
L61326 39926
" />
<path d="M61026 40320
L61026 39926
" />
<path d="M60988 40170
L60876 40320
" />
<path d="M60876 40058
L61026 40208
" />
<path d="M65134 43234
L64891 43234
L65022 43383
L64966 43383
L64928 43402
L64909 43421
L64891 43458
L64891 43552
L64909 43590
L64928 43608
L64966 43627
L65078 43627
L65116 43608
L65134 43590
" />
<path d="M64722 43627
L64722 43234
" />
<path d="M64684 43477
L64572 43627
" />
<path d="M64572 43365
L64722 43515
" />
<path d="M64441 43234
L64197 43234
L64328 43383
L64272 43383
L64234 43402
L64216 43421
L64197 43458
L64197 43552
L64216 43590
L64234 43608
L64272 43627
L64384 43627
L64422 43608
L64441 43590
" />
<path d="M57635 45705
L57617 45686
L57579 45667
L57485 45667
L57448 45686
L57429 45705
L57410 45742
L57410 45780
L57429 45836
L57654 46061
L57410 46061
" />
<path d="M57242 46061
L57242 45667
" />
<path d="M57204 45911
L57092 46061
" />
<path d="M57092 45799
L57242 45949
" />
<path d="M56942 45705
L56923 45686
L56885 45667
L56792 45667
L56754 45686
L56735 45705
L56717 45742
L56717 45780
L56735 45836
L56960 46061
L56717 46061
" />
<path d="M57426 38667
L57651 38667
" />
<path d="M57539 38667
L57539 38273
L57576 38329
L57614 38367
L57651 38385
" />
<path d="M57070 38273
L57257 38273
L57276 38460
L57257 38442
L57220 38423
L57126 38423
L57089 38442
L57070 38460
L57051 38498
L57051 38592
L57070 38629
L57089 38648
L57126 38667
L57220 38667
L57257 38648
L57276 38629
" />
<path d="M56882 38667
L56882 38273
" />
<path d="M56845 38517
L56732 38667
" />
<path d="M56732 38404
L56882 38554
" />
<path d="M59540 34118
L59296 34118
L59427 34268
L59371 34268
L59334 34287
L59315 34306
L59296 34343
L59296 34437
L59315 34474
L59334 34493
L59371 34512
L59484 34512
L59521 34493
L59540 34474
" />
<path d="M59127 34512
L59127 34118
" />
<path d="M59090 34362
L58977 34512
" />
<path d="M58977 34249
L59127 34399
" />
<path d="M58846 34118
L58602 34118
L58734 34268
L58677 34268
L58640 34287
L58621 34306
L58602 34343
L58602 34437
L58621 34474
L58640 34493
L58677 34512
L58790 34512
L58827 34493
L58846 34474
" />
<path d="M69887 47800
L69940 47800
L69966 47819
L69979 47838
L70005 47894
L70018 47969
L70018 48119
L70005 48157
L69992 48175
L69966 48194
L69913 48194
L69887 48175
L69874 48157
L69861 48119
L69861 48025
L69874 47988
L69887 47969
L69913 47950
L69966 47950
L69992 47969
L70005 47988
L70018 48025
" />
<path d="M69730 48175
L69730 48194
L69743 48232
L69756 48250
" />
<path d="M69625 47838
L69612 47819
L69585 47800
L69520 47800
L69494 47819
L69480 47838
L69467 47875
L69467 47913
L69480 47969
L69638 48194
L69467 48194
" />
<path d="M69389 47800
L69297 48194
L69205 47800
" />
<path d="M56240 32549
L56240 32391
" />
<path d="M56240 32470
L55846 32470
L55902 32444
L55940 32418
L55959 32391
" />
<path d="M55884 32654
L55865 32667
L55846 32693
L55846 32759
L55865 32785
L55884 32798
L55921 32811
L55959 32811
L56015 32798
L56240 32641
L56240 32811
" />
<path d="M55846 32890
L56240 32982
L55846 33074
" />
<path d="M62256 39100
L62413 39100
" />
<path d="M62335 39100
L62335 38706
L62361 38762
L62387 38800
L62413 38818
" />
<path d="M62085 38706
L62059 38706
L62033 38725
L62020 38743
L62007 38781
L61994 38856
L61994 38950
L62007 39025
L62020 39062
L62033 39081
L62059 39100
L62085 39100
L62112 39081
L62125 39062
L62138 39025
L62151 38950
L62151 38856
L62138 38781
L62125 38743
L62112 38725
L62085 38706
" />
<path d="M61823 38706
L61797 38706
L61770 38725
L61757 38743
L61744 38781
L61731 38856
L61731 38950
L61744 39025
L61757 39062
L61770 39081
L61797 39100
L61823 39100
L61849 39081
L61862 39062
L61875 39025
L61889 38950
L61889 38856
L61875 38781
L61862 38743
L61849 38725
L61823 38706
" />
<path d="M61613 38837
L61613 39231
" />
<path d="M61613 38856
L61587 38837
L61534 38837
L61508 38856
L61495 38875
L61482 38912
L61482 39025
L61495 39062
L61508 39081
L61534 39100
L61587 39100
L61613 39081
" />
<path d="M61272 38893
L61364 38893
" />
<path d="M61364 39100
L61364 38706
L61232 38706
" />
<path d="M64067 45084
L64225 45084
" />
<path d="M64146 45084
L64146 44690
L64172 44746
L64198 44784
L64225 44803
" />
<path d="M63896 44690
L63870 44690
L63844 44709
L63831 44728
L63818 44765
L63805 44840
L63805 44934
L63818 45009
L63831 45046
L63844 45065
L63870 45084
L63896 45084
L63923 45065
L63936 45046
L63949 45009
L63962 44934
L63962 44840
L63949 44765
L63936 44728
L63923 44709
L63896 44690
" />
<path d="M63634 44690
L63608 44690
L63581 44709
L63568 44728
L63555 44765
L63542 44840
L63542 44934
L63555 45009
L63568 45046
L63581 45065
L63608 45084
L63634 45084
L63660 45065
L63673 45046
L63686 45009
L63700 44934
L63700 44840
L63686 44765
L63673 44728
L63660 44709
L63634 44690
" />
<path d="M63424 44821
L63424 45084
" />
<path d="M63424 44859
L63411 44840
L63385 44821
L63345 44821
L63319 44840
L63306 44878
L63306 45084
" />
<path d="M63083 44878
L63175 44878
" />
<path d="M63175 45084
L63175 44690
L63043 44690
" />
<path d="M62869 36177
L63094 36177
" />
<path d="M62981 36177
L62981 35783
L63019 35839
L63056 35877
L63094 35896
" />
<path d="M62625 35783
L62588 35783
L62550 35802
L62531 35821
L62513 35858
L62494 35933
L62494 36027
L62513 36102
L62531 36139
L62550 36158
L62588 36177
L62625 36177
L62663 36158
L62681 36139
L62700 36102
L62719 36027
L62719 35933
L62700 35858
L62681 35821
L62663 35802
L62625 35783
" />
<path d="M62325 35914
L62325 36308
" />
<path d="M62138 36121
L62119 36158
L62081 36177
" />
<path d="M62325 36121
L62306 36158
L62269 36177
L62194 36177
L62156 36158
L62138 36121
L62138 35914
" />
<path d="M61781 35971
L61913 35971
" />
<path d="M61913 36177
L61913 35783
L61725 35783
" />
<path d="M76831 20804
L76831 21029
" />
<path d="M76831 20916
L77224 20916
L77168 20954
L77130 20991
L77112 21029
" />
<path d="M77224 20560
L77224 20522
L77205 20485
L77187 20466
L77149 20447
L77074 20429
L76981 20429
L76906 20447
L76868 20466
L76849 20485
L76831 20522
L76831 20560
L76849 20597
L76868 20616
L76906 20635
L76981 20654
L77074 20654
L77149 20635
L77187 20616
L77205 20597
L77224 20560
" />
<path d="M77224 20185
L77224 20147
L77205 20110
L77187 20091
L77149 20072
L77074 20054
L76981 20054
L76906 20072
L76868 20091
L76849 20110
L76831 20147
L76831 20185
L76849 20222
L76868 20241
L76906 20260
L76981 20279
L77074 20279
L77149 20260
L77187 20241
L77205 20222
L77224 20185
" />
<path d="M77224 19810
L77224 19772
L77205 19735
L77187 19716
L77149 19697
L77074 19679
L76981 19679
L76906 19697
L76868 19716
L76849 19735
L76831 19772
L76831 19810
L76849 19847
L76868 19866
L76906 19885
L76981 19904
L77074 19904
L77149 19885
L77187 19866
L77205 19847
L77224 19810
" />
<path d="M77093 19510
L76699 19510
" />
<path d="M76887 19322
L76849 19304
L76831 19266
" />
<path d="M76887 19510
L76849 19491
L76831 19454
L76831 19379
L76849 19341
L76887 19322
L77093 19322
" />
<path d="M77037 18966
L77037 19097
" />
<path d="M76831 19097
L77224 19097
L77224 18910
" />
<path d="M78757 21679
L78757 21379
" />
<path d="M78607 21529
L78907 21529
" />
<path d="M77818 20305
L77799 20324
L77781 20380
L77781 20418
L77799 20474
L77837 20512
L77874 20530
L77949 20549
L78006 20549
L78080 20530
L78118 20512
L78155 20474
L78174 20418
L78174 20380
L78155 20324
L78137 20305
" />
<path d="M77781 19930
L77781 20155
" />
<path d="M77781 20043
L78174 20043
L78118 20080
L78080 20118
L78062 20155
" />
<path d="M77781 19555
L77781 19780
" />
<path d="M77781 19668
L78174 19668
L78118 19705
L78080 19743
L78062 19780
" />
<path d="M71874 27911
L71874 28136
" />
<path d="M71874 28024
L72267 28024
L72211 28061
L72174 28099
L72155 28136
" />
<path d="M72267 27668
L72267 27630
L72249 27593
L72230 27574
L72192 27555
L72117 27536
L72024 27536
L71949 27555
L71911 27574
L71892 27593
L71874 27630
L71874 27668
L71892 27705
L71911 27724
L71949 27743
L72024 27761
L72117 27761
L72192 27743
L72230 27724
L72249 27705
L72267 27668
" />
<path d="M72267 27293
L72267 27255
L72249 27218
L72230 27199
L72192 27180
L72117 27161
L72024 27161
L71949 27180
L71911 27199
L71892 27218
L71874 27255
L71874 27293
L71892 27330
L71911 27349
L71949 27368
L72024 27386
L72117 27386
L72192 27368
L72230 27349
L72249 27330
L72267 27293
" />
<path d="M72267 26918
L72267 26880
L72249 26843
L72230 26824
L72192 26805
L72117 26787
L72024 26787
L71949 26805
L71911 26824
L71892 26843
L71874 26880
L71874 26918
L71892 26955
L71911 26974
L71949 26993
L72024 27012
L72117 27012
L72192 26993
L72230 26974
L72249 26955
L72267 26918
" />
<path d="M72136 26618
L71742 26618
" />
<path d="M71930 26430
L71892 26412
L71874 26374
" />
<path d="M71930 26618
L71892 26599
L71874 26562
L71874 26487
L71892 26449
L71930 26430
L72136 26430
" />
<path d="M72080 26074
L72080 26205
" />
<path d="M71874 26205
L72267 26205
L72267 26018
" />
<path d="M70247 25686
L70247 25387
" />
<path d="M70097 25537
L70397 25537
" />
<path d="M70961 27079
L70942 27097
L70924 27153
L70924 27191
L70942 27247
L70980 27285
L71017 27303
L71092 27322
L71149 27322
L71224 27303
L71261 27285
L71299 27247
L71317 27191
L71317 27153
L71299 27097
L71280 27079
" />
<path d="M71317 26722
L71317 26910
L71130 26929
L71149 26910
L71167 26872
L71167 26779
L71149 26741
L71130 26722
L71092 26704
L70999 26704
L70961 26722
L70942 26741
L70924 26779
L70924 26872
L70942 26910
L70961 26929
" />
<path d="M69986 20804
L69986 21029
" />
<path d="M69986 20916
L70380 20916
L70324 20954
L70286 20991
L70268 21029
" />
<path d="M70380 20560
L70380 20522
L70361 20485
L70343 20466
L70305 20447
L70230 20429
L70136 20429
L70061 20447
L70024 20466
L70005 20485
L69986 20522
L69986 20560
L70005 20597
L70024 20616
L70061 20635
L70136 20654
L70230 20654
L70305 20635
L70343 20616
L70361 20597
L70380 20560
" />
<path d="M70380 20185
L70380 20147
L70361 20110
L70343 20091
L70305 20072
L70230 20054
L70136 20054
L70061 20072
L70024 20091
L70005 20110
L69986 20147
L69986 20185
L70005 20222
L70024 20241
L70061 20260
L70136 20279
L70230 20279
L70305 20260
L70343 20241
L70361 20222
L70380 20185
" />
<path d="M70380 19810
L70380 19772
L70361 19735
L70343 19716
L70305 19697
L70230 19679
L70136 19679
L70061 19697
L70024 19716
L70005 19735
L69986 19772
L69986 19810
L70005 19847
L70024 19866
L70061 19885
L70136 19904
L70230 19904
L70305 19885
L70343 19866
L70361 19847
L70380 19810
" />
<path d="M70249 19510
L69855 19510
" />
<path d="M70043 19322
L70005 19304
L69986 19266
" />
<path d="M70043 19510
L70005 19491
L69986 19454
L69986 19379
L70005 19341
L70043 19322
L70249 19322
" />
<path d="M70193 18966
L70193 19097
" />
<path d="M69986 19097
L70380 19097
L70380 18910
" />
<path d="M71913 21679
L71913 21379
" />
<path d="M71763 21529
L72063 21529
" />
<path d="M70974 20305
L70955 20324
L70936 20380
L70936 20418
L70955 20474
L70993 20512
L71030 20530
L71105 20549
L71161 20549
L71236 20530
L71274 20512
L71311 20474
L71330 20418
L71330 20380
L71311 20324
L71293 20305
" />
<path d="M70936 19930
L70936 20155
" />
<path d="M70936 20043
L71330 20043
L71274 20080
L71236 20118
L71218 20155
" />
<path d="M71330 19687
L71330 19649
L71311 19612
L71293 19593
L71255 19574
L71180 19555
L71086 19555
L71011 19574
L70974 19593
L70955 19612
L70936 19649
L70936 19687
L70955 19724
L70974 19743
L71011 19762
L71086 19780
L71180 19780
L71255 19762
L71293 19743
L71311 19724
L71330 19687
" />
<path d="M65036 27911
L65036 28136
" />
<path d="M65036 28024
L65430 28024
L65374 28061
L65336 28099
L65318 28136
" />
<path d="M65430 27668
L65430 27630
L65411 27593
L65393 27574
L65355 27555
L65280 27536
L65186 27536
L65111 27555
L65074 27574
L65055 27593
L65036 27630
L65036 27668
L65055 27705
L65074 27724
L65111 27743
L65186 27761
L65280 27761
L65355 27743
L65393 27724
L65411 27705
L65430 27668
" />
<path d="M65430 27293
L65430 27255
L65411 27218
L65393 27199
L65355 27180
L65280 27161
L65186 27161
L65111 27180
L65074 27199
L65055 27218
L65036 27255
L65036 27293
L65055 27330
L65074 27349
L65111 27368
L65186 27386
L65280 27386
L65355 27368
L65393 27349
L65411 27330
L65430 27293
" />
<path d="M65430 26918
L65430 26880
L65411 26843
L65393 26824
L65355 26805
L65280 26787
L65186 26787
L65111 26805
L65074 26824
L65055 26843
L65036 26880
L65036 26918
L65055 26955
L65074 26974
L65111 26993
L65186 27012
L65280 27012
L65355 26993
L65393 26974
L65411 26955
L65430 26918
" />
<path d="M65299 26618
L64905 26618
" />
<path d="M65093 26430
L65055 26412
L65036 26374
" />
<path d="M65093 26618
L65055 26599
L65036 26562
L65036 26487
L65055 26449
L65093 26430
L65299 26430
" />
<path d="M65243 26074
L65243 26205
" />
<path d="M65036 26205
L65430 26205
L65430 26018
" />
<path d="M63410 25686
L63410 25387
" />
<path d="M63260 25537
L63559 25537
" />
<path d="M64124 27079
L64105 27097
L64086 27153
L64086 27191
L64105 27247
L64143 27285
L64180 27303
L64255 27322
L64311 27322
L64386 27303
L64424 27285
L64461 27247
L64480 27191
L64480 27153
L64461 27097
L64443 27079
" />
<path d="M64480 26741
L64480 26816
L64461 26854
L64443 26872
L64386 26910
L64311 26929
L64161 26929
L64124 26910
L64105 26891
L64086 26854
L64086 26779
L64105 26741
L64124 26722
L64161 26704
L64255 26704
L64293 26722
L64311 26741
L64330 26779
L64330 26854
L64311 26891
L64293 26910
L64255 26929
" />
<path d="M58199 27911
L58199 28136
" />
<path d="M58199 28024
L58593 28024
L58536 28061
L58499 28099
L58480 28136
" />
<path d="M58593 27668
L58593 27630
L58574 27593
L58555 27574
L58518 27555
L58443 27536
L58349 27536
L58274 27555
L58237 27574
L58218 27593
L58199 27630
L58199 27668
L58218 27705
L58237 27724
L58274 27743
L58349 27761
L58443 27761
L58518 27743
L58555 27724
L58574 27705
L58593 27668
" />
<path d="M58593 27293
L58593 27255
L58574 27218
L58555 27199
L58518 27180
L58443 27161
L58349 27161
L58274 27180
L58237 27199
L58218 27218
L58199 27255
L58199 27293
L58218 27330
L58237 27349
L58274 27368
L58349 27386
L58443 27386
L58518 27368
L58555 27349
L58574 27330
L58593 27293
" />
<path d="M58593 26918
L58593 26880
L58574 26843
L58555 26824
L58518 26805
L58443 26787
L58349 26787
L58274 26805
L58237 26824
L58218 26843
L58199 26880
L58199 26918
L58218 26955
L58237 26974
L58274 26993
L58349 27012
L58443 27012
L58518 26993
L58555 26974
L58574 26955
L58593 26918
" />
<path d="M58462 26618
L58068 26618
" />
<path d="M58255 26430
L58218 26412
L58199 26374
" />
<path d="M58255 26618
L58218 26599
L58199 26562
L58199 26487
L58218 26449
L58255 26430
L58462 26430
" />
<path d="M58405 26074
L58405 26205
" />
<path d="M58199 26205
L58593 26205
L58593 26018
" />
<path d="M56572 25686
L56572 25387
" />
<path d="M56422 25537
L56722 25537
" />
<path d="M57287 27079
L57268 27097
L57249 27153
L57249 27191
L57268 27247
L57305 27285
L57343 27303
L57418 27322
L57474 27322
L57549 27303
L57586 27285
L57624 27247
L57643 27191
L57643 27153
L57624 27097
L57605 27079
" />
<path d="M57643 26947
L57643 26685
L57249 26854
" />
<path d="M56298 20804
L56298 21029
" />
<path d="M56298 20916
L56692 20916
L56636 20954
L56598 20991
L56579 21029
" />
<path d="M56692 20560
L56692 20522
L56673 20485
L56654 20466
L56617 20447
L56542 20429
L56448 20429
L56373 20447
L56336 20466
L56317 20485
L56298 20522
L56298 20560
L56317 20597
L56336 20616
L56373 20635
L56448 20654
L56542 20654
L56617 20635
L56654 20616
L56673 20597
L56692 20560
" />
<path d="M56692 20185
L56692 20147
L56673 20110
L56654 20091
L56617 20072
L56542 20054
L56448 20054
L56373 20072
L56336 20091
L56317 20110
L56298 20147
L56298 20185
L56317 20222
L56336 20241
L56373 20260
L56448 20279
L56542 20279
L56617 20260
L56654 20241
L56673 20222
L56692 20185
" />
<path d="M56692 19810
L56692 19772
L56673 19735
L56654 19716
L56617 19697
L56542 19679
L56448 19679
L56373 19697
L56336 19716
L56317 19735
L56298 19772
L56298 19810
L56317 19847
L56336 19866
L56373 19885
L56448 19904
L56542 19904
L56617 19885
L56654 19866
L56673 19847
L56692 19810
" />
<path d="M56561 19510
L56167 19510
" />
<path d="M56354 19322
L56317 19304
L56298 19266
" />
<path d="M56354 19510
L56317 19491
L56298 19454
L56298 19379
L56317 19341
L56354 19322
L56561 19322
" />
<path d="M56504 18966
L56504 19097
" />
<path d="M56298 19097
L56692 19097
L56692 18910
" />
<path d="M58225 21679
L58225 21379
" />
<path d="M58075 21529
L58375 21529
" />
<path d="M57286 20118
L57267 20137
L57248 20193
L57248 20230
L57267 20287
L57304 20324
L57342 20343
L57417 20362
L57473 20362
L57548 20343
L57586 20324
L57623 20287
L57642 20230
L57642 20193
L57623 20137
L57604 20118
" />
<path d="M57473 19893
L57492 19930
L57511 19949
L57548 19968
L57567 19968
L57604 19949
L57623 19930
L57642 19893
L57642 19818
L57623 19780
L57604 19762
L57567 19743
L57548 19743
L57511 19762
L57492 19780
L57473 19818
L57473 19893
L57454 19930
L57436 19949
L57398 19968
L57323 19968
L57286 19949
L57267 19930
L57248 19893
L57248 19818
L57267 19780
L57286 19762
L57323 19743
L57398 19743
L57436 19762
L57454 19780
L57473 19818
" />
<path d="M78711 27911
L78711 28136
" />
<path d="M78711 28024
L79105 28024
L79048 28061
L79011 28099
L78992 28136
" />
<path d="M79105 27668
L79105 27630
L79086 27593
L79067 27574
L79030 27555
L78955 27536
L78861 27536
L78786 27555
L78748 27574
L78730 27593
L78711 27630
L78711 27668
L78730 27705
L78748 27724
L78786 27743
L78861 27761
L78955 27761
L79030 27743
L79067 27724
L79086 27705
L79105 27668
" />
<path d="M79105 27293
L79105 27255
L79086 27218
L79067 27199
L79030 27180
L78955 27161
L78861 27161
L78786 27180
L78748 27199
L78730 27218
L78711 27255
L78711 27293
L78730 27330
L78748 27349
L78786 27368
L78861 27386
L78955 27386
L79030 27368
L79067 27349
L79086 27330
L79105 27293
" />
<path d="M79105 26918
L79105 26880
L79086 26843
L79067 26824
L79030 26805
L78955 26787
L78861 26787
L78786 26805
L78748 26824
L78730 26843
L78711 26880
L78711 26918
L78730 26955
L78748 26974
L78786 26993
L78861 27012
L78955 27012
L79030 26993
L79067 26974
L79086 26955
L79105 26918
" />
<path d="M78973 26618
L78580 26618
" />
<path d="M78767 26430
L78730 26412
L78711 26374
" />
<path d="M78767 26618
L78730 26599
L78711 26562
L78711 26487
L78730 26449
L78767 26430
L78973 26430
" />
<path d="M78917 26074
L78917 26205
" />
<path d="M78711 26205
L79105 26205
L79105 26018
" />
<path d="M77084 25686
L77084 25387
" />
<path d="M76934 25537
L77234 25537
" />
<path d="M77798 27079
L77780 27097
L77761 27153
L77761 27191
L77780 27247
L77817 27285
L77855 27303
L77930 27322
L77986 27322
L78061 27303
L78098 27285
L78136 27247
L78155 27191
L78155 27153
L78136 27097
L78117 27079
" />
<path d="M78023 26741
L77761 26741
" />
<path d="M78173 26835
L77892 26929
L77892 26685
" />
<path d="M63142 20804
L63142 21029
" />
<path d="M63142 20916
L63536 20916
L63480 20954
L63442 20991
L63423 21029
" />
<path d="M63536 20560
L63536 20522
L63517 20485
L63498 20466
L63461 20447
L63386 20429
L63292 20429
L63217 20447
L63180 20466
L63161 20485
L63142 20522
L63142 20560
L63161 20597
L63180 20616
L63217 20635
L63292 20654
L63386 20654
L63461 20635
L63498 20616
L63517 20597
L63536 20560
" />
<path d="M63536 20185
L63536 20147
L63517 20110
L63498 20091
L63461 20072
L63386 20054
L63292 20054
L63217 20072
L63180 20091
L63161 20110
L63142 20147
L63142 20185
L63161 20222
L63180 20241
L63217 20260
L63292 20279
L63386 20279
L63461 20260
L63498 20241
L63517 20222
L63536 20185
" />
<path d="M63536 19810
L63536 19772
L63517 19735
L63498 19716
L63461 19697
L63386 19679
L63292 19679
L63217 19697
L63180 19716
L63161 19735
L63142 19772
L63142 19810
L63161 19847
L63180 19866
L63217 19885
L63292 19904
L63386 19904
L63461 19885
L63498 19866
L63517 19847
L63536 19810
" />
<path d="M63405 19510
L63011 19510
" />
<path d="M63198 19322
L63161 19304
L63142 19266
" />
<path d="M63198 19510
L63161 19491
L63142 19454
L63142 19379
L63161 19341
L63198 19322
L63405 19322
" />
<path d="M63348 18966
L63348 19097
" />
<path d="M63142 19097
L63536 19097
L63536 18910
" />
<path d="M65069 21679
L65069 21379
" />
<path d="M64919 21529
L65219 21529
" />
<path d="M64130 20118
L64111 20137
L64092 20193
L64092 20230
L64111 20287
L64148 20324
L64186 20343
L64261 20362
L64317 20362
L64392 20343
L64430 20324
L64467 20287
L64486 20230
L64486 20193
L64467 20137
L64448 20118
" />
<path d="M64092 19930
L64092 19855
L64111 19818
L64130 19799
L64186 19762
L64261 19743
L64411 19743
L64448 19762
L64467 19780
L64486 19818
L64486 19893
L64467 19930
L64448 19949
L64411 19968
L64317 19968
L64280 19949
L64261 19930
L64242 19893
L64242 19818
L64261 19780
L64280 19762
L64317 19743
" />
<path d="M79737 37326
L80013 37326
" />
<path d="M79737 36913
L79868 37044
" />
<path d="M79737 37138
L80013 37138
L80013 36988
L80000 36951
L79986 36932
L79960 36913
L79921 36913
L79895 36932
L79881 36951
L79868 36988
L79868 37138
" />
<path d="M79737 36557
L79737 36744
L80013 36744
" />
<path d="M79881 36295
L79868 36238
L79855 36220
L79829 36201
L79790 36201
L79763 36220
L79750 36238
L79737 36276
L79737 36426
L80013 36426
L80013 36295
L80000 36257
L79986 36238
L79960 36220
L79934 36220
L79908 36238
L79895 36257
L79881 36295
L79881 36426
" />
<path d="M80013 36070
L80013 35826
L79908 35957
L79908 35901
L79895 35863
L79881 35845
L79855 35826
L79790 35826
L79763 35845
L79750 35863
L79737 35901
L79737 36013
L79750 36051
L79763 36070
" />
<path d="M80013 35582
L80013 35545
L80000 35507
L79986 35488
L79960 35470
L79908 35451
L79842 35451
L79790 35470
L79763 35488
L79750 35507
L79737 35545
L79737 35582
L79750 35620
L79763 35638
L79790 35657
L79842 35676
L79908 35676
L79960 35657
L79986 35638
L80000 35620
L80013 35582
" />
<path d="M80013 35320
L80013 35076
L79908 35207
L79908 35151
L79895 35113
L79881 35095
L79855 35076
L79790 35076
L79763 35095
L79750 35113
L79737 35151
L79737 35263
L79750 35301
L79763 35320
" />
<path d="M80013 34738
L80013 34813
L80000 34851
L79986 34870
L79947 34907
L79895 34926
L79790 34926
L79763 34907
L79750 34888
L79737 34851
L79737 34776
L79750 34738
L79763 34720
L79790 34701
L79855 34701
L79881 34720
L79895 34738
L79908 34776
L79908 34851
L79895 34888
L79881 34907
L79855 34926
" />
<path d="M80000 34326
L80013 34364
L80013 34420
L80000 34476
L79973 34513
L79947 34532
L79895 34551
L79855 34551
L79803 34532
L79776 34513
L79750 34476
L79737 34420
L79737 34382
L79750 34326
L79763 34307
L79855 34307
L79855 34382
" />
<path d="M68237 37326
L68513 37326
" />
<path d="M68237 36913
L68368 37044
" />
<path d="M68237 37138
L68513 37138
L68513 36988
L68500 36951
L68486 36932
L68460 36913
L68421 36913
L68395 36932
L68381 36951
L68368 36988
L68368 37138
" />
<path d="M68237 36557
L68237 36744
L68513 36744
" />
<path d="M68381 36295
L68368 36238
L68355 36220
L68329 36201
L68290 36201
L68263 36220
L68250 36238
L68237 36276
L68237 36426
L68513 36426
L68513 36295
L68500 36257
L68486 36238
L68460 36220
L68434 36220
L68408 36238
L68395 36257
L68381 36295
L68381 36426
" />
<path d="M68513 36070
L68513 35826
L68408 35957
L68408 35901
L68395 35863
L68381 35845
L68355 35826
L68290 35826
L68263 35845
L68250 35863
L68237 35901
L68237 36013
L68250 36051
L68263 36070
" />
<path d="M68513 35582
L68513 35545
L68500 35507
L68486 35488
L68460 35470
L68408 35451
L68342 35451
L68290 35470
L68263 35488
L68250 35507
L68237 35545
L68237 35582
L68250 35620
L68263 35638
L68290 35657
L68342 35676
L68408 35676
L68460 35657
L68486 35638
L68500 35620
L68513 35582
" />
<path d="M68513 35320
L68513 35076
L68408 35207
L68408 35151
L68395 35113
L68381 35095
L68355 35076
L68290 35076
L68263 35095
L68250 35113
L68237 35151
L68237 35263
L68250 35301
L68263 35320
" />
<path d="M68513 34738
L68513 34813
L68500 34851
L68486 34870
L68447 34907
L68395 34926
L68290 34926
L68263 34907
L68250 34888
L68237 34851
L68237 34776
L68250 34738
L68263 34720
L68290 34701
L68355 34701
L68381 34720
L68395 34738
L68408 34776
L68408 34851
L68395 34888
L68381 34907
L68355 34926
" />
<path d="M68500 34326
L68513 34364
L68513 34420
L68500 34476
L68473 34513
L68447 34532
L68395 34551
L68355 34551
L68303 34532
L68276 34513
L68250 34476
L68237 34420
L68237 34382
L68250 34326
L68263 34307
L68355 34307
L68355 34382
" />
<path d="M72070 37326
L72346 37326
" />
<path d="M72070 36913
L72202 37044
" />
<path d="M72070 37138
L72346 37138
L72346 36988
L72333 36951
L72320 36932
L72294 36913
L72254 36913
L72228 36932
L72215 36951
L72202 36988
L72202 37138
" />
<path d="M72070 36557
L72070 36744
L72346 36744
" />
<path d="M72215 36295
L72202 36238
L72189 36220
L72162 36201
L72123 36201
L72097 36220
L72084 36238
L72070 36276
L72070 36426
L72346 36426
L72346 36295
L72333 36257
L72320 36238
L72294 36220
L72267 36220
L72241 36238
L72228 36257
L72215 36295
L72215 36426
" />
<path d="M72346 36070
L72346 35826
L72241 35957
L72241 35901
L72228 35863
L72215 35845
L72189 35826
L72123 35826
L72097 35845
L72084 35863
L72070 35901
L72070 36013
L72084 36051
L72097 36070
" />
<path d="M72346 35582
L72346 35545
L72333 35507
L72320 35488
L72294 35470
L72241 35451
L72175 35451
L72123 35470
L72097 35488
L72084 35507
L72070 35545
L72070 35582
L72084 35620
L72097 35638
L72123 35657
L72175 35676
L72241 35676
L72294 35657
L72320 35638
L72333 35620
L72346 35582
" />
<path d="M72346 35320
L72346 35076
L72241 35207
L72241 35151
L72228 35113
L72215 35095
L72189 35076
L72123 35076
L72097 35095
L72084 35113
L72070 35151
L72070 35263
L72084 35301
L72097 35320
" />
<path d="M72346 34738
L72346 34813
L72333 34851
L72320 34870
L72280 34907
L72228 34926
L72123 34926
L72097 34907
L72084 34888
L72070 34851
L72070 34776
L72084 34738
L72097 34720
L72123 34701
L72189 34701
L72215 34720
L72228 34738
L72241 34776
L72241 34851
L72228 34888
L72215 34907
L72189 34926
" />
<path d="M72333 34326
L72346 34364
L72346 34420
L72333 34476
L72307 34513
L72280 34532
L72228 34551
L72189 34551
L72136 34532
L72110 34513
L72084 34476
L72070 34420
L72070 34382
L72084 34326
L72097 34307
L72189 34307
L72189 34382
" />
<path d="M75904 37326
L76179 37326
" />
<path d="M75904 36913
L76035 37044
" />
<path d="M75904 37138
L76179 37138
L76179 36988
L76166 36951
L76153 36932
L76127 36913
L76088 36913
L76061 36932
L76048 36951
L76035 36988
L76035 37138
" />
<path d="M75904 36557
L75904 36744
L76179 36744
" />
<path d="M76048 36295
L76035 36238
L76022 36220
L75996 36201
L75956 36201
L75930 36220
L75917 36238
L75904 36276
L75904 36426
L76179 36426
L76179 36295
L76166 36257
L76153 36238
L76127 36220
L76101 36220
L76074 36238
L76061 36257
L76048 36295
L76048 36426
" />
<path d="M76179 36070
L76179 35826
L76074 35957
L76074 35901
L76061 35863
L76048 35845
L76022 35826
L75956 35826
L75930 35845
L75917 35863
L75904 35901
L75904 36013
L75917 36051
L75930 36070
" />
<path d="M76179 35582
L76179 35545
L76166 35507
L76153 35488
L76127 35470
L76074 35451
L76009 35451
L75956 35470
L75930 35488
L75917 35507
L75904 35545
L75904 35582
L75917 35620
L75930 35638
L75956 35657
L76009 35676
L76074 35676
L76127 35657
L76153 35638
L76166 35620
L76179 35582
" />
<path d="M76179 35320
L76179 35076
L76074 35207
L76074 35151
L76061 35113
L76048 35095
L76022 35076
L75956 35076
L75930 35095
L75917 35113
L75904 35151
L75904 35263
L75917 35301
L75930 35320
" />
<path d="M76179 34738
L76179 34813
L76166 34851
L76153 34870
L76114 34907
L76061 34926
L75956 34926
L75930 34907
L75917 34888
L75904 34851
L75904 34776
L75917 34738
L75930 34720
L75956 34701
L76022 34701
L76048 34720
L76061 34738
L76074 34776
L76074 34851
L76061 34888
L76048 34907
L76022 34926
" />
<path d="M76166 34326
L76179 34364
L76179 34420
L76166 34476
L76140 34513
L76114 34532
L76061 34551
L76022 34551
L75969 34532
L75943 34513
L75917 34476
L75904 34420
L75904 34382
L75917 34326
L75930 34307
L76022 34307
L76022 34382
" />
<path d="M84919 36796
L85313 36796
L85032 36691
L85313 36586
L84919 36586
" />
<path d="M85313 36436
L84994 36436
L84957 36421
L84938 36406
L84919 36376
L84919 36316
L84938 36286
L84957 36271
L84994 36256
L85313 36256
" />
<path d="M84919 35926
L85107 36031
" />
<path d="M84919 36106
L85313 36106
L85313 35986
L85294 35956
L85275 35941
L85238 35926
L85182 35926
L85144 35941
L85125 35956
L85107 35986
L85107 36106
" />
<path d="M85182 35656
L84919 35656
" />
<path d="M85332 35731
L85050 35806
L85050 35611
" />
<path d="M85275 35506
L85294 35491
L85313 35461
L85313 35386
L85294 35356
L85275 35341
L85238 35326
L85200 35326
L85144 35341
L84919 35521
L84919 35326
" />
<path d="M85313 35131
L85313 35101
L85294 35071
L85275 35056
L85238 35041
L85163 35026
L85069 35026
L84994 35041
L84957 35056
L84938 35071
L84919 35101
L84919 35131
L84938 35161
L84957 35176
L84994 35191
L85069 35206
L85163 35206
L85238 35191
L85275 35176
L85294 35161
L85313 35131
" />
<path d="M84919 34711
L85107 34816
" />
<path d="M84919 34891
L85313 34891
L85313 34771
L85294 34741
L85275 34726
L85238 34711
L85182 34711
L85144 34726
L85125 34741
L85107 34771
L85107 34891
" />
<path d="M84919 34426
L84919 34576
L85313 34576
" />
<path d="M84714 32637
L85107 32637
" />
<path d="M84714 32412
L84939 32581
" />
<path d="M85107 32412
L84882 32637
" />
<path d="M89964 36796
L90358 36796
L90076 36691
L90358 36586
L89964 36586
" />
<path d="M90358 36436
L90039 36436
L90001 36421
L89983 36406
L89964 36376
L89964 36316
L89983 36286
L90001 36271
L90039 36256
L90358 36256
" />
<path d="M89964 35926
L90151 36031
" />
<path d="M89964 36106
L90358 36106
L90358 35986
L90339 35956
L90320 35941
L90283 35926
L90226 35926
L90189 35941
L90170 35956
L90151 35986
L90151 36106
" />
<path d="M90226 35656
L89964 35656
" />
<path d="M90376 35731
L90095 35806
L90095 35611
" />
<path d="M90320 35506
L90339 35491
L90358 35461
L90358 35386
L90339 35356
L90320 35341
L90283 35326
L90245 35326
L90189 35341
L89964 35521
L89964 35326
" />
<path d="M90358 35131
L90358 35101
L90339 35071
L90320 35056
L90283 35041
L90208 35026
L90114 35026
L90039 35041
L90001 35056
L89983 35071
L89964 35101
L89964 35131
L89983 35161
L90001 35176
L90039 35191
L90114 35206
L90208 35206
L90283 35191
L90320 35176
L90339 35161
L90358 35131
" />
<path d="M89964 34711
L90151 34816
" />
<path d="M89964 34891
L90358 34891
L90358 34771
L90339 34741
L90320 34726
L90283 34711
L90226 34711
L90189 34726
L90170 34741
L90151 34771
L90151 34891
" />
<path d="M89964 34426
L89964 34576
L90358 34576
" />
<path d="M89758 32637
L90152 32637
" />
<path d="M89758 32412
L89983 32581
" />
<path d="M90152 32412
L89927 32637
" />
<path d="M87442 36796
L87835 36796
L87554 36691
L87835 36586
L87442 36586
" />
<path d="M87835 36436
L87517 36436
L87479 36421
L87460 36406
L87442 36376
L87442 36316
L87460 36286
L87479 36271
L87517 36256
L87835 36256
" />
<path d="M87442 35926
L87629 36031
" />
<path d="M87442 36106
L87835 36106
L87835 35986
L87817 35956
L87798 35941
L87760 35926
L87704 35926
L87667 35941
L87648 35956
L87629 35986
L87629 36106
" />
<path d="M87704 35656
L87442 35656
" />
<path d="M87854 35731
L87573 35806
L87573 35611
" />
<path d="M87798 35506
L87817 35491
L87835 35461
L87835 35386
L87817 35356
L87798 35341
L87760 35326
L87723 35326
L87667 35341
L87442 35521
L87442 35326
" />
<path d="M87835 35131
L87835 35101
L87817 35071
L87798 35056
L87760 35041
L87685 35026
L87592 35026
L87517 35041
L87479 35056
L87460 35071
L87442 35101
L87442 35131
L87460 35161
L87479 35176
L87517 35191
L87592 35206
L87685 35206
L87760 35191
L87798 35176
L87817 35161
L87835 35131
" />
<path d="M87442 34711
L87629 34816
" />
<path d="M87442 34891
L87835 34891
L87835 34771
L87817 34741
L87798 34726
L87760 34711
L87704 34711
L87667 34726
L87648 34741
L87629 34771
L87629 34891
" />
<path d="M87442 34426
L87442 34576
L87835 34576
" />
<path d="M87236 32637
L87630 32637
" />
<path d="M87236 32412
L87461 32581
" />
<path d="M87630 32412
L87405 32637
" />
<path d="M92486 36796
L92880 36796
L92599 36691
L92880 36586
L92486 36586
" />
<path d="M92880 36436
L92561 36436
L92524 36421
L92505 36406
L92486 36376
L92486 36316
L92505 36286
L92524 36271
L92561 36256
L92880 36256
" />
<path d="M92486 35926
L92674 36031
" />
<path d="M92486 36106
L92880 36106
L92880 35986
L92861 35956
L92843 35941
L92805 35926
L92749 35926
L92711 35941
L92693 35956
L92674 35986
L92674 36106
" />
<path d="M92749 35656
L92486 35656
" />
<path d="M92899 35731
L92618 35806
L92618 35611
" />
<path d="M92843 35506
L92861 35491
L92880 35461
L92880 35386
L92861 35356
L92843 35341
L92805 35326
L92768 35326
L92711 35341
L92486 35521
L92486 35326
" />
<path d="M92880 35131
L92880 35101
L92861 35071
L92843 35056
L92805 35041
L92730 35026
L92636 35026
L92561 35041
L92524 35056
L92505 35071
L92486 35101
L92486 35131
L92505 35161
L92524 35176
L92561 35191
L92636 35206
L92730 35206
L92805 35191
L92843 35176
L92861 35161
L92880 35131
" />
<path d="M92486 34711
L92674 34816
" />
<path d="M92486 34891
L92880 34891
L92880 34771
L92861 34741
L92843 34726
L92805 34711
L92749 34711
L92711 34726
L92693 34741
L92674 34771
L92674 34891
" />
<path d="M92486 34426
L92486 34576
L92880 34576
" />
<path d="M92281 32637
L92675 32637
" />
<path d="M92281 32412
L92506 32581
" />
<path d="M92675 32412
L92450 32637
" />
<g >
</g>
</g> 
</svg>
