<?xml version="1.0" standalone="no"?>
 <!DOCTYPE svg PUBLIC "-//W3C//DTD SVG 1.1//EN" 
 "http://www.w3.org/Graphics/SVG/1.1/DTD/svg11.dtd"> 
<svg xmlns="http://www.w3.org/2000/svg" version="1.1" 
    width="29.7002cm" height="21.0007cm" viewBox="0 0 116930 82680 ">
<title>SVG Picture created as maximiseur3-F_SilkS.svg date 2019/08/20 00:25:28 </title>
  <desc>Picture generated by PCBNEW </desc>
<g style="fill:#000000; fill-opacity:1;stroke:#000000; stroke-opacity:1;
stroke-linecap:round; stroke-linejoin:round; "
 transform="translate(0 0) scale(1 1)">
</g>
<g style="fill:#000000; fill-opacity:0.0; 
stroke:#000000; stroke-width:-0.000393701; stroke-opacity:1; 
stroke-linecap:round; stroke-linejoin:round;">
</g>
<g style="fill:#000000; fill-opacity:0.0; 
stroke:#000000; stroke-width:39.3701; stroke-opacity:1; 
stroke-linecap:round; stroke-linejoin:round;">
<path d="M14400 52970
L14400 13600
" />
<path d="M73455 52970
L14400 52970
" />
<path d="M73455 13600
L73455 52970
" />
<path d="M14400 13600
L73455 13600
" />
</g>
<g style="fill:#000000; fill-opacity:0.0; 
stroke:#000000; stroke-width:118.11; stroke-opacity:1; 
stroke-linecap:round; stroke-linejoin:round;">
<path d="M21078 26857
L21078 27757
" />
<path d="M20628 27307
L21528 27307
" />
<path d="M20628 42504
L21809 42504
L20966 42898
L21809 43292
L20628 43292
" />
<path d="M21078 44754
L21078 45654
" />
<path d="M20628 17043
L21809 17043
L21809 17493
L21753 17605
L21697 17662
L21584 17718
L21416 17718
L21303 17662
L21247 17605
L21191 17493
L21191 17043
" />
<path d="M21809 18055
L20628 18449
L21809 18843
" />
<path d="M21078 20136
L21078 21036
" />
</g>
<g style="fill:#000000; fill-opacity:0.0; 
stroke:#000000; stroke-width:59.0551; stroke-opacity:1; 
stroke-linecap:round; stroke-linejoin:round;">
<path d="M56036 29534
L56036 32173
" />
<circle cx="56036.2" cy="32534.3" r="360.555" /> 
<circle cx="56036.2" cy="29184.3" r="353.554" /> 
</g>
<g style="fill:#000000; fill-opacity:0.0; 
stroke:#000000; stroke-width:118.11; stroke-opacity:1; 
stroke-linecap:round; stroke-linejoin:round;">
<path d="M62701 42527
L62729 42442
L62729 42302
L62701 42246
L62673 42217
L62616 42189
L62560 42189
L62504 42217
L62476 42246
L62448 42302
L62420 42414
L62391 42470
L62363 42499
L62307 42527
L62251 42527
L62195 42499
L62166 42470
L62138 42414
L62138 42274
L62166 42189
" />
<path d="M62420 41936
L62420 41739
" />
<path d="M62729 41655
L62729 41936
L62138 41936
L62138 41655
" />
<path d="M62138 41402
L62616 41402
L62673 41374
L62701 41346
L62729 41289
L62729 41177
L62701 41121
L62673 41093
L62616 41064
L62138 41064
" />
<path d="M62729 40783
L62138 40783
" />
<path d="M62729 40221
L62729 40502
L62138 40502
" />
</g>
<g style="fill:#000000; fill-opacity:0.0; 
stroke:#000000; stroke-width:78.7402; stroke-opacity:1; 
stroke-linecap:round; stroke-linejoin:round;">
<path d="M60290 51879
L59290 52091
" />
<path d="M60790 51879
L60290 51879
" />
<path d="M58790 51879
L59190 51879
" />
<path d="M60790 51479
L60790 51879
" />
<path d="M58790 51479
L58790 51879
" />
</g>
<g style="fill:#000000; fill-opacity:0.0; 
stroke:#000000; stroke-width:59.0551; stroke-opacity:1; 
stroke-linecap:round; stroke-linejoin:round;">
<path d="M57904 51154
L61904 51154
" />
<path d="M57904 48154
L57904 51154
" />
<path d="M61904 48154
L57904 48154
" />
<path d="M61904 51154
L61904 48154
" />
<path d="M61904 50654
L57904 50654
" />
</g>
<g style="fill:#000000; fill-opacity:0.0; 
stroke:#000000; stroke-width:47.2441; stroke-opacity:1; 
stroke-linecap:round; stroke-linejoin:round;">
<circle cx="71486.6" cy="51001.6" r="1746.42" /> 
<circle cx="71486.6" cy="51001.6" r="1044.03" /> 
<circle cx="71486.6" cy="15568.5" r="1746.42" /> 
<circle cx="71486.6" cy="15568.5" r="1044.03" /> 
<circle cx="16368.5" cy="51001.6" r="1746.42" /> 
<circle cx="16368.5" cy="51001.6" r="1044.03" /> 
<circle cx="16368.5" cy="15500" r="1746.42" /> 
<circle cx="16368.5" cy="15500" r="1044.03" /> 
</g>
<g style="fill:#000000; fill-opacity:0.0; 
stroke:#000000; stroke-width:59.0551; stroke-opacity:1; 
stroke-linecap:round; stroke-linejoin:round;">
<path d="M59155 43324
L60139 43324
" />
<path d="M58544 42773
L59155 43324
" />
<path d="M59155 40962
L60139 40962
" />
<path d="M58544 41513
L59155 40962
" />
<path d="M59824 42419
L59824 41867
" />
<path d="M60100 42143
L59548 42143
" />
<path d="M61104 42497
L61104 41789
" />
<path d="M33789 38600
L35561 38600
" />
<path d="M33789 32497
L35561 32497
" />
<path d="M33789 38600
L33789 32497
" />
<path d="M35561 38600
L35561 32497
" />
<path d="M22175 32300
L20403 32300
" />
<path d="M22175 38403
L20403 38403
" />
<path d="M22175 32300
L22175 38403
" />
<path d="M20403 32300
L20403 38403
" />
<path d="M31033 24033
L32805 24033
" />
<path d="M31033 17930
L32805 17930
" />
<path d="M31033 24033
L31033 17930
" />
<path d="M32805 24033
L32805 17930
" />
</g>
<g style="fill:#000000; fill-opacity:0.0; 
stroke:#000000; stroke-width:47.2441; stroke-opacity:1; 
stroke-linecap:round; stroke-linejoin:round;">
<path d="M55574 37428
L55574 37231
" />
<path d="M55672 37329
L55475 37329
" />
</g>
<g style="fill:#000000; fill-opacity:0.0; 
stroke:#000000; stroke-width:59.0551; stroke-opacity:1; 
stroke-linecap:round; stroke-linejoin:round;">
<circle cx="54560.6" cy="36599.2" r="1073.55" /> 
</g>
<g style="fill:#000000; fill-opacity:0.0; 
stroke:#000000; stroke-width:47.2441; stroke-opacity:1; 
stroke-linecap:round; stroke-linejoin:round;">
<path d="M54744 23904
L54114 23904
" />
<path d="M54429 23589
L54429 24219
" />
<circle cx="52636.2" cy="27010.6" r="3196.85" /> 
<path d="M47927 23904
L47297 23904
" />
<path d="M47612 23589
L47612 24219
" />
<circle cx="45819.6" cy="27010.6" r="3196.85" /> 
<path d="M36877 23152
L37507 23152
" />
<path d="M37192 23467
L37192 22837
" />
<circle cx="38986.2" cy="20046.1" r="3196.85" /> 
<path d="M41044 23854
L40414 23854
" />
<path d="M40729 23539
L40729 24169
" />
<circle cx="38936.2" cy="26960.6" r="3196.85" /> 
<path d="M57377 23152
L58007 23152
" />
<path d="M57692 23467
L57692 22837
" />
<circle cx="59486.2" cy="20046.1" r="3196.85" /> 
<path d="M50544 23152
L51174 23152
" />
<path d="M50859 23467
L50859 22837
" />
<circle cx="52652.9" cy="20046.1" r="3196.85" /> 
<path d="M61594 23904
L60964 23904
" />
<path d="M61279 23589
L61279 24219
" />
<circle cx="59486.2" cy="27010.6" r="3196.85" /> 
<path d="M43711 23152
L44341 23152
" />
<path d="M44026 23467
L44026 22837
" />
<circle cx="45819.6" cy="20046.1" r="3196.85" /> 
<path d="M56525 38441
L56525 39323
" />
<path d="M53674 38441
L53674 39323
" />
<path d="M53674 39323
L56525 39323
" />
<path d="M53674 38441
L56525 38441
" />
<path d="M48667 37843
L48667 38146
" />
<path d="M48667 41024
L48667 40721
" />
<path d="M48128 38146
L48128 40721
" />
<path d="M49207 38146
L48128 38146
" />
<path d="M49207 40721
L49207 38146
" />
<path d="M48128 40721
L49207 40721
" />
<path d="M46767 37843
L46767 38146
" />
<path d="M46767 41024
L46767 40721
" />
<path d="M46228 38146
L46228 40721
" />
<path d="M47307 38146
L46228 38146
" />
<path d="M47307 40721
L47307 38146
" />
<path d="M46228 40721
L47307 40721
" />
<path d="M42767 37843
L42767 38146
" />
<path d="M42767 41024
L42767 40721
" />
<path d="M42228 38146
L42228 40721
" />
<path d="M43307 38146
L42228 38146
" />
<path d="M43307 40721
L43307 38146
" />
<path d="M42228 40721
L43307 40721
" />
<path d="M38967 37843
L38967 38146
" />
<path d="M38967 41024
L38967 40721
" />
<path d="M38428 38146
L38428 40721
" />
<path d="M39507 38146
L38428 38146
" />
<path d="M39507 40721
L39507 38146
" />
<path d="M38428 40721
L39507 40721
" />
<path d="M51470 41402
L51773 41402
" />
<path d="M54651 41402
L54348 41402
" />
<path d="M51773 41941
L54348 41941
" />
<path d="M51773 40862
L51773 41941
" />
<path d="M54348 40862
L51773 40862
" />
<path d="M54348 41941
L54348 40862
" />
<path d="M56997 40142
L56694 40142
" />
<path d="M53816 40142
L54119 40142
" />
<path d="M56694 39603
L54119 39603
" />
<path d="M56694 40681
L56694 39603
" />
<path d="M54119 40681
L56694 40681
" />
<path d="M54119 39603
L54119 40681
" />
<path d="M50682 43449
L50985 43449
" />
<path d="M53863 43449
L53560 43449
" />
<path d="M50985 43988
L53560 43988
" />
<path d="M50985 42910
L50985 43988
" />
<path d="M53560 42910
L50985 42910
" />
<path d="M53560 43988
L53560 42910
" />
<path d="M58162 45883
L58466 45883
" />
<path d="M61344 45883
L61040 45883
" />
<path d="M58466 46422
L61040 46422
" />
<path d="M58466 45344
L58466 46422
" />
<path d="M61040 45344
L58466 45344
" />
<path d="M61040 46422
L61040 45344
" />
<path d="M61328 38488
L61025 38488
" />
<path d="M58147 38488
L58450 38488
" />
<path d="M61025 37949
L58450 37949
" />
<path d="M61025 39028
L61025 37949
" />
<path d="M58450 39028
L61025 39028
" />
<path d="M58450 37949
L58450 39028
" />
<path d="M59458 34334
L59155 34334
" />
<path d="M56277 34334
L56580 34334
" />
<path d="M59155 33794
L56580 33794
" />
<path d="M59155 34873
L59155 33794
" />
<path d="M56580 34873
L59155 34873
" />
<path d="M56580 33794
L56580 34873
" />
</g>
<g style="fill:#000000; fill-opacity:0.0; 
stroke:#000000; stroke-width:59.0551; stroke-opacity:1; 
stroke-linecap:round; stroke-linejoin:round;">
<path d="M36817 35408
L36817 33308
" />
<path d="M36817 35408
L36817 37508
" />
<path d="M37267 37508
L36817 37508
" />
<path d="M36817 33308
L37267 33308
" />
<path d="M38717 37508
L37267 37508
" />
<path d="M37267 33308
L38717 33308
" />
<path d="M36817 34808
L37267 34808
" />
<path d="M36817 36008
L37267 36008
" />
<path d="M38717 33308
L38717 33958
" />
<path d="M38767 34808
L38767 35058
" />
<path d="M38767 35808
L38767 36058
" />
<path d="M38717 37508
L38717 36858
" />
<path d="M37267 37508
L37267 36808
" />
<path d="M37267 36008
L37267 35758
" />
<path d="M37267 36008
L37267 36058
" />
<path d="M37267 35058
L37267 34758
" />
<path d="M37267 33308
L37267 34058
" />
<path d="M48317 35408
L48317 33308
" />
<path d="M48317 35408
L48317 37508
" />
<path d="M48767 37508
L48317 37508
" />
<path d="M48317 33308
L48767 33308
" />
<path d="M50217 37508
L48767 37508
" />
<path d="M48767 33308
L50217 33308
" />
<path d="M48317 34808
L48767 34808
" />
<path d="M48317 36008
L48767 36008
" />
<path d="M50217 33308
L50217 33958
" />
<path d="M50267 34808
L50267 35058
" />
<path d="M50267 35808
L50267 36058
" />
<path d="M50217 37508
L50217 36858
" />
<path d="M48767 37508
L48767 36808
" />
<path d="M48767 36008
L48767 35758
" />
<path d="M48767 36008
L48767 36058
" />
<path d="M48767 35058
L48767 34758
" />
<path d="M48767 33308
L48767 34058
" />
<path d="M44484 35408
L44484 33308
" />
<path d="M44484 35408
L44484 37508
" />
<path d="M44934 37508
L44484 37508
" />
<path d="M44484 33308
L44934 33308
" />
<path d="M46384 37508
L44934 37508
" />
<path d="M44934 33308
L46384 33308
" />
<path d="M44484 34808
L44934 34808
" />
<path d="M44484 36008
L44934 36008
" />
<path d="M46384 33308
L46384 33958
" />
<path d="M46434 34808
L46434 35058
" />
<path d="M46434 35808
L46434 36058
" />
<path d="M46384 37508
L46384 36858
" />
<path d="M44934 37508
L44934 36808
" />
<path d="M44934 36008
L44934 35758
" />
<path d="M44934 36008
L44934 36058
" />
<path d="M44934 35058
L44934 34758
" />
<path d="M44934 33308
L44934 34058
" />
<path d="M40651 35408
L40651 33308
" />
<path d="M40651 35408
L40651 37508
" />
<path d="M41101 37508
L40651 37508
" />
<path d="M40651 33308
L41101 33308
" />
<path d="M42551 37508
L41101 37508
" />
<path d="M41101 33308
L42551 33308
" />
<path d="M40651 34808
L41101 34808
" />
<path d="M40651 36008
L41101 36008
" />
<path d="M42551 33308
L42551 33958
" />
<path d="M42601 34808
L42601 35058
" />
<path d="M42601 35808
L42601 36058
" />
<path d="M42551 37508
L42551 36858
" />
<path d="M41101 37508
L41101 36808
" />
<path d="M41101 36008
L41101 35758
" />
<path d="M41101 36008
L41101 36058
" />
<path d="M41101 35058
L41101 34758
" />
<path d="M41101 33308
L41101 34058
" />
</g>
<g style="fill:#000000; fill-opacity:0.0; 
stroke:#000000; stroke-width:47.2441; stroke-opacity:1; 
stroke-linecap:round; stroke-linejoin:round;">
<path d="M53666 46075
L53174 46075
" />
<path d="M53666 50122
L53666 46075
" />
<path d="M51895 50122
L53666 50122
" />
<path d="M51895 46075
L51895 50122
" />
<path d="M52387 46075
L51895 46075
" />
<path d="M52387.4 46075.6 A393.701 393.701 0.0 0 0 53174.8 46075.6 " />
<path d="M47885 48378
L47885 47654
" />
<path d="M47790 48378
L47790 47654
" />
<path d="M47837 48378
L47837 47654
" />
<path d="M46308 48016
L46773 48016
" />
<path d="M48529 48016
L48064 48016
" />
<path d="M46773 48378
L48064 48378
" />
<path d="M46773 47654
L46773 48378
" />
<path d="M48064 47654
L46773 47654
" />
<path d="M48064 48378
L48064 47654
" />
<path d="M60505 33300
L61229 33300
" />
<path d="M60505 33205
L61229 33205
" />
<path d="M60505 33253
L61229 33253
" />
<path d="M60867 31724
L60867 32188
" />
<path d="M60867 33944
L60867 33479
" />
<path d="M60505 32188
L60505 33479
" />
<path d="M61229 32188
L60505 32188
" />
<path d="M61229 33479
L61229 32188
" />
<path d="M60505 33479
L61229 33479
" />
<path d="M51863 45386
L51863 44504
" />
<path d="M54714 45386
L54714 44504
" />
<path d="M54714 44504
L51863 44504
" />
<path d="M54714 45386
L51863 45386
" />
<path d="M32222 33715
L30041 33715
" />
<path d="M30041 33715
L30041 37353
" />
<path d="M30041 37353
L32222 37353
" />
<path d="M32222 37353
L32222 33715
" />
<path d="M31132 33140
L31132 33715
" />
<path d="M31132 37927
L31132 37353
" />
<path d="M32222 34294
L30041 34294
" />
<path d="M32222 34341
L30041 34341
" />
<path d="M32222 34246
L30041 34246
" />
<path d="M27177 33715
L24996 33715
" />
<path d="M24996 33715
L24996 37353
" />
<path d="M24996 37353
L27177 37353
" />
<path d="M27177 37353
L27177 33715
" />
<path d="M26087 33140
L26087 33715
" />
<path d="M26087 37927
L26087 37353
" />
<path d="M27177 34294
L24996 34294
" />
<path d="M27177 34341
L24996 34341
" />
<path d="M27177 34246
L24996 34246
" />
<path d="M29700 33715
L27519 33715
" />
<path d="M27519 33715
L27519 37353
" />
<path d="M27519 37353
L29700 37353
" />
<path d="M29700 37353
L29700 33715
" />
<path d="M28609 33140
L28609 33715
" />
<path d="M28609 37927
L28609 37353
" />
<path d="M29700 34294
L27519 34294
" />
<path d="M29700 34341
L27519 34341
" />
<path d="M29700 34246
L27519 34246
" />
<path d="M24655 33715
L22474 33715
" />
<path d="M22474 33715
L22474 37353
" />
<path d="M22474 37353
L24655 37353
" />
<path d="M24655 37353
L24655 33715
" />
<path d="M23564 33140
L23564 33715
" />
<path d="M23564 37927
L23564 37353
" />
<path d="M24655 34294
L22474 34294
" />
<path d="M24655 34341
L22474 34341
" />
<path d="M24655 34246
L22474 34246
" />
<path d="M58148 36746
L58148 37073
" />
<path d="M58148 35699
L58148 36321
" />
<path d="M56887 36947
L56887 37073
" />
<path d="M56887 35699
L56887 36120
" />
<path d="M59139 35699
L59139 37073
" />
<path d="M55895 35699
L55895 37073
" />
<path d="M55895 37073
L59139 37073
" />
<path d="M55895 35699
L59139 35699
" />
<path d="M55917 35834
L59117 35834
" />
</g>
<g style="fill:#000000; fill-opacity:0.0; 
stroke:#000000; stroke-width:59.0551; stroke-opacity:1; 
stroke-linecap:round; stroke-linejoin:round;">
<path d="M22290 24728
L22290 30240
" />
<path d="M29377 24728
L22290 24728
" />
<path d="M29377 30240
L29377 24728
" />
<path d="M22290 30240
L29377 30240
" />
<path d="M29408 46390
L29408 40878
" />
<path d="M22321 46390
L29408 46390
" />
<path d="M22321 40878
L22321 46390
" />
<path d="M29408 40878
L22321 40878
" />
<path d="M29427 21593
L29427 16081
" />
<path d="M22340 21593
L29427 21593
" />
<path d="M22340 16081
L22340 21593
" />
<path d="M29427 16081
L22340 16081
" />
<g >
</g>
<g style="fill:#000000; fill-opacity:0.0; 
stroke:#000000; stroke-width:39.3701; stroke-opacity:1; 
stroke-linecap:round; stroke-linejoin:round;">
<circle cx="60904.7" cy="49654.3" r="570.866" /> 
<path style="fill:#000000; fill-opacity:0.0; 
stroke:#000000; stroke-width:39.3701; stroke-opacity:1; 
stroke-linecap:round; stroke-linejoin:round;fill:none"
d="M 58333,50225
58333,49083
59475,49083
59475,50225
58333,50225
Z" /> 
</g>
<g >
</g>
<g >
</g>
<g >
</g>
<g >
</g>
<g >
</g>
<g style="fill:#000000; fill-opacity:0.0; 
stroke:#000000; stroke-width:39.3701; stroke-opacity:1; 
stroke-linecap:round; stroke-linejoin:round;">
<circle cx="60808.7" cy="43127.6" r="570.866" /> 
<circle cx="60808.7" cy="41159.6" r="570.866" /> 
<circle cx="58840.7" cy="42143.6" r="570.866" /> 
</g>
<g >
</g>
<g >
</g>
<g >
</g>
<g >
</g>
<g >
</g>
<g >
</g>
<g >
</g>
<g >
</g>
<g >
</g>
<g >
</g>
<g >
</g>
<g >
</g>
<g >
</g>
<g >
</g>
<g >
</g>
<g >
</g>
<g >
</g>
<g >
</g>
<g >
</g>
<g >
</g>
<g >
</g>
<g >
</g>
<g >
</g>
<g >
</g>
<g >
</g>
<g >
</g>
<g >
</g>
<g >
</g>
<g >
</g>
<g >
</g>
<g >
</g>
<g >
</g>
<g >
</g>
<g >
</g>
<g >
</g>
<g >
</g>
<g >
</g>
<g >
</g>
<g >
</g>
</g>
<g style="fill:#000000; fill-opacity:0.0; 
stroke:#000000; stroke-width:39.3701; stroke-opacity:1; 
stroke-linecap:round; stroke-linejoin:round;">
</g>
<g style="fill:#000000; fill-opacity:0.0; 
stroke:#000000; stroke-width:59.0551; stroke-opacity:1; 
stroke-linecap:round; stroke-linejoin:round;">
<path d="M61815 48842
L61421 48842
L61421 48692
L61440 48655
L61458 48636
L61496 48617
L61552 48617
L61590 48636
L61608 48655
L61627 48692
L61627 48842
" />
<path d="M61815 48242
L61815 48467
" />
<path d="M61815 48355
L61421 48355
L61477 48392
L61515 48430
L61533 48467
" />
<path d="M58502 40877
L58315 41009
" />
<path d="M58502 41102
L58109 41102
L58109 40952
L58127 40915
L58146 40896
L58184 40877
L58240 40877
L58277 40896
L58296 40915
L58315 40952
L58315 41102
" />
<path d="M58109 40765
L58502 40634
L58109 40502
" />
<path d="M58502 40165
L58502 40390
" />
<path d="M58502 40277
L58109 40277
L58165 40315
L58202 40352
L58221 40390
" />
<path d="M35739 36064
L36133 35933
L35739 35801
" />
<path d="M36133 35445
L35945 35576
" />
<path d="M36133 35670
L35739 35670
L35739 35520
L35758 35483
L35777 35464
L35814 35445
L35870 35445
L35908 35464
L35926 35483
L35945 35520
L35945 35670
" />
<path d="M35739 35314
L35739 35070
L35889 35201
L35889 35145
L35908 35108
L35926 35089
L35964 35070
L36058 35070
L36095 35089
L36114 35108
L36133 35145
L36133 35258
L36114 35295
L36095 35314
" />
<path d="M19794 35867
L20188 35736
L19794 35605
" />
<path d="M20188 35248
L20000 35380
" />
<path d="M20188 35473
L19794 35473
L19794 35323
L19813 35286
L19832 35267
L19869 35248
L19925 35248
L19963 35267
L19982 35286
L20000 35323
L20000 35473
" />
<path d="M19832 35098
L19813 35080
L19794 35042
L19794 34948
L19813 34911
L19832 34892
L19869 34873
L19907 34873
L19963 34892
L20188 35117
L20188 34873
" />
<path d="M32983 21497
L33377 21366
L32983 21234
" />
<path d="M33377 20878
L33189 21010
" />
<path d="M33377 21103
L32983 21103
L32983 20953
L33002 20916
L33021 20897
L33058 20878
L33114 20878
L33152 20897
L33171 20916
L33189 20953
L33189 21103
" />
<path d="M33377 20503
L33377 20728
" />
<path d="M33377 20616
L32983 20616
L33039 20653
L33077 20691
L33096 20728
" />
<path d="M53656 35479
L53637 35498
L53581 35517
L53543 35517
L53487 35498
L53450 35461
L53431 35423
L53412 35348
L53412 35292
L53431 35217
L53450 35180
L53487 35142
L53543 35123
L53581 35123
L53637 35142
L53656 35161
" />
<path d="M54031 35517
L53806 35517
" />
<path d="M53918 35517
L53918 35123
L53881 35180
L53843 35217
L53806 35236
" />
<path d="M52383 30774
L52364 30793
L52308 30812
L52270 30812
L52214 30793
L52176 30756
L52158 30718
L52139 30643
L52139 30587
L52158 30512
L52176 30474
L52214 30437
L52270 30418
L52308 30418
L52364 30437
L52383 30456
" />
<path d="M52758 30812
L52533 30812
" />
<path d="M52645 30812
L52645 30418
L52608 30474
L52570 30512
L52533 30531
" />
<path d="M53133 30812
L52908 30812
" />
<path d="M53020 30812
L53020 30418
L52983 30474
L52945 30512
L52908 30531
" />
<path d="M45753 30774
L45735 30793
L45678 30812
L45641 30812
L45585 30793
L45547 30756
L45528 30718
L45510 30643
L45510 30587
L45528 30512
L45547 30474
L45585 30437
L45641 30418
L45678 30418
L45735 30437
L45753 30456
" />
<path d="M46110 30418
L45922 30418
L45903 30606
L45922 30587
L45960 30568
L46053 30568
L46091 30587
L46110 30606
L46128 30643
L46128 30737
L46110 30774
L46091 30793
L46053 30812
L45960 30812
L45922 30793
L45903 30774
" />
<path d="M38733 16563
L38714 16581
L38658 16600
L38620 16600
L38564 16581
L38526 16544
L38508 16506
L38489 16431
L38489 16375
L38508 16300
L38526 16263
L38564 16225
L38620 16206
L38658 16206
L38714 16225
L38733 16244
" />
<path d="M39108 16600
L38883 16600
" />
<path d="M38995 16600
L38995 16206
L38958 16263
L38920 16300
L38883 16319
" />
<path d="M39351 16206
L39389 16206
L39426 16225
L39445 16244
L39464 16281
L39483 16356
L39483 16450
L39464 16525
L39445 16563
L39426 16581
L39389 16600
L39351 16600
L39314 16581
L39295 16563
L39276 16525
L39258 16450
L39258 16356
L39276 16281
L39295 16244
L39314 16225
L39351 16206
" />
<path d="M38870 30724
L38851 30743
L38795 30762
L38758 30762
L38701 30743
L38664 30706
L38645 30668
L38626 30593
L38626 30537
L38645 30462
L38664 30424
L38701 30387
L38758 30368
L38795 30368
L38851 30387
L38870 30406
" />
<path d="M39208 30368
L39133 30368
L39095 30387
L39076 30406
L39039 30462
L39020 30537
L39020 30687
L39039 30724
L39058 30743
L39095 30762
L39170 30762
L39208 30743
L39226 30724
L39245 30687
L39245 30593
L39226 30556
L39208 30537
L39170 30518
L39095 30518
L39058 30537
L39039 30556
L39020 30593
" />
<path d="M59420 16563
L59401 16581
L59345 16600
L59308 16600
L59251 16581
L59214 16544
L59195 16506
L59176 16431
L59176 16375
L59195 16300
L59214 16263
L59251 16225
L59308 16206
L59345 16206
L59401 16225
L59420 16244
" />
<path d="M59551 16206
L59814 16206
L59645 16600
" />
<path d="M52587 16563
L52568 16581
L52512 16600
L52474 16600
L52418 16581
L52381 16544
L52362 16506
L52343 16431
L52343 16375
L52362 16300
L52381 16263
L52418 16225
L52474 16206
L52512 16206
L52568 16225
L52587 16244
" />
<path d="M52812 16375
L52774 16356
L52755 16338
L52737 16300
L52737 16281
L52755 16244
L52774 16225
L52812 16206
L52887 16206
L52924 16225
L52943 16244
L52962 16281
L52962 16300
L52943 16338
L52924 16356
L52887 16375
L52812 16375
L52774 16394
L52755 16413
L52737 16450
L52737 16525
L52755 16563
L52774 16581
L52812 16600
L52887 16600
L52924 16581
L52943 16563
L52962 16525
L52962 16450
L52943 16413
L52924 16394
L52887 16375
" />
<path d="M59420 30774
L59401 30793
L59345 30812
L59308 30812
L59251 30793
L59214 30756
L59195 30718
L59176 30643
L59176 30587
L59195 30512
L59214 30474
L59251 30437
L59308 30418
L59345 30418
L59401 30437
L59420 30456
" />
<path d="M59758 30549
L59758 30812
" />
<path d="M59664 30399
L59570 30681
L59814 30681
" />
<path d="M45753 16563
L45735 16581
L45678 16600
L45641 16600
L45585 16581
L45547 16544
L45528 16506
L45510 16431
L45510 16375
L45528 16300
L45547 16263
L45585 16225
L45641 16206
L45678 16206
L45735 16225
L45753 16244
" />
<path d="M45941 16600
L46016 16600
L46053 16581
L46072 16563
L46110 16506
L46128 16431
L46128 16281
L46110 16244
L46091 16225
L46053 16206
L45978 16206
L45941 16225
L45922 16244
L45903 16281
L45903 16375
L45922 16413
L45941 16431
L45978 16450
L46053 16450
L46091 16431
L46110 16413
L46128 16375
" />
<path d="M53468 38948
L53487 38967
L53506 39023
L53506 39060
L53487 39117
L53450 39154
L53412 39173
L53337 39192
L53281 39192
L53206 39173
L53168 39154
L53131 39117
L53112 39060
L53112 39023
L53131 38967
L53150 38948
" />
<path d="M53112 38817
L53112 38573
L53262 38704
L53262 38648
L53281 38610
L53300 38592
L53337 38573
L53431 38573
L53468 38592
L53487 38610
L53506 38648
L53506 38760
L53487 38798
L53468 38817
" />
<path d="M47912 39687
L47725 39818
" />
<path d="M47912 39912
L47519 39912
L47519 39762
L47537 39724
L47556 39706
L47594 39687
L47650 39687
L47687 39706
L47706 39724
L47725 39762
L47725 39912
" />
<path d="M47912 39312
L47912 39537
" />
<path d="M47912 39424
L47519 39424
L47575 39462
L47612 39499
L47631 39537
" />
<path d="M47519 39068
L47519 39031
L47537 38993
L47556 38974
L47594 38956
L47669 38937
L47762 38937
L47837 38956
L47875 38974
L47894 38993
L47912 39031
L47912 39068
L47894 39106
L47875 39124
L47837 39143
L47762 39162
L47669 39162
L47594 39143
L47556 39124
L47537 39106
L47519 39068
" />
<path d="M46012 39499
L45825 39631
" />
<path d="M46012 39724
L45619 39724
L45619 39574
L45637 39537
L45656 39518
L45694 39499
L45750 39499
L45787 39518
L45806 39537
L45825 39574
L45825 39724
" />
<path d="M46012 39312
L46012 39237
L45994 39199
L45975 39181
L45919 39143
L45844 39124
L45694 39124
L45656 39143
L45637 39162
L45619 39199
L45619 39274
L45637 39312
L45656 39331
L45694 39349
L45787 39349
L45825 39331
L45844 39312
L45862 39274
L45862 39199
L45844 39162
L45825 39143
L45787 39124
" />
<path d="M42012 39499
L41825 39631
" />
<path d="M42012 39724
L41619 39724
L41619 39574
L41637 39537
L41656 39518
L41694 39499
L41750 39499
L41787 39518
L41806 39537
L41825 39574
L41825 39724
" />
<path d="M41787 39274
L41769 39312
L41750 39331
L41712 39349
L41694 39349
L41656 39331
L41637 39312
L41619 39274
L41619 39199
L41637 39162
L41656 39143
L41694 39124
L41712 39124
L41750 39143
L41769 39162
L41787 39199
L41787 39274
L41806 39312
L41825 39331
L41862 39349
L41937 39349
L41975 39331
L41994 39312
L42012 39274
L42012 39199
L41994 39162
L41975 39143
L41937 39124
L41862 39124
L41825 39143
L41806 39162
L41787 39199
" />
<path d="M38212 39499
L38025 39631
" />
<path d="M38212 39724
L37819 39724
L37819 39574
L37837 39537
L37856 39518
L37894 39499
L37950 39499
L37987 39518
L38006 39537
L38025 39574
L38025 39724
" />
<path d="M37819 39368
L37819 39106
L38212 39274
" />
<path d="M52995 42513
L52863 42326
" />
<path d="M52770 42513
L52770 42119
L52920 42119
L52957 42138
L52976 42157
L52995 42194
L52995 42251
L52976 42288
L52957 42307
L52920 42326
L52770 42326
" />
<path d="M53332 42119
L53257 42119
L53219 42138
L53201 42157
L53163 42213
L53144 42288
L53144 42438
L53163 42476
L53182 42494
L53219 42513
L53294 42513
L53332 42494
L53351 42476
L53369 42438
L53369 42344
L53351 42307
L53332 42288
L53294 42269
L53219 42269
L53182 42288
L53163 42307
L53144 42344
" />
<path d="M57042 41265
L56911 41078
" />
<path d="M56817 41265
L56817 40871
L56967 40871
L57004 40890
L57023 40909
L57042 40946
L57042 41003
L57023 41040
L57004 41059
L56967 41078
L56817 41078
" />
<path d="M57398 40871
L57210 40871
L57192 41059
L57210 41040
L57248 41021
L57342 41021
L57379 41040
L57398 41059
L57417 41096
L57417 41190
L57398 41228
L57379 41246
L57342 41265
L57248 41265
L57210 41246
L57192 41228
" />
<path d="M52207 44560
L52076 44373
" />
<path d="M51982 44560
L51982 44167
L52132 44167
L52170 44185
L52188 44204
L52207 44242
L52207 44298
L52188 44335
L52170 44354
L52132 44373
L51982 44373
" />
<path d="M52545 44298
L52545 44560
" />
<path d="M52451 44148
L52357 44429
L52601 44429
" />
<path d="M59687 46994
L59556 46807
" />
<path d="M59462 46994
L59462 46600
L59612 46600
L59650 46619
L59669 46638
L59687 46675
L59687 46732
L59669 46769
L59650 46788
L59612 46807
L59462 46807
" />
<path d="M59819 46600
L60062 46600
L59931 46750
L59987 46750
L60025 46769
L60044 46788
L60062 46825
L60062 46919
L60044 46957
L60025 46975
L59987 46994
L59875 46994
L59837 46975
L59819 46957
" />
<path d="M59672 37734
L59540 37546
" />
<path d="M59447 37734
L59447 37340
L59597 37340
L59634 37359
L59653 37377
L59672 37415
L59672 37471
L59653 37509
L59634 37527
L59597 37546
L59447 37546
" />
<path d="M59822 37377
L59840 37359
L59878 37340
L59972 37340
L60009 37359
L60028 37377
L60047 37415
L60047 37452
L60028 37509
L59803 37734
L60047 37734
" />
<path d="M57802 33579
L57670 33391
" />
<path d="M57577 33579
L57577 33185
L57727 33185
L57764 33204
L57783 33223
L57802 33260
L57802 33316
L57783 33354
L57764 33373
L57727 33391
L57577 33391
" />
<path d="M58177 33579
L57952 33579
" />
<path d="M58064 33579
L58064 33185
L58027 33241
L57989 33279
L57952 33298
" />
<path d="M37180 33123
L37142 33105
L37105 33067
L37048 33011
L37011 32992
L36973 32992
" />
<path d="M36992 33086
L36955 33067
L36917 33030
L36899 32955
L36899 32823
L36917 32748
L36955 32711
L36992 32692
L37067 32692
L37105 32711
L37142 32748
L37161 32823
L37161 32955
L37142 33030
L37105 33067
L37067 33086
L36992 33086
" />
<path d="M37536 33086
L37311 33086
" />
<path d="M37423 33086
L37423 32692
L37386 32748
L37348 32786
L37311 32805
" />
<path d="M38820 36305
L38802 36342
L38802 36398
L38820 36455
L38858 36492
L38895 36511
L38970 36530
L39027 36530
L39102 36511
L39139 36492
L39177 36455
L39195 36398
L39195 36361
L39177 36305
L39158 36286
L39027 36286
L39027 36361
" />
<path d="M39177 34520
L39195 34464
L39195 34370
L39177 34333
L39158 34314
L39120 34295
L39083 34295
L39045 34314
L39027 34333
L39008 34370
L38989 34445
L38970 34483
L38952 34502
L38914 34520
L38877 34520
L38839 34502
L38820 34483
L38802 34445
L38802 34352
L38820 34295
" />
<path d="M40195 35511
L39802 35511
L39802 35417
L39820 35361
L39858 35323
L39895 35305
L39970 35286
L40027 35286
L40102 35305
L40139 35323
L40177 35361
L40195 35417
L40195 35511
" />
<path d="M48680 33123
L48642 33105
L48605 33067
L48548 33011
L48511 32992
L48473 32992
" />
<path d="M48492 33086
L48455 33067
L48417 33030
L48399 32955
L48399 32823
L48417 32748
L48455 32711
L48492 32692
L48567 32692
L48605 32711
L48642 32748
L48661 32823
L48661 32955
L48642 33030
L48605 33067
L48567 33086
L48492 33086
" />
<path d="M48998 32823
L48998 33086
" />
<path d="M48905 32673
L48811 32955
L49055 32955
" />
<path d="M50320 36305
L50302 36342
L50302 36398
L50320 36455
L50358 36492
L50395 36511
L50470 36530
L50527 36530
L50602 36511
L50639 36492
L50677 36455
L50695 36398
L50695 36361
L50677 36305
L50658 36286
L50527 36286
L50527 36361
" />
<path d="M50677 34520
L50695 34464
L50695 34370
L50677 34333
L50658 34314
L50620 34295
L50583 34295
L50545 34314
L50527 34333
L50508 34370
L50489 34445
L50470 34483
L50452 34502
L50414 34520
L50377 34520
L50339 34502
L50320 34483
L50302 34445
L50302 34352
L50320 34295
" />
<path d="M51695 35511
L51302 35511
L51302 35417
L51320 35361
L51358 35323
L51395 35305
L51470 35286
L51527 35286
L51602 35305
L51639 35323
L51677 35361
L51695 35417
L51695 35511
" />
<path d="M44846 33123
L44809 33105
L44771 33067
L44715 33011
L44678 32992
L44640 32992
" />
<path d="M44659 33086
L44621 33067
L44584 33030
L44565 32955
L44565 32823
L44584 32748
L44621 32711
L44659 32692
L44734 32692
L44771 32711
L44809 32748
L44828 32823
L44828 32955
L44809 33030
L44771 33067
L44734 33086
L44659 33086
" />
<path d="M44959 32692
L45203 32692
L45071 32842
L45128 32842
L45165 32861
L45184 32880
L45203 32917
L45203 33011
L45184 33048
L45165 33067
L45128 33086
L45015 33086
L44978 33067
L44959 33048
" />
<path d="M46487 36305
L46468 36342
L46468 36398
L46487 36455
L46525 36492
L46562 36511
L46637 36530
L46693 36530
L46768 36511
L46806 36492
L46843 36455
L46862 36398
L46862 36361
L46843 36305
L46824 36286
L46693 36286
L46693 36361
" />
<path d="M46843 34520
L46862 34464
L46862 34370
L46843 34333
L46824 34314
L46787 34295
L46749 34295
L46712 34314
L46693 34333
L46675 34370
L46656 34445
L46637 34483
L46618 34502
L46581 34520
L46543 34520
L46506 34502
L46487 34483
L46468 34445
L46468 34352
L46487 34295
" />
<path d="M47862 35511
L47468 35511
L47468 35417
L47487 35361
L47525 35323
L47562 35305
L47637 35286
L47693 35286
L47768 35305
L47806 35323
L47843 35361
L47862 35417
L47862 35511
" />
<path d="M41013 33123
L40976 33105
L40938 33067
L40882 33011
L40844 32992
L40807 32992
" />
<path d="M40826 33086
L40788 33067
L40751 33030
L40732 32955
L40732 32823
L40751 32748
L40788 32711
L40826 32692
L40901 32692
L40938 32711
L40976 32748
L40994 32823
L40994 32955
L40976 33030
L40938 33067
L40901 33086
L40826 33086
" />
<path d="M41144 32730
L41163 32711
L41201 32692
L41294 32692
L41332 32711
L41351 32730
L41369 32767
L41369 32805
L41351 32861
L41126 33086
L41369 33086
" />
<path d="M42654 36305
L42635 36342
L42635 36398
L42654 36455
L42691 36492
L42729 36511
L42804 36530
L42860 36530
L42935 36511
L42972 36492
L43010 36455
L43029 36398
L43029 36361
L43010 36305
L42991 36286
L42860 36286
L42860 36361
" />
<path d="M43010 34520
L43029 34464
L43029 34370
L43010 34333
L42991 34314
L42954 34295
L42916 34295
L42879 34314
L42860 34333
L42841 34370
L42822 34445
L42804 34483
L42785 34502
L42747 34520
L42710 34520
L42672 34502
L42654 34483
L42635 34445
L42635 34352
L42654 34295
" />
<path d="M44029 35511
L43635 35511
L43635 35417
L43654 35361
L43691 35323
L43729 35305
L43804 35286
L43860 35286
L43935 35305
L43972 35323
L44010 35361
L44029 35417
L44029 35511
" />
<path d="M52481 45466
L52481 45785
L52499 45822
L52518 45841
L52556 45859
L52631 45859
L52668 45841
L52687 45822
L52706 45785
L52706 45466
" />
<path d="M53099 45859
L52874 45859
" />
<path d="M52987 45859
L52987 45466
L52949 45522
L52912 45560
L52874 45578
" />
<path d="M46940 48950
L46940 48556
L47034 48556
L47090 48575
L47128 48613
L47147 48650
L47165 48725
L47165 48781
L47147 48856
L47128 48894
L47090 48931
L47034 48950
L46940 48950
" />
<path d="M47297 48556
L47559 48556
L47297 48950
L47559 48950
" />
<path d="M47690 48594
L47709 48575
L47746 48556
L47840 48556
L47878 48575
L47896 48594
L47915 48631
L47915 48669
L47896 48725
L47671 48950
L47915 48950
" />
<path d="M60289 33312
L59896 33312
L59896 33218
L59914 33162
L59952 33124
L59989 33106
L60064 33087
L60121 33087
L60196 33106
L60233 33124
L60271 33162
L60289 33218
L60289 33312
" />
<path d="M59896 32956
L59896 32693
L60289 32956
L60289 32693
" />
<path d="M60289 32337
L60289 32562
" />
<path d="M60289 32449
L59896 32449
L59952 32487
L59989 32524
L60008 32562
" />
<path d="M60356 34437
L59963 34437
" />
<path d="M60356 34212
L60131 34381
" />
<path d="M59963 34212
L60188 34437
" />
<path d="M55279 45011
L55298 45030
L55317 45086
L55317 45123
L55298 45180
L55261 45217
L55223 45236
L55148 45255
L55092 45255
L55017 45236
L54980 45217
L54942 45180
L54923 45123
L54923 45086
L54942 45030
L54961 45011
" />
<path d="M54961 44861
L54942 44842
L54923 44805
L54923 44711
L54942 44673
L54961 44655
L54998 44636
L55036 44636
L55092 44655
L55317 44880
L55317 44636
" />
<path d="M30141 33612
L30141 33218
L30235 33218
L30291 33237
L30329 33274
L30347 33312
L30366 33387
L30366 33443
L30347 33518
L30329 33556
L30291 33593
L30235 33612
L30141 33612
" />
<path d="M30704 33349
L30704 33612
" />
<path d="M30610 33199
L30516 33481
L30760 33481
" />
<path d="M32215 32637
L31822 32637
" />
<path d="M32215 32412
L31990 32581
" />
<path d="M31822 32412
L32047 32637
" />
<path d="M25096 33612
L25096 33218
L25190 33218
L25246 33237
L25284 33274
L25303 33312
L25321 33387
L25321 33443
L25303 33518
L25284 33556
L25246 33593
L25190 33612
L25096 33612
" />
<path d="M25471 33256
L25490 33237
L25528 33218
L25621 33218
L25659 33237
L25677 33256
L25696 33293
L25696 33331
L25677 33387
L25453 33612
L25696 33612
" />
<path d="M27171 32637
L26777 32637
" />
<path d="M27171 32412
L26946 32581
" />
<path d="M26777 32412
L27002 32637
" />
<path d="M27619 33612
L27619 33218
L27712 33218
L27769 33237
L27806 33274
L27825 33312
L27844 33387
L27844 33443
L27825 33518
L27806 33556
L27769 33593
L27712 33612
L27619 33612
" />
<path d="M27975 33218
L28219 33218
L28087 33368
L28144 33368
L28181 33387
L28200 33406
L28219 33443
L28219 33537
L28200 33574
L28181 33593
L28144 33612
L28031 33612
L27994 33593
L27975 33574
" />
<path d="M29693 32637
L29299 32637
" />
<path d="M29693 32412
L29468 32581
" />
<path d="M29299 32412
L29524 32637
" />
<path d="M22574 33612
L22574 33218
L22668 33218
L22724 33237
L22761 33274
L22780 33312
L22799 33387
L22799 33443
L22780 33518
L22761 33556
L22724 33593
L22668 33612
L22574 33612
" />
<path d="M23174 33612
L22949 33612
" />
<path d="M23061 33612
L23061 33218
L23024 33274
L22986 33312
L22949 33331
" />
<path d="M24648 32637
L24254 32637
" />
<path d="M24648 32412
L24423 32581
" />
<path d="M24254 32412
L24479 32637
" />
<path d="M59302 36834
L59302 36609
" />
<path d="M59695 36721
L59302 36721
" />
<path d="M59695 36271
L59695 36496
" />
<path d="M59695 36384
L59302 36384
L59358 36421
L59395 36459
L59414 36496
" />
<path d="M56433 37406
L56564 37406
" />
<path d="M56620 37612
L56433 37612
L56433 37218
L56620 37218
" />
<path d="M57639 37574
L57620 37593
L57564 37612
L57527 37612
L57470 37593
L57433 37556
L57414 37518
L57395 37443
L57395 37387
L57414 37312
L57433 37274
L57470 37237
L57527 37218
L57564 37218
L57620 37237
L57639 37256
" />
<path d="M58545 37406
L58602 37424
L58620 37443
L58639 37481
L58639 37537
L58620 37574
L58602 37593
L58564 37612
L58414 37612
L58414 37218
L58545 37218
L58583 37237
L58602 37256
L58620 37293
L58620 37331
L58602 37368
L58583 37387
L58545 37406
L58414 37406
" />
<path d="M25702 30418
L25702 30699
L25683 30755
L25646 30793
L25590 30811
L25552 30811
" />
<path d="M26096 30811
L25871 30811
" />
<path d="M25983 30811
L25983 30418
L25946 30474
L25908 30511
L25871 30530
" />
<path d="M25733 40269
L25733 40550
L25714 40606
L25677 40644
L25621 40662
L25583 40662
" />
<path d="M25902 40306
L25921 40287
L25958 40269
L26052 40269
L26089 40287
L26108 40306
L26127 40344
L26127 40381
L26108 40437
L25883 40662
L26127 40662
" />
<path d="M25752 15472
L25752 15753
L25733 15809
L25696 15847
L25640 15865
L25602 15865
" />
<path d="M25902 15472
L26146 15472
L26015 15622
L26071 15622
L26108 15640
L26127 15659
L26146 15697
L26146 15790
L26127 15828
L26108 15847
L26071 15865
L25958 15865
L25921 15847
L25902 15828
" />
<g >
</g>
</g> 
</svg>
